AndadaPro-Regular.ufo
<glyph name="dollar" format="2">
  <advance width="574.6"/>
  <unicode hex="0024"/>
  <outline>
    <contour>
      <point x="280" y="-13" type="curve" smooth="yes"/>
      <point x="399" y="-13"/>
      <point x="495" y="44"/>
      <point x="495" y="163" type="curve" smooth="yes"/>
      <point x="495" y="364"/>
      <point x="185" y="353"/>
      <point x="185" y="492" type="curve" smooth="yes"/>
      <point x="185" y="557"/>
      <point x="232" y="590"/>
      <point x="287" y="590" type="curve" smooth="yes"/>
      <point x="335" y="590"/>
      <point x="367" y="584"/>
      <point x="417" y="559" type="curve"/>
      <point x="388" y="595" type="line"/>
      <point x="394" y="571"/>
      <point x="405" y="534"/>
      <point x="405" y="521" type="curve"/>
      <point x="405" y="481" type="line"/>
      <point x="458" y="476" type="line"/>
      <point x="471" y="612" type="line"/>
      <point x="412" y="626"/>
      <point x="348" y="640"/>
      <point x="289" y="640" type="curve" smooth="yes"/>
      <point x="177" y="640"/>
      <point x="94" y="581"/>
      <point x="94" y="475" type="curve" smooth="yes"/>
      <point x="94" y="282"/>
      <point x="401" y="297"/>
      <point x="401" y="151" type="curve" smooth="yes"/>
      <point x="401" y="80"/>
      <point x="354" y="42"/>
      <point x="282" y="42" type="curve" smooth="yes"/>
      <point x="229" y="42"/>
      <point x="181" y="58"/>
      <point x="149" y="73" type="curve"/>
      <point x="169" y="47" type="line"/>
      <point x="165" y="60"/>
      <point x="156" y="113"/>
      <point x="156" y="123" type="curve"/>
      <point x="158" y="167" type="line"/>
      <point x="96" y="172" type="line"/>
      <point x="82" y="33" type="line"/>
      <point x="116" y="13"/>
      <point x="192" y="-13"/>
    </contour>
    <contour>
      <point x="289" y="-154" type="line"/>
      <point x="296" y="15" type="line"/>
      <point x="253" y="15" type="line"/>
      <point x="246" y="-151" type="line"/>
    </contour>
    <contour>
      <point x="276" y="616" type="line"/>
      <point x="318" y="616" type="line"/>
      <point x="325" y="785" type="line"/>
      <point x="283" y="788" type="line"/>
    </contour>
  </outline>
</glyph>
<glyph name="parenleft" format="2">
  <advance width="415.7"/>
  <unicode hex="0028"/>
  <outline>
    <contour>
      <point x="303" y="-104" type="curve"/>
      <point x="328" y="-85" type="line"/>
      <point x="242" y="54"/>
      <point x="197" y="208"/>
      <point x="197" y="358" type="curve" smooth="yes"/>
      <point x="197" y="509"/>
      <point x="242" y="661"/>
      <point x="328" y="801" type="curve"/>
      <point x="303" y="820" type="line"/>
      <point x="175" y="691"/>
      <point x="104" y="538"/>
      <point x="104" y="358" type="curve" smooth="yes"/>
      <point x="104" y="182"/>
      <point x="172" y="28"/>
    </contour>
  </outline>
</glyph>
<glyph name="parenright" format="2">
  <advance width="415.7"/>
  <unicode hex="0029"/>
  <outline>
    <contour>
      <point x="113" y="819" type="curve"/>
      <point x="88" y="800" type="line"/>
      <point x="174" y="661"/>
      <point x="219" y="507"/>
      <point x="219" y="357" type="curve" smooth="yes"/>
      <point x="219" y="206"/>
      <point x="174" y="54"/>
      <point x="88" y="-86" type="curve"/>
      <point x="113" y="-105" type="line"/>
      <point x="241" y="24"/>
      <point x="312" y="177"/>
      <point x="312" y="357" type="curve" smooth="yes"/>
      <point x="312" y="533"/>
      <point x="244" y="687"/>
    </contour>
  </outline>
</glyph>
<glyph name="asterisk" format="2">
  <advance width="497.9"/>
  <unicode hex="002A"/>
  <outline>
    <contour>
      <point x="162" y="429" type="line"/>
      <point x="265" y="573" type="line"/>
      <point x="226" y="602" type="line"/>
      <point x="108" y="470" type="line"/>
    </contour>
    <contour>
      <point x="248" y="561" type="line"/>
      <point x="261" y="606" type="line"/>
      <point x="96" y="675" type="line"/>
      <point x="76" y="609" type="line"/>
    </contour>
    <contour>
      <point x="336" y="426" type="line"/>
      <point x="388" y="470" type="line"/>
      <point x="272" y="601" type="line"/>
      <point x="235" y="569" type="line"/>
    </contour>
    <contour>
      <point x="222" y="583" type="line"/>
      <point x="271" y="585" type="line"/>
      <point x="277" y="761" type="line"/>
      <point x="209" y="757" type="line"/>
    </contour>
    <contour>
      <point x="252" y="562" type="line"/>
      <point x="424" y="611" type="line"/>
      <point x="400" y="675" type="line"/>
      <point x="237" y="607" type="line"/>
    </contour>
  </outline>
</glyph>
<glyph name="comma" format="2">
  <advance width="323.9"/>
  <unicode hex="002C"/>
  <outline>
    <contour>
      <point x="101" y="-150" type="line"/>
      <point x="187" y="-129"/>
      <point x="229" y="-39"/>
      <point x="229" y="40" type="curve" smooth="yes"/>
      <point x="229" y="86"/>
      <point x="213" y="128"/>
      <point x="167" y="128" type="curve" smooth="yes"/>
      <point x="130" y="128"/>
      <point x="107" y="98"/>
      <point x="107" y="60" type="curve" smooth="yes"/>
      <point x="107" y="16"/>
      <point x="136" y="-20"/>
      <point x="188" y="-7" type="curve"/>
      <point x="157" y="9" type="line"/>
      <point x="170" y="-43"/>
      <point x="139" y="-92"/>
      <point x="91" y="-114" type="curve"/>
    </contour>
  </outline>
</glyph>
<glyph name="hyphen" format="2">
  <advance width="371.4"/>
  <unicode hex="002D"/>
  <outline>
    <contour>
      <point x="77" y="225" type="line"/>
      <point x="292" y="225" type="line"/>
      <point x="297" y="286" type="line"/>
      <point x="75" y="286" type="line"/>
    </contour>
  </outline>
</glyph>
<glyph name="slash" format="2">
  <advance width="409.3"/>
  <unicode hex="002F"/>
  <outline>
    <contour>
      <point x="79" y="-67" type="line"/>
      <point x="390" y="754" type="line"/>
      <point x="330" y="773" type="line"/>
      <point x="18" y="-48" type="line"/>
    </contour>
  </outline>
</glyph>
<glyph name="zero" format="2">
  <advance width="649.4"/>
  <unicode hex="0030"/>
  <outline>
    <contour>
      <point x="325" y="-10" type="curve" smooth="yes"/>
      <point x="496" y="-10"/>
      <point x="563" y="146"/>
      <point x="563" y="326" type="curve"/>
      <point x="563" y="506"/>
      <point x="496" y="662"/>
      <point x="325" y="662" type="curve" smooth="yes"/>
      <point x="153" y="662"/>
      <point x="87" y="506"/>
      <point x="87" y="326" type="curve"/>
      <point x="87" y="146"/>
      <point x="153" y="-10"/>
    </contour>
    <contour>
      <point x="325" y="48" type="curve" smooth="yes"/>
      <point x="203" y="48"/>
      <point x="179" y="197"/>
      <point x="179" y="326" type="curve"/>
      <point x="179" y="455"/>
      <point x="203" y="605"/>
      <point x="325" y="605" type="curve" smooth="yes"/>
      <point x="447" y="605"/>
      <point x="470" y="455"/>
      <point x="470" y="326" type="curve" smooth="yes"/>
      <point x="470" y="197"/>
      <point x="447" y="48"/>
    </contour>
  </outline>
</glyph>
<glyph name="one" format="2">
  <advance width="480.7"/>
  <unicode hex="0031"/>
  <outline>
    <contour>
      <point x="83" y="-5" type="line"/>
      <point x="129" y="-3"/>
      <point x="243" y="0"/>
      <point x="257" y="0" type="curve" smooth="yes"/>
      <point x="414" y="0" type="line"/>
      <point x="421" y="52" type="line"/>
      <point x="276" y="62" type="line"/>
      <point x="313" y="26" type="line"/>
      <point x="307" y="72"/>
      <point x="302" y="117"/>
      <point x="302" y="164" type="curve" smooth="yes"/>
      <point x="302" y="426" type="line" smooth="yes"/>
      <point x="302" y="463"/>
      <point x="306" y="581"/>
      <point x="309" y="660" type="curve"/>
      <point x="268" y="672" type="line"/>
      <point x="65" y="507" type="line"/>
      <point x="91" y="467" type="line"/>
      <point x="255" y="545" type="line"/>
      <point x="225" y="561" type="line"/>
      <point x="225" y="134" type="line" smooth="yes"/>
      <point x="225" y="119"/>
      <point x="217" y="62"/>
      <point x="212" y="26" type="curve"/>
      <point x="250" y="65" type="line"/>
      <point x="78" y="43" type="line"/>
    </contour>
  </outline>
</glyph>
<glyph name="two" format="2">
  <advance width="585.5"/>
  <unicode hex="0032"/>
  <outline>
    <contour>
      <point x="480" y="-3" type="line"/>
      <point x="498" y="17" type="line"/>
      <point x="507" y="154" type="line"/>
      <point x="455" y="158" type="line"/>
      <point x="450" y="110" type="line"/>
      <point x="442" y="88"/>
      <point x="432" y="67"/>
      <point x="423" y="45" type="curve"/>
      <point x="469" y="81" type="line"/>
      <point x="430" y="75"/>
      <point x="370" y="69"/>
      <point x="352" y="69" type="curve" smooth="yes"/>
      <point x="124" y="69" type="line"/>
      <point x="126" y="40" type="line"/>
      <point x="402" y="293"/>
      <point x="475" y="376"/>
      <point x="475" y="502" type="curve" smooth="yes"/>
      <point x="475" y="603"/>
      <point x="400" y="662"/>
      <point x="278" y="662" type="curve" smooth="yes"/>
      <point x="208" y="662"/>
      <point x="162" y="653"/>
      <point x="94" y="626" type="curve"/>
      <point x="108" y="482" type="line"/>
      <point x="160" y="484" type="line"/>
      <point x="158" y="530" type="line" smooth="yes"/>
      <point x="157" y="541"/>
      <point x="168" y="587"/>
      <point x="175" y="615" type="curve"/>
      <point x="145" y="567" type="line"/>
      <point x="191" y="599"/>
      <point x="223" y="610"/>
      <point x="270" y="610" type="curve" smooth="yes"/>
      <point x="339" y="610"/>
      <point x="387" y="559"/>
      <point x="387" y="487" type="curve" smooth="yes"/>
      <point x="387" y="400"/>
      <point x="356" y="357"/>
      <point x="73" y="70" type="curve"/>
      <point x="87" y="0" type="line"/>
      <point x="358" y="0" type="line"/>
    </contour>
  </outline>
</glyph>
<glyph name="three" format="2">
  <advance width="528.2"/>
  <unicode hex="0033"/>
  <outline>
    <contour>
      <point x="67" y="-105" type="line"/>
      <point x="294" y="-79"/>
      <point x="449" y="32"/>
      <point x="449" y="167" type="curve" smooth="yes"/>
      <point x="449" y="258"/>
      <point x="387" y="319"/>
      <point x="272" y="343" type="curve"/>
      <point x="276" y="326" type="line"/>
      <point x="368" y="355"/>
      <point x="421" y="419"/>
      <point x="421" y="500" type="curve" smooth="yes"/>
      <point x="421" y="605"/>
      <point x="351" y="662"/>
      <point x="224" y="662" type="curve" smooth="yes"/>
      <point x="173" y="662"/>
      <point x="130" y="654"/>
      <point x="68" y="633" type="curve"/>
      <point x="81" y="490" type="line"/>
      <point x="134" y="493" type="line"/>
      <point x="132" y="537" type="line" smooth="yes"/>
      <point x="131" y="549"/>
      <point x="142" y="593"/>
      <point x="149" y="622" type="curve"/>
      <point x="118" y="571" type="line"/>
      <point x="159" y="602"/>
      <point x="177" y="611"/>
      <point x="221" y="611" type="curve" smooth="yes"/>
      <point x="292" y="611"/>
      <point x="332" y="566"/>
      <point x="332" y="484" type="curve" smooth="yes"/>
      <point x="332" y="398"/>
      <point x="269" y="349"/>
      <point x="136" y="334" type="curve"/>
      <point x="150" y="288" type="line"/>
      <point x="163" y="289"/>
      <point x="191" y="291"/>
      <point x="220" y="291" type="curve" smooth="yes"/>
      <point x="303" y="291"/>
      <point x="360" y="241"/>
      <point x="360" y="166" type="curve" smooth="yes"/>
      <point x="360" y="68"/>
      <point x="237" y="-23"/>
      <point x="50" y="-54" type="curve"/>
    </contour>
  </outline>
</glyph>
<glyph name="four" format="2">
  <advance width="600"/>
  <unicode hex="0034"/>
  <outline>
    <contour>
      <point x="100" y="203" type="line"/>
      <point x="377" y="203" type="line"/>
      <point x="377" y="255" type="line"/>
      <point x="124" y="251" type="line"/>
      <point x="139" y="224" type="line"/>
      <point x="344" y="534" type="line" smooth="yes"/>
      <point x="355" y="551"/>
      <point x="431" y="633"/>
      <point x="485" y="691" type="curve"/>
      <point x="419" y="739" type="line"/>
      <point x="59" y="252" type="line"/>
    </contour>
    <contour>
      <point x="257" y="-5" type="line"/>
      <point x="303" y="-3"/>
      <point x="371" y="0"/>
      <point x="396" y="0" type="curve" smooth="yes"/>
      <point x="518" y="0" type="line"/>
      <point x="525" y="52" type="line"/>
      <point x="409" y="62" type="line"/>
      <point x="446" y="26" type="line"/>
      <point x="440" y="73"/>
      <point x="435" y="131"/>
      <point x="435" y="168" type="curve" smooth="yes"/>
      <point x="435" y="427" type="line"/>
      <point x="364" y="402" type="line"/>
      <point x="364" y="135" type="line" smooth="yes"/>
      <point x="364" y="109"/>
      <point x="354" y="62"/>
      <point x="346" y="26" type="curve"/>
      <point x="388" y="65" type="line"/>
      <point x="252" y="43" type="line"/>
    </contour>
    <contour>
      <point x="420" y="203" type="line"/>
      <point x="527" y="203" type="line"/>
      <point x="527" y="266" type="line"/>
      <point x="420" y="259" type="line"/>
    </contour>
  </outline>
</glyph>
<glyph name="five" format="2">
  <advance width="535.8"/>
  <unicode hex="0035"/>
  <outline>
    <contour>
      <point x="91" y="-105" type="line"/>
      <point x="296" y="-85"/>
      <point x="457" y="9"/>
      <point x="457" y="175" type="curve" smooth="yes"/>
      <point x="457" y="299"/>
      <point x="368" y="362"/>
      <point x="234" y="362" type="curve" smooth="yes"/>
      <point x="193" y="362"/>
      <point x="158" y="355"/>
      <point x="134" y="348" type="curve"/>
      <point x="149" y="327" type="line"/>
      <point x="162" y="577" type="line"/>
      <point x="223" y="577" type="line"/>
      <point x="436" y="601" type="line"/>
      <point x="430" y="662" type="line"/>
      <point x="187" y="652" type="line"/>
      <point x="121" y="652" type="line"/>
      <point x="102" y="634" type="line"/>
      <point x="86" y="304" type="line"/>
      <point x="122" y="286" type="line"/>
      <point x="164" y="296"/>
      <point x="194" y="299"/>
      <point x="219" y="299" type="curve" smooth="yes"/>
      <point x="314" y="299"/>
      <point x="368" y="252"/>
      <point x="368" y="166" type="curve" smooth="yes"/>
      <point x="368" y="34"/>
      <point x="233" y="-33"/>
      <point x="74" y="-54" type="curve"/>
    </contour>
  </outline>
</glyph>
<glyph name="six" format="2">
  <advance width="604.3"/>
  <unicode hex="0036"/>
  <outline>
    <contour>
      <point x="311" y="-11" type="curve" smooth="yes"/>
      <point x="432" y="-11"/>
      <point x="530" y="78"/>
      <point x="530" y="199" type="curve" smooth="yes"/>
      <point x="530" y="329"/>
      <point x="450" y="402"/>
      <point x="321" y="402" type="curve" smooth="yes"/>
      <point x="294" y="402"/>
      <point x="267" y="394"/>
      <point x="241" y="385" type="curve"/>
      <point x="247" y="340" type="line"/>
      <point x="270" y="343"/>
      <point x="292" y="345"/>
      <point x="315" y="345" type="curve" smooth="yes"/>
      <point x="398" y="345"/>
      <point x="441" y="282"/>
      <point x="441" y="199" type="curve" smooth="yes"/>
      <point x="441" y="117"/>
      <point x="393" y="43"/>
      <point x="311" y="43" type="curve" smooth="yes"/>
      <point x="212" y="43"/>
      <point x="169" y="148"/>
      <point x="169" y="246" type="curve" smooth="yes"/>
      <point x="169" y="418"/>
      <point x="250" y="621"/>
      <point x="516" y="698" type="curve"/>
      <point x="504" y="747" type="line"/>
      <point x="218" y="693"/>
      <point x="82" y="457"/>
      <point x="82" y="246" type="curve" smooth="yes"/>
      <point x="82" y="97"/>
      <point x="161" y="-11"/>
    </contour>
  </outline>
</glyph>
<glyph name="eight" format="2">
  <advance width="596.1"/>
  <unicode hex="0038"/>
  <outline>
    <contour>
      <point x="298" y="-10" type="curve" smooth="yes"/>
      <point x="415" y="-10"/>
      <point x="516" y="47"/>
      <point x="516" y="162" type="curve" smooth="yes"/>
      <point x="516" y="273"/>
      <point x="423" y="321"/>
      <point x="336" y="366" type="curve" smooth="yes"/>
      <point x="257" y="406"/>
      <point x="183" y="443"/>
      <point x="183" y="523" type="curve" smooth="yes"/>
      <point x="183" y="586"/>
      <point x="238" y="639"/>
      <point x="298" y="639" type="curve" smooth="yes"/>
      <point x="362" y="639"/>
      <point x="412" y="588"/>
      <point x="412" y="519" type="curve" smooth="yes"/>
      <point x="412" y="457"/>
      <point x="374" y="398"/>
      <point x="297" y="348" type="curve"/>
      <point x="309" y="316" type="line"/>
      <point x="402" y="354"/>
      <point x="494" y="429"/>
      <point x="494" y="519" type="curve" smooth="yes"/>
      <point x="494" y="624"/>
      <point x="399" y="682"/>
      <point x="298" y="682" type="curve" smooth="yes"/>
      <point x="194" y="682"/>
      <point x="102" y="623"/>
      <point x="102" y="521" type="curve" smooth="yes"/>
      <point x="102" y="408"/>
      <point x="193" y="362"/>
      <point x="281" y="317" type="curve" smooth="yes"/>
      <point x="357" y="277"/>
      <point x="430" y="240"/>
      <point x="430" y="160" type="curve" smooth="yes"/>
      <point x="430" y="85"/>
      <point x="369" y="34"/>
      <point x="298" y="34" type="curve" smooth="yes"/>
      <point x="222" y="34"/>
      <point x="165" y="85"/>
      <point x="165" y="164" type="curve" smooth="yes"/>
      <point x="165" y="247"/>
      <point x="247" y="316"/>
      <point x="314" y="349" type="curve"/>
      <point x="296" y="382" type="line"/>
      <point x="208" y="346"/>
      <point x="80" y="273"/>
      <point x="80" y="164" type="curve" smooth="yes"/>
      <point x="80" y="46"/>
      <point x="182" y="-10"/>
    </contour>
  </outline>
</glyph>
<glyph name="less" format="2">
  <advance width="531.9"/>
  <unicode hex="003C"/>
  <outline>
    <contour>
      <point x="388" y="-15" type="line"/>
      <point x="439" y="36" type="line"/>
      <point x="155" y="269" type="line"/>
      <point x="155" y="227" type="line"/>
      <point x="438" y="462" type="line"/>
      <point x="386" y="513" type="line"/>
      <point x="84" y="247" type="line"/>
    </contour>
  </outline>
</glyph>
<glyph name="equal" format="2">
  <advance width="719.1"/>
  <unicode hex="003D"/>
  <outline>
    <contour>
      <point x="132" y="309" type="line"/>
      <point x="587" y="314" type="line"/>
      <point x="587" y="376" type="line"/>
      <point x="132" y="376" type="line"/>
    </contour>
    <contour>
      <point x="132" y="121" type="line"/>
      <point x="587" y="121" type="line"/>
      <point x="587" y="189" type="line"/>
      <point x="132" y="183" type="line"/>
    </contour>
  </outline>
</glyph>
<glyph name="question" format="2">
  <advance width="495.8"/>
  <unicode hex="003F"/>
  <outline>
    <contour>
      <point x="191" y="216" type="line"/>
      <point x="197" y="221" type="line"/>
      <point x="191" y="383" type="line"/>
      <point x="167" y="351" type="line"/>
      <point x="341" y="338"/>
      <point x="426" y="438"/>
      <point x="426" y="566" type="curve" smooth="yes"/>
      <point x="426" y="690"/>
      <point x="343" y="767"/>
      <point x="218" y="767" type="curve" smooth="yes"/>
      <point x="177" y="767"/>
      <point x="133" y="759"/>
      <point x="84" y="744" type="curve"/>
      <point x="94" y="598" type="line"/>
      <point x="151" y="598" type="line"/>
      <point x="149" y="634" type="line" smooth="yes"/>
      <point x="148" y="653"/>
      <point x="157" y="696"/>
      <point x="160" y="726" type="curve"/>
      <point x="103" y="689" type="line"/>
      <point x="141" y="704"/>
      <point x="175" y="712"/>
      <point x="206" y="712" type="curve" smooth="yes"/>
      <point x="295" y="712"/>
      <point x="336" y="648"/>
      <point x="336" y="561" type="curve" smooth="yes"/>
      <point x="336" y="475"/>
      <point x="295" y="408"/>
      <point x="198" y="408" type="curve" smooth="yes"/>
      <point x="186" y="408"/>
      <point x="163" y="410"/>
      <point x="148" y="412" type="curve"/>
      <point x="122" y="389" type="line"/>
      <point x="122" y="219" type="line"/>
    </contour>
    <contour>
      <point x="152" y="-10" type="curve" smooth="yes"/>
      <point x="189" y="-10"/>
      <point x="210" y="17"/>
      <point x="210" y="54" type="curve" smooth="yes"/>
      <point x="210" y="91"/>
      <point x="189" y="117"/>
      <point x="152" y="117" type="curve" smooth="yes"/>
      <point x="115" y="117"/>
      <point x="95" y="91"/>
      <point x="95" y="54" type="curve" smooth="yes"/>
      <point x="95" y="14"/>
      <point x="116" y="-10"/>
    </contour>
  </outline>
</glyph>
<glyph name="A" format="2">
  <advance width="741.5"/>
  <unicode hex="0041"/>
  <anchor x="359" y="0" name="bottom"/>
  <anchor x="690" y="0" name="ogonek"/>
  <anchor x="362" y="705" name="top"/>
  <outline>
    <contour>
      <point x="50" y="-5" type="line"/>
      <point x="96" y="-3"/>
      <point x="160" y="0"/>
      <point x="185" y="0" type="curve" smooth="yes"/>
      <point x="270" y="0" type="line"/>
      <point x="275" y="53" type="line"/>
      <point x="170" y="68" type="line"/>
      <point x="201" y="42" type="line"/>
      <point x="204" y="68"/>
      <point x="205" y="100"/>
      <point x="214" y="128" type="curve" smooth="yes"/>
      <point x="363" y="593" type="line"/>
      <point x="342" y="593" type="line"/>
      <point x="491" y="175" type="line" smooth="yes"/>
      <point x="508" y="131"/>
      <point x="516" y="89"/>
      <point x="524" y="41" type="curve"/>
      <point x="552" y="74" type="line"/>
      <point x="446" y="42" type="line"/>
      <point x="449" y="-5" type="line"/>
      <point x="496" y="-3"/>
      <point x="563" y="0"/>
      <point x="588" y="0" type="curve" smooth="yes"/>
      <point x="690" y="0" type="line"/>
      <point x="695" y="53" type="line"/>
      <point x="598" y="70" type="line"/>
      <point x="640" y="45" type="line"/>
      <point x="625" y="77"/>
      <point x="605" y="114"/>
      <point x="593" y="151" type="curve" smooth="yes"/>
      <point x="386" y="715" type="line"/>
      <point x="331" y="705" type="line"/>
      <point x="154" y="160" type="line" smooth="yes"/>
      <point x="140" y="117"/>
      <point x="116" y="73"/>
      <point x="102" y="44" type="curve"/>
      <point x="142" y="69" type="line"/>
      <point x="46" y="42" type="line"/>
    </contour>
    <contour>
      <point x="222" y="225" type="line"/>
      <point x="505" y="225" type="line"/>
      <point x="505" y="276" type="line"/>
      <point x="222" y="276" type="line"/>
    </contour>
  </outline>
</glyph>
<glyph name="B" format="2">
  <advance width="628.8"/>
  <unicode hex="0042"/>
  <anchor x="316" y="0" name="bottom"/>
  <anchor x="316" y="705" name="top"/>
  <outline>
    <contour>
      <point x="61" y="-5" type="line"/>
      <point x="107" y="-3"/>
      <point x="170" y="0"/>
      <point x="195" y="0" type="curve" smooth="yes"/>
      <point x="245" y="0"/>
      <point x="312" y="-4"/>
      <point x="362" y="-4" type="curve" smooth="yes"/>
      <point x="475" y="-4"/>
      <point x="563" y="70"/>
      <point x="563" y="183" type="curve" smooth="yes"/>
      <point x="563" y="295"/>
      <point x="480" y="359"/>
      <point x="368" y="366" type="curve"/>
      <point x="393" y="329" type="line"/>
      <point x="393" y="404" type="line"/>
      <point x="370" y="365" type="line"/>
      <point x="463" y="378"/>
      <point x="532" y="446"/>
      <point x="532" y="543" type="curve" smooth="yes"/>
      <point x="532" y="648"/>
      <point x="447" y="710"/>
      <point x="345" y="710" type="curve" smooth="yes"/>
      <point x="295" y="710"/>
      <point x="228" y="705"/>
      <point x="178" y="705" type="curve" smooth="yes"/>
      <point x="159" y="705"/>
      <point x="100" y="708"/>
      <point x="63" y="710" type="curve"/>
      <point x="58" y="658" type="line"/>
      <point x="156" y="643" type="line"/>
      <point x="132" y="670" type="line"/>
      <point x="136" y="651"/>
      <point x="145" y="591"/>
      <point x="145" y="570" type="curve" smooth="yes"/>
      <point x="145" y="135" type="line" smooth="yes"/>
      <point x="145" y="113"/>
      <point x="136" y="49"/>
      <point x="132" y="24" type="curve"/>
      <point x="170" y="67" type="line"/>
      <point x="56" y="44" type="line"/>
    </contour>
    <contour>
      <point x="242" y="20" type="line"/>
      <point x="237" y="44"/>
      <point x="231" y="110"/>
      <point x="231" y="165" type="curve" smooth="yes"/>
      <point x="231" y="540" type="line" smooth="yes"/>
      <point x="231" y="593"/>
      <point x="240" y="666"/>
      <point x="242" y="681" type="curve"/>
      <point x="219" y="656" type="line"/>
      <point x="248" y="658"/>
      <point x="287" y="658"/>
      <point x="324" y="658" type="curve" smooth="yes"/>
      <point x="394" y="658"/>
      <point x="443" y="608"/>
      <point x="443" y="532" type="curve" smooth="yes"/>
      <point x="443" y="441"/>
      <point x="379" y="393"/>
      <point x="299" y="393" type="curve" smooth="yes"/>
      <point x="291" y="393" type="line"/>
      <point x="284" y="338" type="line"/>
      <point x="296" y="338" type="line" smooth="yes"/>
      <point x="386" y="338"/>
      <point x="466" y="292"/>
      <point x="466" y="190" type="curve" smooth="yes"/>
      <point x="466" y="100"/>
      <point x="411" y="52"/>
      <point x="331" y="52" type="curve" smooth="yes"/>
      <point x="289" y="52"/>
      <point x="246" y="56"/>
      <point x="221" y="58" type="curve"/>
    </contour>
  </outline>
</glyph>
<glyph name="D" format="2">
  <advance width="760.5"/>
  <unicode hex="0044"/>
  <anchor x="343" y="0" name="bottom"/>
  <anchor x="198" y="353" name="center"/>
  <anchor x="344" y="720" name="top"/>
  <outline>
    <contour>
      <point x="61" y="-5" type="line"/>
      <point x="106" y="-3"/>
      <point x="171" y="0"/>
      <point x="195" y="0" type="curve" smooth="yes"/>
      <point x="245" y="0"/>
      <point x="297" y="-4"/>
      <point x="347" y="-4" type="curve" smooth="yes"/>
      <point x="561" y="-4"/>
      <point x="691" y="141"/>
      <point x="691" y="352" type="curve" smooth="yes"/>
      <point x="691" y="571"/>
      <point x="569" y="710"/>
      <point x="347" y="710" type="curve" smooth="yes"/>
      <point x="279" y="710"/>
      <point x="242" y="705"/>
      <point x="177" y="705" type="curve" smooth="yes"/>
      <point x="158" y="705"/>
      <point x="100" y="708"/>
      <point x="63" y="710" type="curve"/>
      <point x="58" y="658" type="line"/>
      <point x="170" y="640" type="line"/>
      <point x="131" y="674" type="line"/>
      <point x="134" y="657"/>
      <point x="145" y="591"/>
      <point x="145" y="570" type="curve" smooth="yes"/>
      <point x="145" y="135" type="line" smooth="yes"/>
      <point x="145" y="114"/>
      <point x="134" y="45"/>
      <point x="130" y="22" type="curve"/>
      <point x="170" y="67" type="line"/>
      <point x="56" y="44" type="line"/>
    </contour>
    <contour>
      <point x="240" y="36" type="line"/>
      <point x="239" y="59"/>
      <point x="231" y="105"/>
      <point x="231" y="165" type="curve" smooth="yes"/>
      <point x="231" y="540" type="line" smooth="yes"/>
      <point x="231" y="589"/>
      <point x="238" y="660"/>
      <point x="243" y="678" type="curve"/>
      <point x="225" y="652" type="line"/>
      <point x="249" y="652"/>
      <point x="291" y="652"/>
      <point x="349" y="652" type="curve" smooth="yes"/>
      <point x="517" y="652"/>
      <point x="597" y="515"/>
      <point x="597" y="352" type="curve" smooth="yes"/>
      <point x="597" y="188"/>
      <point x="517" y="53"/>
      <point x="349" y="53" type="curve" smooth="yes"/>
      <point x="293" y="53"/>
      <point x="250" y="56"/>
      <point x="224" y="56" type="curve"/>
    </contour>
  </outline>
</glyph>
<glyph name="E" format="2">
  <advance width="628.4"/>
  <unicode hex="0045"/>
  <anchor x="320" y="0" name="bottom"/>
  <anchor x="528" y="-4" name="ogonek"/>
  <anchor x="308" y="720" name="top"/>
  <outline>
    <contour>
      <point x="61" y="-5" type="line"/>
      <point x="106" y="-2"/>
      <point x="171" y="0"/>
      <point x="195" y="0" type="curve" smooth="yes"/>
      <point x="414" y="0" type="line" smooth="yes"/>
      <point x="431" y="0"/>
      <point x="490" y="-2"/>
      <point x="528" y="-4" type="curve"/>
      <point x="547" y="14" type="line"/>
      <point x="562" y="163" type="line"/>
      <point x="508" y="168" type="line"/>
      <point x="493" y="100" type="line" smooth="yes"/>
      <point x="490" y="86"/>
      <point x="470" y="61"/>
      <point x="456" y="43" type="curve"/>
      <point x="486" y="67" type="line"/>
      <point x="468" y="63"/>
      <point x="424" y="55"/>
      <point x="384" y="55" type="curve" smooth="yes"/>
      <point x="203" y="55" type="line"/>
      <point x="244" y="13" type="line"/>
      <point x="238" y="42"/>
      <point x="231" y="115"/>
      <point x="231" y="165" type="curve" smooth="yes"/>
      <point x="231" y="540" type="line" smooth="yes"/>
      <point x="231" y="566"/>
      <point x="237" y="631"/>
      <point x="242" y="677" type="curve"/>
      <point x="205" y="651" type="line"/>
      <point x="371" y="651" type="line" smooth="yes"/>
      <point x="407" y="651"/>
      <point x="448" y="648"/>
      <point x="468" y="645" type="curve"/>
      <point x="435" y="664" type="line"/>
      <point x="450" y="651"/>
      <point x="471" y="622"/>
      <point x="473" y="612" type="curve" smooth="yes"/>
      <point x="484" y="557" type="line"/>
      <point x="541" y="562" type="line"/>
      <point x="534" y="692" type="line"/>
      <point x="515" y="710" type="line"/>
      <point x="477" y="707"/>
      <point x="419" y="705"/>
      <point x="401" y="705" type="curve" smooth="yes"/>
      <point x="178" y="705" type="line" smooth="yes"/>
      <point x="159" y="705"/>
      <point x="100" y="708"/>
      <point x="63" y="710" type="curve"/>
      <point x="58" y="658" type="line"/>
      <point x="170" y="640" type="line"/>
      <point x="131" y="682" type="line"/>
      <point x="137" y="644"/>
      <point x="145" y="588"/>
      <point x="145" y="570" type="curve" smooth="yes"/>
      <point x="145" y="135" type="line" smooth="yes"/>
      <point x="145" y="114"/>
      <point x="134" y="44"/>
      <point x="130" y="23" type="curve"/>
      <point x="170" y="67" type="line"/>
      <point x="56" y="44" type="line"/>
    </contour>
    <contour>
      <point x="420" y="266" type="line"/>
      <point x="467" y="272" type="line"/>
      <point x="465" y="308"/>
      <point x="464" y="344"/>
      <point x="464" y="380" type="curve" smooth="yes"/>
      <point x="464" y="464" type="line"/>
      <point x="420" y="469" type="line"/>
      <point x="406" y="364" type="line"/>
      <point x="437" y="404" type="line"/>
      <point x="423" y="402"/>
      <point x="378" y="394"/>
      <point x="350" y="394" type="curve" smooth="yes"/>
      <point x="203" y="394" type="line"/>
      <point x="203" y="340" type="line"/>
      <point x="330" y="340" type="line" smooth="yes"/>
      <point x="356" y="340"/>
      <point x="420" y="332"/>
      <point x="442" y="329" type="curve"/>
      <point x="406" y="370" type="line"/>
    </contour>
  </outline>
</glyph>
<glyph name="G" format="2">
  <advance width="722.8"/>
  <unicode hex="0047"/>
  <anchor x="420" y="0" name="bottom"/>
  <anchor x="418" y="720" name="top"/>
  <outline>
    <contour>
      <point x="403" y="-15" type="curve" smooth="yes"/>
      <point x="489" y="-15"/>
      <point x="565" y="3"/>
      <point x="632" y="19" type="curve"/>
      <point x="632" y="164" type="line" smooth="yes"/>
      <point x="632" y="206"/>
      <point x="637" y="266"/>
      <point x="641" y="317" type="curve"/>
      <point x="623" y="334" type="line"/>
      <point x="600" y="333"/>
      <point x="569" y="331"/>
      <point x="556" y="331" type="curve" smooth="yes"/>
      <point x="445" y="331" type="line"/>
      <point x="440" y="276" type="line"/>
      <point x="580" y="265" type="line"/>
      <point x="545" y="298" type="line"/>
      <point x="548" y="276"/>
      <point x="556" y="222"/>
      <point x="556" y="196" type="curve" smooth="yes"/>
      <point x="556" y="128" type="line" smooth="yes"/>
      <point x="556" y="113"/>
      <point x="545" y="66"/>
      <point x="538" y="36" type="curve"/>
      <point x="564" y="68" type="line"/>
      <point x="516" y="52"/>
      <point x="447" y="40"/>
      <point x="400" y="40" type="curve" smooth="yes"/>
      <point x="244" y="40"/>
      <point x="167" y="179"/>
      <point x="167" y="353" type="curve" smooth="yes"/>
      <point x="167" y="528"/>
      <point x="243" y="665"/>
      <point x="400" y="665" type="curve" smooth="yes"/>
      <point x="450" y="665"/>
      <point x="517" y="650"/>
      <point x="563" y="634" type="curve"/>
      <point x="535" y="666" type="line"/>
      <point x="542" y="644"/>
      <point x="555" y="604"/>
      <point x="555" y="590" type="curve" smooth="yes"/>
      <point x="555" y="544" type="line"/>
      <point x="613" y="540" type="line"/>
      <point x="623" y="686" type="line"/>
      <point x="555" y="702"/>
      <point x="490" y="720"/>
      <point x="403" y="720" type="curve" smooth="yes"/>
      <point x="184" y="720"/>
      <point x="72" y="570"/>
      <point x="72" y="352" type="curve" smooth="yes"/>
      <point x="72" y="134"/>
      <point x="184" y="-15"/>
    </contour>
  </outline>
</glyph>
<glyph name="H" format="2">
  <advance width="806.4"/>
  <unicode hex="0048"/>
  <anchor x="399" y="0" name="bottom"/>
  <anchor x="399" y="520" name="center"/>
  <anchor x="399" y="720" name="top"/>
  <outline>
    <contour>
      <point x="482" y="-5" type="line"/>
      <point x="537" y="-2"/>
      <point x="582" y="0"/>
      <point x="616" y="0" type="curve" smooth="yes"/>
      <point x="744" y="0" type="line"/>
      <point x="751" y="53" type="line"/>
      <point x="626" y="63" type="line"/>
      <point x="664" y="28" type="line"/>
      <point x="659" y="53"/>
      <point x="653" y="113"/>
      <point x="653" y="165" type="curve" smooth="yes"/>
      <point x="653" y="540" type="line" smooth="yes"/>
      <point x="653" y="592"/>
      <point x="660" y="655"/>
      <point x="662" y="678" type="curve"/>
      <point x="626" y="643" type="line"/>
      <point x="738" y="653" type="line"/>
      <point x="734" y="710" type="line"/>
      <point x="679" y="707"/>
      <point x="634" y="705"/>
      <point x="599" y="705" type="curve" smooth="yes"/>
      <point x="580" y="705"/>
      <point x="522" y="708"/>
      <point x="485" y="710" type="curve"/>
      <point x="480" y="658" type="line"/>
      <point x="592" y="640" type="line"/>
      <point x="552" y="678" type="line"/>
      <point x="556" y="659"/>
      <point x="566" y="592"/>
      <point x="566" y="570" type="curve" smooth="yes"/>
      <point x="566" y="135" type="line" smooth="yes"/>
      <point x="566" y="114"/>
      <point x="558" y="57"/>
      <point x="552" y="28" type="curve"/>
      <point x="592" y="67" type="line"/>
      <point x="477" y="44" type="line"/>
    </contour>
    <contour>
      <point x="61" y="-5" type="line"/>
      <point x="116" y="-2"/>
      <point x="161" y="0"/>
      <point x="195" y="0" type="curve" smooth="yes"/>
      <point x="323" y="0" type="line"/>
      <point x="330" y="53" type="line"/>
      <point x="204" y="63" type="line"/>
      <point x="243" y="28" type="line"/>
      <point x="238" y="54"/>
      <point x="231" y="113"/>
      <point x="231" y="165" type="curve" smooth="yes"/>
      <point x="231" y="540" type="line" smooth="yes"/>
      <point x="231" y="592"/>
      <point x="239" y="661"/>
      <point x="242" y="678" type="curve"/>
      <point x="204" y="643" type="line"/>
      <point x="317" y="653" type="line"/>
      <point x="313" y="710" type="line"/>
      <point x="258" y="707"/>
      <point x="213" y="705"/>
      <point x="178" y="705" type="curve" smooth="yes"/>
      <point x="159" y="705"/>
      <point x="100" y="708"/>
      <point x="63" y="710" type="curve"/>
      <point x="58" y="658" type="line"/>
      <point x="170" y="640" type="line"/>
      <point x="131" y="678" type="line"/>
      <point x="135" y="658"/>
      <point x="145" y="591"/>
      <point x="145" y="570" type="curve" smooth="yes"/>
      <point x="145" y="135" type="line" smooth="yes"/>
      <point x="145" y="114"/>
      <point x="134" y="45"/>
      <point x="131" y="28" type="curve"/>
      <point x="170" y="67" type="line"/>
      <point x="56" y="44" type="line"/>
    </contour>
    <contour>
      <point x="176" y="329" type="line"/>
      <point x="621" y="329" type="line"/>
      <point x="621" y="382" type="line"/>
      <point x="176" y="377" type="line"/>
    </contour>
  </outline>
</glyph>
<glyph name="I" format="2">
  <advance width="385"/>
  <unicode hex="0049"/>
  <anchor x="198" y="0" name="bottom"/>
  <anchor x="324" y="0" name="ogonek"/>
  <anchor x="189" y="720" name="top"/>
  <outline>
    <contour>
      <point x="61" y="-5" type="line"/>
      <point x="106" y="-2"/>
      <point x="151" y="0"/>
      <point x="195" y="0" type="curve" smooth="yes"/>
      <point x="323" y="0" type="line"/>
      <point x="330" y="53" type="line"/>
      <point x="204" y="63" type="line"/>
      <point x="243" y="28" type="line"/>
      <point x="238" y="54"/>
      <point x="231" y="113"/>
      <point x="231" y="165" type="curve" smooth="yes"/>
      <point x="231" y="540" type="line" smooth="yes"/>
      <point x="231" y="592"/>
      <point x="239" y="661"/>
      <point x="242" y="678" type="curve"/>
      <point x="204" y="643" type="line"/>
      <point x="317" y="653" type="line"/>
      <point x="313" y="710" type="line"/>
      <point x="268" y="707"/>
      <point x="223" y="705"/>
      <point x="178" y="705" type="curve" smooth="yes"/>
      <point x="159" y="705"/>
      <point x="100" y="708"/>
      <point x="63" y="710" type="curve"/>
      <point x="58" y="658" type="line"/>
      <point x="170" y="640" type="line"/>
      <point x="131" y="678" type="line"/>
      <point x="135" y="658"/>
      <point x="145" y="591"/>
      <point x="145" y="570" type="curve" smooth="yes"/>
      <point x="145" y="135" type="line" smooth="yes"/>
      <point x="145" y="114"/>
      <point x="134" y="45"/>
      <point x="131" y="28" type="curve"/>
      <point x="170" y="67" type="line"/>
      <point x="56" y="44" type="line"/>
    </contour>
  </outline>
</glyph>
<glyph name="K" format="2">
  <advance width="736.6"/>
  <unicode hex="004B"/>
  <anchor x="361" y="0" name="bottom"/>
  <anchor x="361" y="720" name="top"/>
  <outline>
    <contour>
      <point x="423" y="-5" type="line"/>
      <point x="469" y="-3"/>
      <point x="533" y="0"/>
      <point x="560" y="0" type="curve" smooth="yes"/>
      <point x="690" y="0" type="line"/>
      <point x="697" y="53" type="line"/>
      <point x="592" y="64" type="line"/>
      <point x="665" y="26" type="line"/>
      <point x="646" y="42"/>
      <point x="561" y="113"/>
      <point x="547" y="129" type="curve" smooth="yes"/>
      <point x="312" y="397" type="line"/>
      <point x="315" y="343" type="line"/>
      <point x="468" y="546" type="line" smooth="yes"/>
      <point x="478" y="560"/>
      <point x="561" y="637"/>
      <point x="582" y="655" type="curve"/>
      <point x="538" y="643" type="line"/>
      <point x="649" y="653" type="line"/>
      <point x="645" y="710" type="line"/>
      <point x="593" y="707"/>
      <point x="549" y="705"/>
      <point x="516" y="705" type="curve" smooth="yes"/>
      <point x="496" y="705"/>
      <point x="445" y="708"/>
      <point x="414" y="710" type="curve"/>
      <point x="409" y="658" type="line"/>
      <point x="499" y="640" type="line"/>
      <point x="482" y="677" type="line"/>
      <point x="426" y="577" type="line"/>
      <point x="241" y="354" type="line"/>
      <point x="408" y="164" type="line" smooth="yes"/>
      <point x="424" y="146"/>
      <point x="485" y="49"/>
      <point x="497" y="29" type="curve"/>
      <point x="512" y="66" type="line"/>
      <point x="418" y="44" type="line"/>
    </contour>
    <contour>
      <point x="61" y="-5" type="line"/>
      <point x="116" y="-2"/>
      <point x="161" y="0"/>
      <point x="195" y="0" type="curve" smooth="yes"/>
      <point x="323" y="0" type="line"/>
      <point x="330" y="53" type="line"/>
      <point x="204" y="63" type="line"/>
      <point x="243" y="28" type="line"/>
      <point x="238" y="54"/>
      <point x="231" y="113"/>
      <point x="231" y="165" type="curve" smooth="yes"/>
      <point x="231" y="540" type="line" smooth="yes"/>
      <point x="231" y="592"/>
      <point x="239" y="661"/>
      <point x="242" y="678" type="curve"/>
      <point x="204" y="643" type="line"/>
      <point x="317" y="653" type="line"/>
      <point x="313" y="710" type="line"/>
      <point x="258" y="707"/>
      <point x="213" y="705"/>
      <point x="178" y="705" type="curve" smooth="yes"/>
      <point x="159" y="705"/>
      <point x="100" y="708"/>
      <point x="63" y="710" type="curve"/>
      <point x="58" y="658" type="line"/>
      <point x="170" y="640" type="line"/>
      <point x="131" y="678" type="line"/>
      <point x="135" y="658"/>
      <point x="145" y="591"/>
      <point x="145" y="570" type="curve" smooth="yes"/>
      <point x="145" y="135" type="line" smooth="yes"/>
      <point x="145" y="114"/>
      <point x="134" y="45"/>
      <point x="131" y="28" type="curve"/>
      <point x="170" y="67" type="line"/>
      <point x="56" y="44" type="line"/>
    </contour>
  </outline>
</glyph>
<glyph name="M" format="2">
  <advance width="978.5"/>
  <unicode hex="004D"/>
  <anchor x="489" y="0" name="bottom"/>
  <anchor x="489" y="705" name="top"/>
  <outline>
    <contour>
      <point x="55" y="-5" type="line"/>
      <point x="95" y="-3"/>
      <point x="156" y="0"/>
      <point x="176" y="0" type="curve" smooth="yes"/>
      <point x="290" y="0" type="line"/>
      <point x="297" y="53" type="line"/>
      <point x="181" y="63" type="line"/>
      <point x="219" y="22" type="line"/>
      <point x="216" y="37"/>
      <point x="208" y="132"/>
      <point x="210" y="165" type="curve" smooth="yes"/>
      <point x="236" y="623" type="line"/>
      <point x="222" y="621" type="line"/>
      <point x="456" y="0" type="line"/>
      <point x="488" y="0" type="line"/>
      <point x="722" y="621" type="line"/>
      <point x="708" y="623" type="line"/>
      <point x="739" y="135" type="line" smooth="yes"/>
      <point x="741" y="111"/>
      <point x="729" y="39"/>
      <point x="726" y="22" type="curve"/>
      <point x="767" y="67" type="line"/>
      <point x="655" y="44" type="line"/>
      <point x="660" y="-5" type="line"/>
      <point x="705" y="-3"/>
      <point x="769" y="0"/>
      <point x="794" y="0" type="curve" smooth="yes"/>
      <point x="922" y="0" type="line"/>
      <point x="929" y="53" type="line"/>
      <point x="812" y="63" type="line"/>
      <point x="854" y="22" type="line"/>
      <point x="847" y="54"/>
      <point x="829" y="146"/>
      <point x="827" y="165" type="curve" smooth="yes"/>
      <point x="798" y="540" type="line" smooth="yes"/>
      <point x="796" y="558"/>
      <point x="799" y="620"/>
      <point x="800" y="674" type="curve"/>
      <point x="765" y="643" type="line"/>
      <point x="880" y="653" type="line"/>
      <point x="876" y="710" type="line"/>
      <point x="827" y="708"/>
      <point x="771" y="705"/>
      <point x="719" y="705" type="curve" smooth="yes"/>
      <point x="699" y="705" type="line"/>
      <point x="679" y="685" type="line"/>
      <point x="660" y="630"/>
      <point x="632" y="552"/>
      <point x="625" y="536" type="curve"/>
      <point x="475" y="140" type="line"/>
      <point x="500" y="140" type="line"/>
      <point x="352" y="529" type="line"/>
      <point x="345" y="546"/>
      <point x="318" y="627"/>
      <point x="299" y="684" type="curve"/>
      <point x="280" y="705" type="line"/>
      <point x="205" y="705" type="line" smooth="yes"/>
      <point x="186" y="705"/>
      <point x="127" y="708"/>
      <point x="90" y="710" type="curve"/>
      <point x="85" y="658" type="line"/>
      <point x="203" y="641" type="line"/>
      <point x="164" y="685" type="line"/>
      <point x="168" y="659"/>
      <point x="173" y="592"/>
      <point x="172" y="571" type="curve" smooth="yes"/>
      <point x="146" y="135" type="line" smooth="yes"/>
      <point x="145" y="114"/>
      <point x="121" y="34"/>
      <point x="118" y="22" type="curve"/>
      <point x="163" y="67" type="line"/>
      <point x="50" y="44" type="line"/>
    </contour>
  </outline>
</glyph>
<glyph name="R" format="2">
  <advance width="692.5"/>
  <unicode hex="0052"/>
  <anchor x="357" y="0" name="bottom"/>
  <anchor x="314" y="720" name="top"/>
  <outline>
    <contour>
      <point x="61" y="-5" type="line"/>
      <point x="106" y="-3"/>
      <point x="171" y="0"/>
      <point x="195" y="0" type="curve" smooth="yes"/>
      <point x="324" y="0" type="line"/>
      <point x="331" y="53" type="line"/>
      <point x="204" y="63" type="line"/>
      <point x="243" y="28" type="line"/>
      <point x="238" y="54"/>
      <point x="231" y="113"/>
      <point x="231" y="165" type="curve" smooth="yes"/>
      <point x="231" y="540" type="line" smooth="yes"/>
      <point x="231" y="592"/>
      <point x="240" y="661"/>
      <point x="242" y="678" type="curve"/>
      <point x="178" y="705" type="line"/>
      <point x="159" y="705"/>
      <point x="100" y="708"/>
      <point x="63" y="710" type="curve"/>
      <point x="58" y="658" type="line"/>
      <point x="170" y="640" type="line"/>
      <point x="131" y="678" type="line"/>
      <point x="135" y="658"/>
      <point x="145" y="591"/>
      <point x="145" y="570" type="curve" smooth="yes"/>
      <point x="145" y="135" type="line" smooth="yes"/>
      <point x="145" y="114"/>
      <point x="134" y="45"/>
      <point x="131" y="28" type="curve"/>
      <point x="170" y="67" type="line"/>
      <point x="56" y="44" type="line"/>
    </contour>
    <contour>
      <point x="484" y="0" type="curve"/>
      <point x="639" y="0" type="line"/>
      <point x="646" y="53" type="line"/>
      <point x="573" y="60" type="line"/>
      <point x="556" y="83"/>
      <point x="532" y="116"/>
      <point x="523" y="131" type="curve" smooth="yes"/>
      <point x="516" y="140"/>
      <point x="454" y="243"/>
      <point x="401" y="349" type="curve"/>
      <point x="307" y="345" type="line"/>
      <point x="428" y="116" type="line" smooth="yes"/>
      <point x="436" y="100"/>
      <point x="466" y="39"/>
    </contour>
    <contour>
      <point x="323" y="303" type="curve" smooth="yes"/>
      <point x="455" y="303"/>
      <point x="564" y="377"/>
      <point x="564" y="508" type="curve" smooth="yes"/>
      <point x="564" y="642"/>
      <point x="481" y="710"/>
      <point x="344" y="710" type="curve" smooth="yes"/>
      <point x="289" y="710"/>
      <point x="233" y="705"/>
      <point x="178" y="705" type="curve"/>
      <point x="178" y="652" type="line"/>
      <point x="221" y="658"/>
      <point x="266" y="662"/>
      <point x="303" y="662" type="curve" smooth="yes"/>
      <point x="407" y="662"/>
      <point x="475" y="609"/>
      <point x="475" y="508" type="curve" smooth="yes"/>
      <point x="475" y="402"/>
      <point x="407" y="350"/>
      <point x="303" y="350" type="curve" smooth="yes"/>
      <point x="256" y="350"/>
      <point x="210" y="358"/>
      <point x="163" y="364" type="curve"/>
      <point x="163" y="307" type="line"/>
      <point x="216" y="304"/>
      <point x="270" y="303"/>
    </contour>
  </outline>
</glyph>
<glyph name="S" format="2">
  <advance width="594"/>
  <unicode hex="0053"/>
  <anchor x="280" y="0" name="bottom"/>
  <anchor x="310" y="720" name="top"/>
  <outline>
    <contour>
      <point x="289" y="-15" type="curve" smooth="yes"/>
      <point x="420" y="-15"/>
      <point x="527" y="48"/>
      <point x="527" y="180" type="curve" smooth="yes"/>
      <point x="527" y="407"/>
      <point x="179" y="396"/>
      <point x="179" y="555" type="curve" smooth="yes"/>
      <point x="179" y="630"/>
      <point x="232" y="668"/>
      <point x="294" y="668" type="curve" smooth="yes"/>
      <point x="348" y="668"/>
      <point x="381" y="664"/>
      <point x="438" y="634" type="curve"/>
      <point x="410" y="671" type="line"/>
      <point x="417" y="645"/>
      <point x="428" y="603"/>
      <point x="428" y="589" type="curve" smooth="yes"/>
      <point x="428" y="547" type="line"/>
      <point x="486" y="540" type="line"/>
      <point x="500" y="688" type="line"/>
      <point x="436" y="704"/>
      <point x="364" y="720"/>
      <point x="299" y="720" type="curve" smooth="yes"/>
      <point x="176" y="720"/>
      <point x="83" y="656"/>
      <point x="83" y="536" type="curve" smooth="yes"/>
      <point x="83" y="322"/>
      <point x="426" y="336"/>
      <point x="426" y="170" type="curve" smooth="yes"/>
      <point x="426" y="88"/>
      <point x="374" y="42"/>
      <point x="292" y="42" type="curve" smooth="yes"/>
      <point x="235" y="42"/>
      <point x="181" y="59"/>
      <point x="146" y="76" type="curve"/>
      <point x="164" y="53" type="line"/>
      <point x="159" y="69"/>
      <point x="150" y="123"/>
      <point x="150" y="137" type="curve" smooth="yes"/>
      <point x="150" y="183" type="line"/>
      <point x="85" y="189" type="line"/>
      <point x="70" y="38" type="line"/>
      <point x="107" y="15"/>
      <point x="191" y="-15"/>
    </contour>
  </outline>
</glyph>
<glyph name="T" format="2">
  <advance width="687.2"/>
  <unicode hex="0054"/>
  <anchor x="349" y="0" name="bottom"/>
  <anchor x="341" y="353" name="center"/>
  <anchor x="344" y="720" name="top"/>
  <outline>
    <contour>
      <point x="207" y="-5" type="line"/>
      <point x="255" y="-3"/>
      <point x="327" y="0"/>
      <point x="350" y="0" type="curve" smooth="yes"/>
      <point x="488" y="0" type="line"/>
      <point x="495" y="53" type="line"/>
      <point x="360" y="63" type="line"/>
      <point x="398" y="28" type="line"/>
      <point x="394" y="54"/>
      <point x="387" y="113"/>
      <point x="387" y="165" type="curve" smooth="yes"/>
      <point x="387" y="540" type="line" smooth="yes"/>
      <point x="387" y="592"/>
      <point x="395" y="661"/>
      <point x="397" y="678" type="curve"/>
      <point x="287" y="678" type="line"/>
      <point x="290" y="658"/>
      <point x="301" y="591"/>
      <point x="301" y="570" type="curve" smooth="yes"/>
      <point x="301" y="135" type="line" smooth="yes"/>
      <point x="301" y="114"/>
      <point x="290" y="45"/>
      <point x="287" y="28" type="curve"/>
      <point x="326" y="67" type="line"/>
      <point x="202" y="44" type="line"/>
    </contour>
    <contour>
      <point x="115" y="524" type="line"/>
      <point x="117" y="551"/>
      <point x="124" y="594"/>
      <point x="128" y="609" type="curve"/>
      <point x="162" y="677" type="line"/>
      <point x="120" y="645" type="line"/>
      <point x="141" y="646"/>
      <point x="193" y="651"/>
      <point x="227" y="651" type="curve" smooth="yes"/>
      <point x="460" y="651" type="line" smooth="yes"/>
      <point x="494" y="651"/>
      <point x="546" y="647"/>
      <point x="566" y="645" type="curve"/>
      <point x="525" y="677" type="line"/>
      <point x="559" y="609" type="line"/>
      <point x="564" y="594"/>
      <point x="571" y="551"/>
      <point x="573" y="524" type="curve"/>
      <point x="630" y="529" type="line"/>
      <point x="623" y="692" type="line"/>
      <point x="604" y="710" type="line"/>
      <point x="565" y="708"/>
      <point x="508" y="705"/>
      <point x="490" y="705" type="curve" smooth="yes"/>
      <point x="197" y="705" type="line" smooth="yes"/>
      <point x="179" y="705"/>
      <point x="121" y="708"/>
      <point x="83" y="710" type="curve"/>
      <point x="64" y="692" type="line"/>
      <point x="57" y="529" type="line"/>
    </contour>
  </outline>
</glyph>
<glyph name="U" format="2">
  <advance width="782.1"/>
  <unicode hex="0055"/>
  <anchor x="399" y="0" name="bottom"/>
  <anchor x="618" y="460" name="horn"/>
  <anchor x="489" y="0" name="ogonek"/>
  <anchor x="393" y="720" name="top"/>
  <outline>
    <contour>
      <point x="391" y="-15" type="curve" smooth="yes"/>
      <point x="561" y="-15"/>
      <point x="648" y="95"/>
      <point x="648" y="266" type="curve" smooth="yes"/>
      <point x="648" y="535" type="line" smooth="yes"/>
      <point x="648" y="587"/>
      <point x="656" y="659"/>
      <point x="658" y="682" type="curve"/>
      <point x="621" y="643" type="line"/>
      <point x="735" y="653" type="line"/>
      <point x="731" y="710" type="line"/>
      <point x="694" y="708"/>
      <point x="643" y="705"/>
      <point x="601" y="705" type="curve" smooth="yes"/>
      <point x="581" y="705"/>
      <point x="533" y="708"/>
      <point x="496" y="710" type="curve"/>
      <point x="491" y="658" type="line"/>
      <point x="608" y="640" type="line"/>
      <point x="564" y="682" type="line"/>
      <point x="567" y="669"/>
      <point x="580" y="586"/>
      <point x="580" y="565" type="curve" smooth="yes"/>
      <point x="580" y="266" type="line" smooth="yes"/>
      <point x="580" y="139"/>
      <point x="521" y="45"/>
      <point x="400" y="45" type="curve" smooth="yes"/>
      <point x="283" y="45"/>
      <point x="226" y="137"/>
      <point x="226" y="266" type="curve" smooth="yes"/>
      <point x="226" y="535" type="line" smooth="yes"/>
      <point x="226" y="587"/>
      <point x="234" y="660"/>
      <point x="236" y="682" type="curve"/>
      <point x="199" y="643" type="line"/>
      <point x="313" y="653" type="line"/>
      <point x="309" y="710" type="line"/>
      <point x="277" y="708"/>
      <point x="202" y="705"/>
      <point x="166" y="705" type="curve" smooth="yes"/>
      <point x="147" y="705"/>
      <point x="88" y="708"/>
      <point x="51" y="710" type="curve"/>
      <point x="46" y="658" type="line"/>
      <point x="161" y="641" type="line"/>
      <point x="120" y="682" type="line"/>
      <point x="125" y="655"/>
      <point x="136" y="586"/>
      <point x="136" y="565" type="curve" smooth="yes"/>
      <point x="136" y="266" type="line" smooth="yes"/>
      <point x="136" y="95"/>
      <point x="222" y="-15"/>
    </contour>
  </outline>
</glyph>
<glyph name="W" format="2">
  <advance width="1104.5"/>
  <unicode hex="0057"/>
  <anchor x="552" y="0" name="bottom"/>
  <anchor x="552" y="705" name="top"/>
  <outline>
    <contour>
      <point x="339" y="0" type="line"/>
      <point x="396" y="0" type="line"/>
      <point x="558" y="545" type="line"/>
      <point x="539" y="545" type="line"/>
      <point x="719" y="0" type="line"/>
      <point x="776" y="0" type="line"/>
      <point x="940" y="548" type="line"/>
      <point x="955" y="596"/>
      <point x="987" y="647"/>
      <point x="1003" y="675" type="curve"/>
      <point x="952" y="642" type="line"/>
      <point x="1057" y="653" type="line"/>
      <point x="1053" y="710" type="line"/>
      <point x="1016" y="708"/>
      <point x="960" y="705"/>
      <point x="908" y="705" type="curve" smooth="yes"/>
      <point x="889" y="705"/>
      <point x="857" y="707"/>
      <point x="820" y="710" type="curve"/>
      <point x="815" y="658" type="line"/>
      <point x="926" y="636" type="line"/>
      <point x="893" y="667" type="line"/>
      <point x="893" y="653"/>
      <point x="891" y="618"/>
      <point x="881" y="581" type="curve"/>
      <point x="746" y="111" type="line"/>
      <point x="766" y="111" type="line"/>
      <point x="584" y="686" type="line"/>
      <point x="535" y="686" type="line"/>
      <point x="366" y="111" type="line"/>
      <point x="385" y="111" type="line"/>
      <point x="257" y="535" type="line"/>
      <point x="239" y="598"/>
      <point x="230" y="635"/>
      <point x="227" y="665" type="curve"/>
      <point x="196" y="637" type="line"/>
      <point x="309" y="653" type="line"/>
      <point x="305" y="710" type="line"/>
      <point x="268" y="708"/>
      <point x="214" y="705"/>
      <point x="167" y="705" type="curve" smooth="yes"/>
      <point x="147" y="705"/>
      <point x="89" y="708"/>
      <point x="51" y="710" type="curve"/>
      <point x="46" y="658" type="line"/>
      <point x="149" y="635" type="line"/>
      <point x="98" y="669" type="line"/>
      <point x="106" y="658"/>
      <point x="136" y="613"/>
      <point x="155" y="557" type="curve"/>
    </contour>
  </outline>
</glyph>
<glyph name="Z" format="2">
  <advance width="629"/>
  <unicode hex="005A"/>
  <anchor x="316" y="0" name="bottom"/>
  <anchor x="316" y="353" name="center"/>
  <anchor x="316" y="720" name="top"/>
  <outline>
    <contour>
      <point x="530" y="-4" type="curve"/>
      <point x="549" y="14" type="line"/>
      <point x="564" y="173" type="line"/>
      <point x="510" y="178" type="line"/>
      <point x="508" y="163"/>
      <point x="499" y="109"/>
      <point x="495" y="100" type="curve" smooth="yes"/>
      <point x="489" y="89"/>
      <point x="464" y="48"/>
      <point x="446" y="27" type="curve"/>
      <point x="520" y="72" type="line"/>
      <point x="495" y="68"/>
      <point x="426" y="57"/>
      <point x="386" y="57" type="curve" smooth="yes"/>
      <point x="146" y="57" type="line"/>
      <point x="162" y="25" type="line"/>
      <point x="192" y="80"/>
      <point x="239" y="166"/>
      <point x="253" y="190" type="curve" smooth="yes"/>
      <point x="447" y="496" type="line" smooth="yes"/>
      <point x="482" y="551"/>
      <point x="518" y="598"/>
      <point x="555" y="651" type="curve"/>
      <point x="548" y="705" type="line"/>
      <point x="221" y="705" type="line"/>
      <point x="185" y="707"/>
      <point x="145" y="711"/>
      <point x="107" y="715" type="curve"/>
      <point x="88" y="697" type="line"/>
      <point x="81" y="529" type="line"/>
      <point x="138" y="524" type="line"/>
      <point x="140" y="551"/>
      <point x="147" y="602"/>
      <point x="151" y="609" type="curve" smooth="yes"/>
      <point x="182" y="674" type="line"/>
      <point x="143" y="642" type="line"/>
      <point x="161" y="643"/>
      <point x="217" y="648"/>
      <point x="253" y="648" type="curve" smooth="yes"/>
      <point x="473" y="648" type="line"/>
      <point x="456" y="679" type="line"/>
      <point x="427" y="625"/>
      <point x="400" y="571"/>
      <point x="367" y="520" type="curve" smooth="yes"/>
      <point x="176" y="218" type="line" smooth="yes"/>
      <point x="154" y="182"/>
      <point x="99" y="104"/>
      <point x="64" y="55" type="curve"/>
      <point x="71" y="0" type="line"/>
      <point x="416" y="0" type="line" smooth="yes"/>
      <point x="455" y="0"/>
      <point x="492" y="-2"/>
    </contour>
  </outline>
</glyph>
<glyph name="bracketleft" format="2">
  <advance width="421.1"/>
  <unicode hex="005B"/>
  <outline>
    <contour>
      <point x="331" y="-107" type="line"/>
      <point x="334" y="-66" type="line"/>
      <point x="197" y="-49" type="line"/>
      <point x="233" y="-85" type="line"/>
      <point x="224" y="-36"/>
      <point x="213" y="34"/>
      <point x="213" y="66" type="curve" smooth="yes"/>
      <point x="213" y="656" type="line" smooth="yes"/>
      <point x="213" y="686"/>
      <point x="223" y="757"/>
      <point x="233" y="808" type="curve"/>
      <point x="197" y="771" type="line"/>
      <point x="334" y="789" type="line"/>
      <point x="331" y="829" type="line"/>
      <point x="156" y="825" type="line"/>
      <point x="137" y="807" type="line"/>
      <point x="142" y="740"/>
      <point x="148" y="631"/>
      <point x="148" y="604" type="curve" smooth="yes"/>
      <point x="148" y="118" type="line" smooth="yes"/>
      <point x="148" y="90"/>
      <point x="142" y="-18"/>
      <point x="137" y="-85" type="curve"/>
      <point x="156" y="-103" type="line"/>
    </contour>
  </outline>
</glyph>
<glyph name="asciicircum" format="2">
  <advance width="728.8"/>
  <unicode hex="005E"/>
  <outline>
    <contour>
      <point x="154" y="111" type="line"/>
      <point x="379" y="585" type="line"/>
      <point x="351" y="585" type="line"/>
      <point x="576" y="111" type="line"/>
      <point x="643" y="134" type="line"/>
      <point x="365" y="705" type="line"/>
      <point x="86" y="134" type="line"/>
    </contour>
  </outline>
</glyph>
<glyph name="e" format="2">
  <advance width="497.6"/>
  <unicode hex="0065"/>
  <anchor x="273" y="0" name="bottom"/>
  <anchor x="410" y="23" name="ogonek"/>
  <anchor x="266" y="494" name="top"/>
  <outline>
    <contour>
      <point x="275" y="-10" type="curve" smooth="yes"/>
      <point x="394" y="-10"/>
      <point x="457" y="56"/>
      <point x="449" y="49" type="curve"/>
      <point x="423" y="93" type="line"/>
      <point x="394" y="75"/>
      <point x="332" y="51"/>
      <point x="269" y="51" type="curve" smooth="yes"/>
      <point x="174" y="51"/>
      <point x="132" y="161"/>
      <point x="132" y="249" type="curve" smooth="yes"/>
      <point x="132" y="341"/>
      <point x="159" y="454"/>
      <point x="259" y="454" type="curve" smooth="yes"/>
      <point x="334" y="454"/>
      <point x="369" y="395"/>
      <point x="369" y="325" type="curve" smooth="yes"/>
      <point x="369" y="305"/>
      <point x="368" y="289"/>
      <point x="368" y="272" type="curve"/>
      <point x="400" y="307" type="line"/>
      <point x="111" y="285" type="line"/>
      <point x="111" y="240" type="line"/>
      <point x="435" y="240" type="line"/>
      <point x="451" y="272" type="line"/>
      <point x="450" y="408"/>
      <point x="402" y="502"/>
      <point x="262" y="502" type="curve" smooth="yes"/>
      <point x="115" y="502"/>
      <point x="47" y="392"/>
      <point x="47" y="245" type="curve" smooth="yes"/>
      <point x="47" y="98"/>
      <point x="124" y="-10"/>
    </contour>
  </outline>
</glyph>
<glyph name="f" format="2">
  <advance width="365"/>
  <unicode hex="0066"/>
  <anchor x="182" y="0" name="bottom"/>
  <anchor x="182" y="756" name="top"/>
  <outline>
    <contour>
      <point x="38" y="-5" type="line"/>
      <point x="75" y="-3"/>
      <point x="127" y="0"/>
      <point x="148" y="0" type="curve"/>
      <point x="296" y="0" type="line"/>
      <point x="302" y="52" type="line"/>
      <point x="168" y="62" type="line"/>
      <point x="205" y="25" type="line"/>
      <point x="201" y="49"/>
      <point x="196" y="112"/>
      <point x="196" y="164" type="curve" smooth="yes"/>
      <point x="196" y="460" type="line"/>
      <point x="183" y="442" type="line"/>
      <point x="334" y="442" type="line"/>
      <point x="339" y="494" type="line"/>
      <point x="183" y="494" type="line"/>
      <point x="196" y="485" type="line"/>
      <point x="198" y="614"/>
      <point x="183" y="720"/>
      <point x="286" y="720" type="curve" smooth="yes"/>
      <point x="297" y="720"/>
      <point x="318" y="720"/>
      <point x="334" y="720" type="curve"/>
      <point x="286" y="747" type="line"/>
      <point x="296" y="709"/>
      <point x="305" y="674"/>
      <point x="305" y="667" type="curve"/>
      <point x="305" y="632" type="line"/>
      <point x="344" y="629" type="line"/>
      <point x="355" y="763" type="line"/>
      <point x="344" y="766"/>
      <point x="319" y="770"/>
      <point x="296" y="770" type="curve" smooth="yes"/>
      <point x="181" y="770"/>
      <point x="121" y="703"/>
      <point x="121" y="599" type="curve" smooth="yes"/>
      <point x="121" y="478" type="line"/>
      <point x="133" y="496" type="line"/>
      <point x="39" y="484" type="line"/>
      <point x="42" y="442" type="line"/>
      <point x="134" y="442" type="line"/>
      <point x="121" y="454" type="line"/>
      <point x="121" y="134" type="line" smooth="yes"/>
      <point x="121" y="109"/>
      <point x="107" y="44"/>
      <point x="105" y="29" type="curve"/>
      <point x="144" y="66" type="line"/>
      <point x="33" y="43" type="line"/>
    </contour>
  </outline>
</glyph>
<glyph name="g" format="2">
  <advance width="515.1"/>
  <unicode hex="0067"/>
  <anchor x="247" y="494" name="top"/>
  <outline>
    <contour>
      <point x="223" y="-235" type="curve" smooth="yes"/>
      <point x="362" y="-235"/>
      <point x="476" y="-149"/>
      <point x="476" y="-45" type="curve" smooth="yes"/>
      <point x="476" y="3"/>
      <point x="460" y="33"/>
      <point x="432" y="42" type="curve" smooth="yes"/>
      <point x="392" y="54"/>
      <point x="301" y="64"/>
      <point x="240" y="72" type="curve" smooth="yes"/>
      <point x="163" y="81"/>
      <point x="145" y="87"/>
      <point x="145" y="107" type="curve" smooth="yes"/>
      <point x="145" y="113"/>
      <point x="156" y="133"/>
      <point x="185" y="163" type="curve"/>
      <point x="152" y="174" type="line"/>
      <point x="94" y="126"/>
      <point x="67" y="99"/>
      <point x="67" y="84" type="curve" smooth="yes"/>
      <point x="67" y="46"/>
      <point x="85" y="23"/>
      <point x="130" y="9" type="curve" smooth="yes"/>
      <point x="170" y="-3"/>
      <point x="189" y="-6"/>
      <point x="225" y="-11" type="curve" smooth="yes"/>
      <point x="355" y="-27" type="line" smooth="yes"/>
      <point x="386" y="-31"/>
      <point x="395" y="-42"/>
      <point x="395" y="-73" type="curve" smooth="yes"/>
      <point x="395" y="-137"/>
      <point x="334" y="-180"/>
      <point x="250" y="-180" type="curve" smooth="yes"/>
      <point x="153" y="-180"/>
      <point x="109" y="-149"/>
      <point x="109" y="-79" type="curve" smooth="yes"/>
      <point x="109" y="-58"/>
      <point x="119" y="-42"/>
      <point x="167" y="17" type="curve"/>
      <point x="130" y="21" type="line"/>
      <point x="71" y="-25"/>
      <point x="28" y="-71"/>
      <point x="28" y="-90" type="curve" smooth="yes"/>
      <point x="28" y="-185"/>
      <point x="95" y="-235"/>
    </contour>
    <contour>
      <point x="241" y="140" type="curve" smooth="yes"/>
      <point x="356" y="140"/>
      <point x="432" y="212"/>
      <point x="432" y="321" type="curve" smooth="yes"/>
      <point x="432" y="429"/>
      <point x="357" y="502"/>
      <point x="241" y="502" type="curve" smooth="yes"/>
      <point x="126" y="502"/>
      <point x="50" y="431"/>
      <point x="50" y="322" type="curve" smooth="yes"/>
      <point x="50" y="214"/>
      <point x="125" y="140"/>
    </contour>
    <contour>
      <point x="241" y="190" type="curve" smooth="yes"/>
      <point x="167" y="190"/>
      <point x="130" y="234"/>
      <point x="130" y="322" type="curve" smooth="yes"/>
      <point x="130" y="408"/>
      <point x="168" y="453"/>
      <point x="241" y="453" type="curve" smooth="yes"/>
      <point x="315" y="453"/>
      <point x="351" y="409"/>
      <point x="351" y="321" type="curve" smooth="yes"/>
      <point x="351" y="233"/>
      <point x="315" y="190"/>
    </contour>
    <contour>
      <point x="484" y="442" type="line"/>
      <point x="476" y="506" type="line"/>
      <point x="317" y="474" type="line"/>
      <point x="379" y="444" type="line"/>
    </contour>
  </outline>
</glyph>
<glyph name="k" format="2">
  <advance width="603"/>
  <unicode hex="006B"/>
  <anchor x="301" y="0" name="bottom"/>
  <anchor x="301" y="756" name="top"/>
  <outline>
    <contour>
      <point x="26" y="-5" type="line"/>
      <point x="63" y="-3"/>
      <point x="115" y="0"/>
      <point x="136" y="0" type="curve"/>
      <point x="263" y="0" type="line"/>
      <point x="270" y="52" type="line"/>
      <point x="157" y="62" type="line"/>
      <point x="194" y="25" type="line"/>
      <point x="190" y="49"/>
      <point x="185" y="112"/>
      <point x="185" y="164" type="curve" smooth="yes"/>
      <point x="185" y="588" type="line" smooth="yes"/>
      <point x="185" y="635"/>
      <point x="188" y="708"/>
      <point x="191" y="738" type="curve"/>
      <point x="172" y="756" type="line"/>
      <point x="117" y="756" type="line"/>
      <point x="28" y="759" type="line"/>
      <point x="23" y="709" type="line"/>
      <point x="133" y="685" type="line"/>
      <point x="94" y="731" type="line"/>
      <point x="99" y="701"/>
      <point x="109" y="643"/>
      <point x="109" y="618" type="curve" smooth="yes"/>
      <point x="109" y="134" type="line" smooth="yes"/>
      <point x="109" y="109"/>
      <point x="96" y="44"/>
      <point x="93" y="29" type="curve"/>
      <point x="133" y="66" type="line"/>
      <point x="21" y="43" type="line"/>
    </contour>
    <contour>
      <point x="339" y="-6" type="line"/>
      <point x="370" y="-3"/>
      <point x="420" y="0"/>
      <point x="439" y="0" type="curve" smooth="yes"/>
      <point x="570" y="0" type="line"/>
      <point x="576" y="52" type="line"/>
      <point x="480" y="61" type="line"/>
      <point x="534" y="44" type="line"/>
      <point x="498" y="68"/>
      <point x="436" y="111"/>
      <point x="422" y="126" type="curve" smooth="yes"/>
      <point x="255" y="303" type="line"/>
      <point x="255" y="254" type="line"/>
      <point x="361" y="366" type="line" smooth="yes"/>
      <point x="384" y="389"/>
      <point x="449" y="428"/>
      <point x="478" y="442" type="curve"/>
      <point x="429" y="430" type="line"/>
      <point x="539" y="442" type="line"/>
      <point x="536" y="494" type="line"/>
      <point x="407" y="494" type="line"/>
      <point x="388" y="494"/>
      <point x="354" y="494"/>
      <point x="328" y="494" type="curve"/>
      <point x="323" y="442" type="line"/>
      <point x="398" y="432" type="line"/>
      <point x="388" y="462" type="line"/>
      <point x="196" y="265" type="line"/>
      <point x="343" y="116" type="line"/>
      <point x="397" y="58" type="line"/>
      <point x="334" y="47" type="line"/>
    </contour>
  </outline>
</glyph>
<glyph name="p" format="2">
  <advance width="567.1"/>
  <unicode hex="0070"/>
  <anchor x="284" y="0" name="bottom"/>
  <anchor x="284" y="494" name="top"/>
  <outline>
    <contour>
      <point x="36" y="-233" type="line"/>
      <point x="72" y="-231"/>
      <point x="114" y="-228"/>
      <point x="135" y="-228" type="curve"/>
      <point x="284" y="-228" type="line"/>
      <point x="290" y="-175" type="line"/>
      <point x="156" y="-165" type="line"/>
      <point x="193" y="-203" type="line"/>
      <point x="189" y="-179"/>
      <point x="183" y="-116"/>
      <point x="183" y="-64" type="curve" smooth="yes"/>
      <point x="183" y="286" type="line" smooth="yes"/>
      <point x="183" y="382"/>
      <point x="234" y="447"/>
      <point x="311" y="447" type="curve" smooth="yes"/>
      <point x="394" y="447"/>
      <point x="438" y="381"/>
      <point x="438" y="255" type="curve" smooth="yes"/>
      <point x="438" y="121"/>
      <point x="384" y="47"/>
      <point x="288" y="47" type="curve" smooth="yes"/>
      <point x="250" y="47"/>
      <point x="209" y="63"/>
      <point x="169" y="96" type="curve"/>
      <point x="168" y="25" type="line"/>
      <point x="209" y="3"/>
      <point x="253" y="-10"/>
      <point x="293" y="-10" type="curve" smooth="yes"/>
      <point x="423" y="-10"/>
      <point x="521" y="103"/>
      <point x="521" y="256" type="curve" smooth="yes"/>
      <point x="521" y="412"/>
      <point x="445" y="502"/>
      <point x="314" y="502" type="curve" smooth="yes"/>
      <point x="256" y="502"/>
      <point x="177" y="448"/>
      <point x="172" y="395" type="curve"/>
      <point x="178" y="379" type="line"/>
      <point x="170" y="476" type="line"/>
      <point x="151" y="494" type="line"/>
      <point x="27" y="494" type="line"/>
      <point x="22" y="442" type="line"/>
      <point x="132" y="423" type="line"/>
      <point x="91" y="469" type="line"/>
      <point x="95" y="448"/>
      <point x="108" y="381"/>
      <point x="108" y="356" type="curve" smooth="yes"/>
      <point x="108" y="-94" type="line" smooth="yes"/>
      <point x="108" y="-119"/>
      <point x="95" y="-184"/>
      <point x="92" y="-199" type="curve"/>
      <point x="132" y="-161" type="line"/>
      <point x="31" y="-184" type="line"/>
    </contour>
  </outline>
</glyph>
<glyph name="q" format="2">
  <advance width="539.8"/>
  <unicode hex="0071"/>
  <anchor x="271" y="0" name="bottom"/>
  <anchor x="271" y="494" name="top"/>
  <outline>
    <contour>
      <point x="250" y="-10" type="curve" smooth="yes"/>
      <point x="300" y="-10"/>
      <point x="375" y="36"/>
      <point x="391" y="75" type="curve"/>
      <point x="384" y="203" type="line"/>
      <point x="384" y="106"/>
      <point x="334" y="48"/>
      <point x="252" y="48" type="curve" smooth="yes"/>
      <point x="178" y="48"/>
      <point x="131" y="125"/>
      <point x="131" y="245" type="curve" smooth="yes"/>
      <point x="131" y="365"/>
      <point x="184" y="446"/>
      <point x="263" y="446" type="curve" smooth="yes"/>
      <point x="329" y="446"/>
      <point x="386" y="437"/>
      <point x="451" y="415" type="curve"/>
      <point x="467" y="467" type="line"/>
      <point x="355" y="496"/>
      <point x="319" y="503"/>
      <point x="253" y="503" type="curve" smooth="yes"/>
      <point x="132" y="503"/>
      <point x="48" y="398"/>
      <point x="48" y="248" type="curve" smooth="yes"/>
      <point x="48" y="88"/>
      <point x="126" y="-10"/>
    </contour>
    <contour>
      <point x="280" y="-233" type="line"/>
      <point x="317" y="-231"/>
      <point x="388" y="-228"/>
      <point x="411" y="-228" type="curve"/>
      <point x="528" y="-228" type="line"/>
      <point x="534" y="-175" type="line"/>
      <point x="430" y="-165" type="line"/>
      <point x="467" y="-203" type="line"/>
      <point x="464" y="-182"/>
      <point x="459" y="-121"/>
      <point x="459" y="-65" type="curve" smooth="yes"/>
      <point x="459" y="311" type="line" smooth="yes"/>
      <point x="459" y="367"/>
      <point x="464" y="440"/>
      <point x="467" y="467" type="curve"/>
      <point x="376" y="437" type="line"/>
      <point x="381" y="407"/>
      <point x="384" y="366"/>
      <point x="384" y="339" type="curve" smooth="yes"/>
      <point x="384" y="-95" type="line" smooth="yes"/>
      <point x="384" y="-120"/>
      <point x="370" y="-184"/>
      <point x="368" y="-199" type="curve"/>
      <point x="406" y="-161" type="line"/>
      <point x="275" y="-184" type="line"/>
    </contour>
  </outline>
</glyph>
<glyph name="s" format="2">
  <advance width="429.9"/>
  <unicode hex="0073"/>
  <anchor x="212" y="0" name="bottom"/>
  <anchor x="214" y="494" name="top"/>
  <outline>
    <contour>
      <point x="215" y="-10" type="curve" smooth="yes"/>
      <point x="317" y="-10"/>
      <point x="382" y="30"/>
      <point x="382" y="135" type="curve" smooth="yes"/>
      <point x="382" y="220"/>
      <point x="307" y="256"/>
      <point x="239" y="289" type="curve" smooth="yes"/>
      <point x="183" y="314"/>
      <point x="133" y="339"/>
      <point x="133" y="386" type="curve" smooth="yes"/>
      <point x="133" y="429"/>
      <point x="165" y="453"/>
      <point x="212" y="453" type="curve" smooth="yes"/>
      <point x="249" y="453"/>
      <point x="268" y="448"/>
      <point x="301" y="429" type="curve"/>
      <point x="267" y="466" type="line"/>
      <point x="275" y="446"/>
      <point x="295" y="394"/>
      <point x="295" y="383" type="curve" smooth="yes"/>
      <point x="295" y="348" type="line"/>
      <point x="352" y="345" type="line"/>
      <point x="353" y="486" type="line"/>
      <point x="306" y="496"/>
      <point x="255" y="503"/>
      <point x="211" y="503" type="curve" smooth="yes"/>
      <point x="124" y="503"/>
      <point x="57" y="454"/>
      <point x="57" y="372" type="curve" smooth="yes"/>
      <point x="57" y="284"/>
      <point x="131" y="249"/>
      <point x="198" y="217" type="curve" smooth="yes"/>
      <point x="254" y="190"/>
      <point x="304" y="166"/>
      <point x="304" y="117" type="curve" smooth="yes"/>
      <point x="304" y="62"/>
      <point x="269" y="38"/>
      <point x="216" y="38" type="curve" smooth="yes"/>
      <point x="176" y="38"/>
      <point x="146" y="47"/>
      <point x="122" y="82" type="curve"/>
      <point x="151" y="39" type="line"/>
      <point x="135" y="63"/>
      <point x="117" y="109"/>
      <point x="117" y="124" type="curve"/>
      <point x="117" y="164" type="line"/>
      <point x="60" y="160" type="line"/>
      <point x="60" y="31" type="line"/>
      <point x="83" y="17"/>
      <point x="133" y="-10"/>
    </contour>
  </outline>
</glyph>
<glyph name="t" format="2">
  <advance width="385.8"/>
  <unicode hex="0074"/>
  <anchor x="210" y="0" name="bottom"/>
  <anchor x="148" y="270" name="center"/>
  <anchor x="161" y="539" name="top"/>
  <anchor x="280" y="543" name="topright"/>
  <outline>
    <contour>
      <point x="221" y="-15" type="curve" smooth="yes"/>
      <point x="263" y="-15"/>
      <point x="310" y="4"/>
      <point x="358" y="43" type="curve"/>
      <point x="331" y="86" type="line"/>
      <point x="305" y="63"/>
      <point x="272" y="48"/>
      <point x="243" y="48" type="curve" smooth="yes"/>
      <point x="197" y="48"/>
      <point x="185" y="74"/>
      <point x="185" y="120" type="curve" smooth="yes"/>
      <point x="185" y="596" type="line"/>
      <point x="149" y="600" type="line"/>
      <point x="141" y="582"/>
      <point x="102" y="500"/>
      <point x="90" y="485" type="curve"/>
      <point x="124" y="518" type="line"/>
      <point x="100" y="509"/>
      <point x="47" y="491"/>
      <point x="22" y="482" type="curve"/>
      <point x="25" y="442" type="line"/>
      <point x="141" y="442" type="line"/>
      <point x="109" y="475" type="line"/>
      <point x="109" y="124" type="line" smooth="yes"/>
      <point x="109" y="35"/>
      <point x="132" y="-15"/>
    </contour>
    <contour>
      <point x="168" y="442" type="line"/>
      <point x="328" y="442" type="line"/>
      <point x="333" y="494" type="line"/>
      <point x="168" y="494" type="line"/>
    </contour>
  </outline>
</glyph>
<glyph name="u" format="2">
  <advance width="581.2"/>
  <unicode hex="0075"/>
  <anchor x="291" y="0" name="bottom"/>
  <anchor x="519" y="10" name="ogonek"/>
  <anchor x="273" y="494" name="top"/>
  <anchor x="412" y="494" name="topright"/>
  <outline>
    <contour>
      <point x="260" y="-11" type="curve" smooth="yes"/>
      <point x="367" y="-11"/>
      <point x="407" y="62"/>
      <point x="420" y="87" type="curve"/>
      <point x="410" y="111" type="line"/>
      <point x="429" y="0" type="line"/>
      <point x="554" y="0" type="line"/>
      <point x="560" y="52" type="line"/>
      <point x="456" y="63" type="line"/>
      <point x="492" y="26" type="line"/>
      <point x="488" y="72"/>
      <point x="480" y="119"/>
      <point x="480" y="164" type="curve" smooth="yes"/>
      <point x="480" y="326" type="line" smooth="yes"/>
      <point x="480" y="363"/>
      <point x="483" y="433"/>
      <point x="486" y="476" type="curve"/>
      <point x="467" y="494" type="line"/>
      <point x="328" y="494" type="line"/>
      <point x="324" y="442" type="line"/>
      <point x="428" y="423" type="line"/>
      <point x="391" y="459" type="line"/>
      <point x="397" y="425"/>
      <point x="404" y="373"/>
      <point x="404" y="356" type="curve" smooth="yes"/>
      <point x="404" y="208" type="line" smooth="yes"/>
      <point x="404" y="129"/>
      <point x="361" y="50"/>
      <point x="276" y="50" type="curve" smooth="yes"/>
      <point x="199" y="50"/>
      <point x="174" y="106"/>
      <point x="174" y="183" type="curve" smooth="yes"/>
      <point x="174" y="326" type="line" smooth="yes"/>
      <point x="174" y="363"/>
      <point x="178" y="433"/>
      <point x="181" y="476" type="curve"/>
      <point x="162" y="494" type="line"/>
      <point x="26" y="494" type="line"/>
      <point x="22" y="442" type="line"/>
      <point x="121" y="422" type="line"/>
      <point x="85" y="459" type="line"/>
      <point x="91" y="425"/>
      <point x="99" y="373"/>
      <point x="99" y="356" type="curve" smooth="yes"/>
      <point x="99" y="221" type="line" smooth="yes"/>
      <point x="99" y="84"/>
      <point x="119" y="-11"/>
    </contour>
  </outline>
</glyph>
<glyph name="x" format="2">
  <advance width="587.7"/>
  <unicode hex="0078"/>
  <anchor x="294" y="0" name="bottom"/>
  <anchor x="294" y="494" name="top"/>
  <outline>
    <contour>
      <point x="326" y="-5" type="line"/>
      <point x="357" y="-3"/>
      <point x="400" y="0"/>
      <point x="421" y="0" type="curve" smooth="yes"/>
      <point x="555" y="0" type="line"/>
      <point x="561" y="53" type="line"/>
      <point x="465" y="59" type="line"/>
      <point x="526" y="31" type="line"/>
      <point x="487" y="66"/>
      <point x="426" y="128"/>
      <point x="410" y="147" type="curve" smooth="yes"/>
      <point x="316" y="269" type="line"/>
      <point x="301" y="292" type="line"/>
      <point x="227" y="387" type="line" smooth="yes"/>
      <point x="218" y="398"/>
      <point x="200" y="428"/>
      <point x="179" y="464" type="curve"/>
      <point x="163" y="431" type="line"/>
      <point x="258" y="442" type="line"/>
      <point x="255" y="494" type="line"/>
      <point x="49" y="494" type="line"/>
      <point x="44" y="441" type="line"/>
      <point x="130" y="430" type="line"/>
      <point x="72" y="463" type="line"/>
      <point x="99" y="433"/>
      <point x="146" y="384"/>
      <point x="167" y="356" type="curve" smooth="yes"/>
      <point x="259" y="238" type="line"/>
      <point x="268" y="224" type="line"/>
      <point x="351" y="117" type="line" smooth="yes"/>
      <point x="367" y="96"/>
      <point x="385" y="58"/>
      <point x="400" y="29" type="curve"/>
      <point x="418" y="68" type="line"/>
      <point x="321" y="43" type="line"/>
    </contour>
    <contour>
      <point x="39" y="-5" type="line"/>
      <point x="70" y="-3"/>
      <point x="113" y="0"/>
      <point x="134" y="0" type="curve" smooth="yes"/>
      <point x="247" y="0" type="line"/>
      <point x="253" y="53" type="line"/>
      <point x="153" y="64" type="line"/>
      <point x="171" y="30" type="line"/>
      <point x="186" y="60"/>
      <point x="205" y="97"/>
      <point x="220" y="117" type="curve" smooth="yes"/>
      <point x="303" y="235" type="line"/>
      <point x="314" y="237" type="line"/>
      <point x="391" y="357" type="line" smooth="yes"/>
      <point x="407" y="382"/>
      <point x="446" y="423"/>
      <point x="481" y="463" type="curve"/>
      <point x="423" y="429" type="line"/>
      <point x="520" y="442" type="line"/>
      <point x="517" y="494" type="line"/>
      <point x="317" y="494" type="line"/>
      <point x="312" y="447" type="line"/>
      <point x="413" y="427" type="line"/>
      <point x="394" y="464" type="line"/>
      <point x="384" y="441"/>
      <point x="366" y="405"/>
      <point x="354" y="388" type="curve" smooth="yes"/>
      <point x="284" y="279" type="line"/>
      <point x="270" y="277" type="line"/>
      <point x="178" y="146" type="line" smooth="yes"/>
      <point x="168" y="130"/>
      <point x="114" y="75"/>
      <point x="73" y="33" type="curve"/>
      <point x="131" y="68" type="line"/>
      <point x="34" y="43" type="line"/>
    </contour>
  </outline>
</glyph>
<glyph name="bar" format="2">
  <advance width="352.4"/>
  <unicode hex="007C"/>
  <outline>
    <contour>
      <point x="207" y="-122" type="line"/>
      <point x="207" y="752" type="line"/>
      <point x="146" y="760" type="line"/>
      <point x="146" y="-113" type="line"/>
    </contour>
  </outline>
</glyph>
<glyph name="braceright" format="2">
  <advance width="409.7"/>
  <unicode hex="007D"/>
  <outline>
    <contour>
      <point x="93" y="830" type="line"/>
      <point x="90" y="789" type="line"/>
      <point x="233" y="772" type="line"/>
      <point x="189" y="792" type="line"/>
      <point x="188" y="747"/>
      <point x="186" y="683"/>
      <point x="183" y="658" type="curve" smooth="yes"/>
      <point x="172" y="562"/>
      <point x="159" y="487"/>
      <point x="145" y="398" type="curve"/>
      <point x="273" y="359" type="line"/>
      <point x="260" y="380" type="line"/>
      <point x="260" y="346" type="line"/>
      <point x="280" y="367" type="line"/>
      <point x="145" y="326" type="line"/>
      <point x="158" y="238"/>
      <point x="172" y="158"/>
      <point x="180" y="68" type="curve" smooth="yes"/>
      <point x="182" y="45"/>
      <point x="184" y="-35"/>
      <point x="186" y="-88" type="curve"/>
      <point x="233" y="-49" type="line"/>
      <point x="90" y="-67" type="line"/>
      <point x="93" y="-106" type="line"/>
      <point x="266" y="-102" type="line"/>
      <point x="285" y="-83" type="line"/>
      <point x="253" y="54"/>
      <point x="230" y="190"/>
      <point x="217" y="328" type="curve"/>
      <point x="201" y="285" type="line"/>
      <point x="313" y="333" type="line"/>
      <point x="317" y="390" type="line"/>
      <point x="199" y="438" type="line"/>
      <point x="217" y="395" type="line"/>
      <point x="229" y="533"/>
      <point x="252" y="671"/>
      <point x="285" y="807" type="curve"/>
      <point x="266" y="826" type="line"/>
    </contour>
  </outline>
</glyph>
<glyph name="exclamdown" format="2">
  <advance width="315.1"/>
  <unicode hex="00A1"/>
  <outline>
    <contour>
      <point x="129" y="277" type="line"/>
      <point x="123" y="272" type="line"/>
      <point x="126" y="186" type="line" smooth="yes"/>
      <point x="128" y="125"/>
      <point x="115" y="-131"/>
      <point x="107" y="-262" type="curve"/>
      <point x="125" y="-279" type="line"/>
      <point x="202" y="-272" type="line"/>
      <point x="194" y="208" type="line"/>
      <point x="195" y="274" type="line"/>
    </contour>
    <contour>
      <point x="153" y="503" type="curve" smooth="yes"/>
      <point x="116" y="503"/>
      <point x="96" y="476"/>
      <point x="96" y="439" type="curve" smooth="yes"/>
      <point x="96" y="402"/>
      <point x="116" y="376"/>
      <point x="153" y="376" type="curve" smooth="yes"/>
      <point x="190" y="376"/>
      <point x="211" y="402"/>
      <point x="211" y="439" type="curve" smooth="yes"/>
      <point x="211" y="479"/>
      <point x="189" y="503"/>
    </contour>
  </outline>
</glyph>
<glyph name="yen" format="2">
  <advance width="748.3"/>
  <unicode hex="00A5"/>
  <outline>
    <contour>
      <point x="345" y="218" type="line"/>
      <point x="401" y="218" type="line"/>
      <point x="553" y="507" type="line"/>
      <point x="585" y="564"/>
      <point x="619" y="604"/>
      <point x="632" y="619" type="curve"/>
      <point x="580" y="594" type="line"/>
      <point x="680" y="604" type="line"/>
      <point x="677" y="659" type="line"/>
      <point x="637" y="657"/>
      <point x="573" y="655"/>
      <point x="539" y="655" type="curve" smooth="yes"/>
      <point x="525" y="655"/>
      <point x="481" y="657"/>
      <point x="452" y="659" type="curve"/>
      <point x="447" y="608" type="line"/>
      <point x="554" y="588" type="line"/>
      <point x="536" y="627" type="line"/>
      <point x="532" y="613"/>
      <point x="507" y="562"/>
      <point x="494" y="537" type="curve"/>
      <point x="369" y="289" type="line"/>
      <point x="400" y="290" type="line"/>
      <point x="287" y="497" type="line"/>
      <point x="248" y="561"/>
      <point x="238" y="605"/>
      <point x="239" y="619" type="curve"/>
      <point x="211" y="590" type="line"/>
      <point x="321" y="604" type="line"/>
      <point x="317" y="659" type="line"/>
      <point x="284" y="657"/>
      <point x="225" y="655"/>
      <point x="183" y="655" type="curve" smooth="yes"/>
      <point x="170" y="655"/>
      <point x="113" y="657"/>
      <point x="74" y="659" type="curve"/>
      <point x="69" y="608" type="line"/>
      <point x="165" y="587" type="line"/>
      <point x="113" y="619" type="line"/>
      <point x="124" y="606"/>
      <point x="163" y="564"/>
      <point x="187" y="518" type="curve" smooth="yes"/>
    </contour>
    <contour>
      <point x="254" y="-5" type="line"/>
      <point x="299" y="-3"/>
      <point x="365" y="0"/>
      <point x="383" y="0" type="curve"/>
      <point x="506" y="0" type="line"/>
      <point x="514" y="50" type="line"/>
      <point x="392" y="60" type="line"/>
      <point x="430" y="26" type="line"/>
      <point x="425" y="53"/>
      <point x="420" y="110"/>
      <point x="420" y="157" type="curve" smooth="yes"/>
      <point x="420" y="297" type="line"/>
      <point x="334" y="297" type="line"/>
      <point x="334" y="129" type="line" smooth="yes"/>
      <point x="334" y="107"/>
      <point x="323" y="41"/>
      <point x="321" y="26" type="curve"/>
      <point x="359" y="64" type="line"/>
      <point x="249" y="42" type="line"/>
    </contour>
    <contour>
      <point x="137" y="149" type="line"/>
      <point x="613" y="168" type="line"/>
      <point x="611" y="207" type="line"/>
      <point x="135" y="189" type="line"/>
    </contour>
    <contour>
      <point x="132" y="255" type="line"/>
      <point x="608" y="274" type="line"/>
      <point x="606" y="313" type="line"/>
      <point x="130" y="295" type="line"/>
    </contour>
  </outline>
</glyph>
<glyph name="section" format="2">
  <advance width="599.7"/>
  <unicode hex="00A7"/>
  <outline>
    <contour>
      <point x="302" y="-116" type="curve" smooth="yes"/>
      <point x="410" y="-116"/>
      <point x="497" y="-63"/>
      <point x="497" y="45" type="curve" smooth="yes"/>
      <point x="497" y="149"/>
      <point x="405" y="192"/>
      <point x="322" y="230" type="curve" smooth="yes"/>
      <point x="238" y="270"/>
      <point x="156" y="308"/>
      <point x="209" y="395" type="curve"/>
      <point x="180" y="412" type="line"/>
      <point x="148" y="391"/>
      <point x="118" y="349"/>
      <point x="118" y="316" type="curve" smooth="yes"/>
      <point x="118" y="237"/>
      <point x="191" y="202"/>
      <point x="264" y="168" type="curve" smooth="yes"/>
      <point x="333" y="135"/>
      <point x="400" y="103"/>
      <point x="400" y="36" type="curve" smooth="yes"/>
      <point x="400" y="-25"/>
      <point x="362" y="-57"/>
      <point x="305" y="-57" type="curve" smooth="yes"/>
      <point x="257" y="-57"/>
      <point x="210" y="-42"/>
      <point x="163" y="-29" type="curve"/>
      <point x="203" y="-69" type="line"/>
      <point x="197" y="-39"/>
      <point x="188" y="5"/>
      <point x="188" y="21" type="curve"/>
      <point x="188" y="59" type="line"/>
      <point x="134" y="64" type="line"/>
      <point x="122" y="-71" type="line"/>
      <point x="170" y="-97"/>
      <point x="240" y="-116"/>
    </contour>
    <contour>
      <point x="425" y="208" type="line"/>
      <point x="456" y="229"/>
      <point x="487" y="272"/>
      <point x="487" y="306" type="curve" smooth="yes"/>
      <point x="487" y="386"/>
      <point x="408" y="425"/>
      <point x="334" y="463" type="curve" smooth="yes"/>
      <point x="268" y="495"/>
      <point x="205" y="527"/>
      <point x="205" y="585" type="curve" smooth="yes"/>
      <point x="205" y="639"/>
      <point x="240" y="667"/>
      <point x="284" y="667" type="curve" smooth="yes"/>
      <point x="329" y="667"/>
      <point x="373" y="655"/>
      <point x="417" y="642" type="curve"/>
      <point x="374" y="681" type="line"/>
      <point x="382" y="654"/>
      <point x="396" y="609"/>
      <point x="396" y="601" type="curve" smooth="yes"/>
      <point x="396" y="570" type="line"/>
      <point x="441" y="565" type="line"/>
      <point x="453" y="694" type="line"/>
      <point x="401" y="707"/>
      <point x="342" y="720"/>
      <point x="288" y="720" type="curve" smooth="yes"/>
      <point x="189" y="720"/>
      <point x="112" y="666"/>
      <point x="112" y="569" type="curve" smooth="yes"/>
      <point x="112" y="465"/>
      <point x="204" y="424"/>
      <point x="286" y="389" type="curve" smooth="yes"/>
      <point x="367" y="353"/>
      <point x="455" y="313"/>
      <point x="395" y="226" type="curve"/>
    </contour>
  </outline>
</glyph>
<glyph name="copyright" format="2">
  <advance width="934.4"/>
  <unicode hex="00A9"/>
  <outline>
    <contour>
      <point x="467" y="-15" type="curve" smooth="yes"/>
      <point x="669" y="-15"/>
      <point x="833" y="152"/>
      <point x="833" y="350" type="curve" smooth="yes"/>
      <point x="833" y="554"/>
      <point x="670" y="715"/>
      <point x="467" y="715" type="curve" smooth="yes"/>
      <point x="267" y="715"/>
      <point x="102" y="552"/>
      <point x="102" y="350" type="curve" smooth="yes"/>
      <point x="102" y="144"/>
      <point x="269" y="-15"/>
    </contour>
    <contour>
      <point x="481" y="130" type="curve" smooth="yes"/>
      <point x="532" y="130"/>
      <point x="575" y="141"/>
      <point x="614" y="150" type="curve"/>
      <point x="609" y="246" type="line"/>
      <point x="569" y="245" type="line"/>
      <point x="569" y="236"/>
      <point x="569" y="222"/>
      <point x="568" y="217" type="curve"/>
      <point x="568" y="209"/>
      <point x="557" y="183"/>
      <point x="549" y="165" type="curve"/>
      <point x="579" y="192" type="line"/>
      <point x="547" y="182"/>
      <point x="513" y="175"/>
      <point x="480" y="175" type="curve" smooth="yes"/>
      <point x="400" y="175"/>
      <point x="365" y="253"/>
      <point x="365" y="347" type="curve" smooth="yes"/>
      <point x="365" y="444"/>
      <point x="401" y="519"/>
      <point x="481" y="519" type="curve" smooth="yes"/>
      <point x="510" y="519"/>
      <point x="541" y="513"/>
      <point x="573" y="503" type="curve"/>
      <point x="545" y="528" type="line"/>
      <point x="551" y="512"/>
      <point x="560" y="489"/>
      <point x="560" y="482" type="curve" smooth="yes"/>
      <point x="561" y="450" type="line"/>
      <point x="601" y="448" type="line"/>
      <point x="608" y="545" type="line"/>
      <point x="570" y="555"/>
      <point x="530" y="565"/>
      <point x="481" y="565" type="curve" smooth="yes"/>
      <point x="349" y="565"/>
      <point x="281" y="476"/>
      <point x="281" y="347" type="curve" smooth="yes"/>
      <point x="281" y="219"/>
      <point x="349" y="130"/>
    </contour>
    <contour>
      <point x="468" y="27" type="curve" smooth="yes"/>
      <point x="290" y="27"/>
      <point x="144" y="173"/>
      <point x="144" y="350" type="curve" smooth="yes"/>
      <point x="144" y="531"/>
      <point x="290" y="674"/>
      <point x="468" y="674" type="curve" smooth="yes"/>
      <point x="646" y="674"/>
      <point x="791" y="526"/>
      <point x="791" y="350" type="curve" smooth="yes"/>
      <point x="791" y="173"/>
      <point x="647" y="27"/>
    </contour>
  </outline>
</glyph>
<glyph name="logicalnot" format="2">
  <advance width="704.7"/>
  <unicode hex="00AC"/>
  <outline>
    <contour>
      <point x="492" y="69" type="line"/>
      <point x="560" y="69" type="line"/>
      <point x="560" y="307" type="line"/>
      <point x="105" y="307" type="line"/>
      <point x="105" y="239" type="line"/>
      <point x="527" y="243" type="line"/>
      <point x="493" y="276" type="line"/>
    </contour>
  </outline>
</glyph>
<glyph name="degree" format="2">
  <advance width="496"/>
  <unicode hex="00B0"/>
  <outline>
    <contour>
      <point x="248" y="399" type="curve" smooth="yes"/>
      <point x="328" y="399"/>
      <point x="377" y="452"/>
      <point x="377" y="538" type="curve" smooth="yes"/>
      <point x="377" y="629"/>
      <point x="328" y="678"/>
      <point x="248" y="678" type="curve" smooth="yes"/>
      <point x="168" y="678"/>
      <point x="119" y="629"/>
      <point x="119" y="538" type="curve" smooth="yes"/>
      <point x="119" y="452"/>
      <point x="168" y="399"/>
    </contour>
    <contour>
      <point x="249" y="452" type="curve" smooth="yes"/>
      <point x="203" y="452"/>
      <point x="192" y="492"/>
      <point x="192" y="538" type="curve" smooth="yes"/>
      <point x="192" y="583"/>
      <point x="203" y="624"/>
      <point x="249" y="624" type="curve" smooth="yes"/>
      <point x="294" y="624"/>
      <point x="304" y="583"/>
      <point x="304" y="538" type="curve" smooth="yes"/>
      <point x="304" y="492"/>
      <point x="294" y="452"/>
    </contour>
  </outline>
</glyph>
<glyph name="plusminus" format="2">
  <advance width="663"/>
  <unicode hex="00B1"/>
  <outline>
    <contour>
      <point x="104" y="-30" type="line"/>
      <point x="559" y="-31" type="line"/>
      <point x="559" y="38" type="line"/>
      <point x="104" y="33" type="line"/>
    </contour>
    <contour>
      <point x="104" y="331" type="line"/>
      <point x="559" y="337" type="line"/>
      <point x="559" y="399" type="line"/>
      <point x="104" y="399" type="line"/>
    </contour>
    <contour>
      <point x="298" y="106" type="line"/>
      <point x="365" y="106" type="line"/>
      <point x="360" y="562" type="line"/>
      <point x="298" y="562" type="line"/>
    </contour>
  </outline>
</glyph>
<glyph name="twosuperior" format="2">
  <advance width="379.8"/>
  <unicode hex="00B2"/>
  <outline>
    <contour>
      <point x="310" y="328" type="line"/>
      <point x="326" y="340" type="line"/>
      <point x="331" y="443" type="line"/>
      <point x="290" y="446" type="line"/>
      <point x="286" y="421" type="line"/>
      <point x="280" y="403"/>
      <point x="273" y="384"/>
      <point x="266" y="366" type="curve"/>
      <point x="307" y="399" type="line"/>
      <point x="282" y="395"/>
      <point x="238" y="389"/>
      <point x="225" y="389" type="curve" smooth="yes"/>
      <point x="99" y="389" type="line"/>
      <point x="100" y="364" type="line"/>
      <point x="268" y="506"/>
      <point x="311" y="559"/>
      <point x="311" y="629" type="curve" smooth="yes"/>
      <point x="311" y="694"/>
      <point x="262" y="731"/>
      <point x="179" y="731" type="curve" smooth="yes"/>
      <point x="134" y="731"/>
      <point x="99" y="724"/>
      <point x="59" y="709" type="curve"/>
      <point x="65" y="612" type="line"/>
      <point x="106" y="614" type="line"/>
      <point x="106" y="641" type="line" smooth="yes"/>
      <point x="106" y="649"/>
      <point x="113" y="680"/>
      <point x="118" y="698" type="curve"/>
      <point x="91" y="654" type="line"/>
      <point x="119" y="675"/>
      <point x="142" y="683"/>
      <point x="169" y="683" type="curve" smooth="yes"/>
      <point x="207" y="683"/>
      <point x="232" y="660"/>
      <point x="232" y="621" type="curve" smooth="yes"/>
      <point x="232" y="568"/>
      <point x="202" y="530"/>
      <point x="45" y="383" type="curve"/>
      <point x="54" y="330" type="line"/>
      <point x="239" y="330" type="line"/>
    </contour>
  </outline>
</glyph>
<glyph name="micro" format="2">
  <advance width="693.9"/>
  <unicode hex="00B5"/>
  <outline>
    <contour>
      <point x="119" y="-277" type="line"/>
      <point x="181" y="-262" type="line"/>
      <point x="186" y="-162"/>
      <point x="196" y="-28"/>
      <point x="209" y="64" type="curve"/>
      <point x="197" y="38" type="line"/>
      <point x="203" y="11"/>
      <point x="223" y="-9"/>
      <point x="244" y="-9" type="curve" smooth="yes"/>
      <point x="303" y="-9"/>
      <point x="385" y="54"/>
      <point x="471" y="221" type="curve"/>
      <point x="455" y="209" type="line"/>
      <point x="439" y="124"/>
      <point x="426" y="50"/>
      <point x="412" y="0" type="curve"/>
      <point x="437" y="-15" type="line"/>
      <point x="597" y="30" type="line"/>
      <point x="600" y="64" type="line"/>
      <point x="477" y="69" type="line"/>
      <point x="508" y="42" type="line"/>
      <point x="523" y="214"/>
      <point x="538" y="293"/>
      <point x="589" y="488" type="curve"/>
      <point x="566" y="503" type="line"/>
      <point x="497" y="488" type="line"/>
      <point x="494" y="468"/>
      <point x="491" y="447"/>
      <point x="488" y="425" type="curve" smooth="yes"/>
      <point x="459" y="306"/>
      <point x="426" y="215"/>
      <point x="385" y="156" type="curve" smooth="yes"/>
      <point x="344" y="94"/>
      <point x="310" y="64"/>
      <point x="283" y="64" type="curve" smooth="yes"/>
      <point x="254" y="64"/>
      <point x="248" y="88"/>
      <point x="248" y="115" type="curve" smooth="yes"/>
      <point x="249" y="186"/>
      <point x="277" y="327"/>
      <point x="319" y="484" type="curve"/>
      <point x="298" y="503" type="line"/>
      <point x="135" y="460" type="line"/>
      <point x="135" y="423" type="line"/>
      <point x="253" y="417" type="line"/>
      <point x="221" y="435" type="line"/>
      <point x="202" y="271"/>
      <point x="142" y="-59"/>
      <point x="94" y="-262" type="curve"/>
    </contour>
  </outline>
</glyph>
<glyph name="periodcentered" format="2">
  <advance width="332.8"/>
  <unicode hex="00B7"/>
  <outline>
    <contour>
      <point x="166" y="232" type="curve" smooth="yes"/>
      <point x="207" y="232"/>
      <point x="229" y="259"/>
      <point x="229" y="299" type="curve" smooth="yes"/>
      <point x="229" y="342"/>
      <point x="206" y="368"/>
      <point x="166" y="368" type="curve" smooth="yes"/>
      <point x="126" y="368"/>
      <point x="104" y="339"/>
      <point x="104" y="299" type="curve" smooth="yes"/>
      <point x="104" y="259"/>
      <point x="126" y="232"/>
    </contour>
  </outline>
</glyph>
<glyph name="onesuperior" format="2">
  <advance width="322.5"/>
  <unicode hex="00B9"/>
  <outline>
    <contour>
      <point x="51" y="327" type="line"/>
      <point x="76" y="328"/>
      <point x="151" y="330"/>
      <point x="163" y="330" type="curve" smooth="yes"/>
      <point x="282" y="330" type="line"/>
      <point x="286" y="368" type="line"/>
      <point x="188" y="375" type="line"/>
      <point x="221" y="341" type="line"/>
      <point x="216" y="381"/>
      <point x="212" y="416"/>
      <point x="212" y="440" type="curve" smooth="yes"/>
      <point x="212" y="588" type="line" smooth="yes"/>
      <point x="212" y="610"/>
      <point x="215" y="682"/>
      <point x="217" y="730" type="curve"/>
      <point x="171" y="737" type="line"/>
      <point x="40" y="637" type="line"/>
      <point x="60" y="605" type="line"/>
      <point x="170" y="646" type="line"/>
      <point x="142" y="665" type="line"/>
      <point x="142" y="421" type="line" smooth="yes"/>
      <point x="142" y="409"/>
      <point x="137" y="370"/>
      <point x="132" y="341" type="curve"/>
      <point x="167" y="377" type="line"/>
      <point x="48" y="364" type="line"/>
    </contour>
  </outline>
</glyph>
<glyph name="ordmasculine" format="2">
  <advance width="397.7"/>
  <unicode hex="00BA"/>
  <outline>
    <contour>
      <point x="199" y="322" type="curve" smooth="yes"/>
      <point x="295" y="322"/>
      <point x="345" y="383"/>
      <point x="345" y="479" type="curve" smooth="yes"/>
      <point x="345" y="577"/>
      <point x="295" y="637"/>
      <point x="199" y="637" type="curve" smooth="yes"/>
      <point x="104" y="637"/>
      <point x="53" y="576"/>
      <point x="53" y="479" type="curve" smooth="yes"/>
      <point x="53" y="383"/>
      <point x="104" y="322"/>
    </contour>
    <contour>
      <point x="199" y="366" type="curve" smooth="yes"/>
      <point x="148" y="366"/>
      <point x="129" y="410"/>
      <point x="129" y="479" type="curve" smooth="yes"/>
      <point x="129" y="548"/>
      <point x="148" y="593"/>
      <point x="199" y="593" type="curve" smooth="yes"/>
      <point x="251" y="593"/>
      <point x="269" y="547"/>
      <point x="269" y="479" type="curve" smooth="yes"/>
      <point x="269" y="412"/>
      <point x="251" y="366"/>
    </contour>
  </outline>
</glyph>
<glyph name="questiondown" format="2">
  <advance width="495.8"/>
  <unicode hex="00BF"/>
  <outline>
    <contour>
      <point x="305" y="277" type="line"/>
      <point x="299" y="272" type="line"/>
      <point x="305" y="110" type="line"/>
      <point x="329" y="142" type="line"/>
      <point x="155" y="155"/>
      <point x="70" y="55"/>
      <point x="70" y="-73" type="curve" smooth="yes"/>
      <point x="70" y="-197"/>
      <point x="153" y="-274"/>
      <point x="278" y="-274" type="curve" smooth="yes"/>
      <point x="319" y="-274"/>
      <point x="363" y="-266"/>
      <point x="412" y="-251" type="curve"/>
      <point x="402" y="-105" type="line"/>
      <point x="345" y="-105" type="line"/>
      <point x="347" y="-141" type="line" smooth="yes"/>
      <point x="348" y="-160"/>
      <point x="339" y="-203"/>
      <point x="336" y="-233" type="curve"/>
      <point x="393" y="-196" type="line"/>
      <point x="355" y="-211"/>
      <point x="321" y="-219"/>
      <point x="290" y="-219" type="curve" smooth="yes"/>
      <point x="201" y="-219"/>
      <point x="160" y="-155"/>
      <point x="160" y="-68" type="curve" smooth="yes"/>
      <point x="160" y="18"/>
      <point x="201" y="85"/>
      <point x="298" y="85" type="curve" smooth="yes"/>
      <point x="310" y="85"/>
      <point x="333" y="83"/>
      <point x="348" y="81" type="curve"/>
      <point x="374" y="104" type="line"/>
      <point x="374" y="274" type="line"/>
    </contour>
    <contour>
      <point x="344" y="503" type="curve" smooth="yes"/>
      <point x="307" y="503"/>
      <point x="286" y="476"/>
      <point x="286" y="439" type="curve" smooth="yes"/>
      <point x="286" y="402"/>
      <point x="307" y="376"/>
      <point x="344" y="376" type="curve" smooth="yes"/>
      <point x="381" y="376"/>
      <point x="401" y="402"/>
      <point x="401" y="439" type="curve" smooth="yes"/>
      <point x="401" y="479"/>
      <point x="380" y="503"/>
    </contour>
  </outline>
</glyph>
<glyph name="AE" format="2">
  <advance width="989.4"/>
  <unicode hex="00C6"/>
  <anchor x="618" y="0" name="bottom"/>
  <anchor x="680" y="720" name="top"/>
  <outline>
    <contour>
      <point x="50" y="-5" type="line"/>
      <point x="86" y="-3"/>
      <point x="140" y="0"/>
      <point x="185" y="0" type="curve"/>
      <point x="270" y="0" type="line"/>
      <point x="275" y="53" type="line"/>
      <point x="169" y="68" type="line"/>
      <point x="196" y="32" type="line"/>
      <point x="201" y="53"/>
      <point x="214" y="118"/>
      <point x="219" y="128" type="curve" smooth="yes"/>
      <point x="434" y="624" type="line"/>
      <point x="413" y="626" type="line"/>
      <point x="508" y="130" type="line" smooth="yes"/>
      <point x="512" y="104"/>
      <point x="516" y="79"/>
      <point x="515" y="33" type="curve"/>
      <point x="547" y="73" type="line"/>
      <point x="443" y="42" type="line"/>
      <point x="447" y="-5" type="line"/>
      <point x="494" y="-3"/>
      <point x="564" y="0"/>
      <point x="586" y="0" type="curve"/>
      <point x="622" y="21" type="line"/>
      <point x="593" y="166" type="line" smooth="yes"/>
      <point x="515" y="538" type="line" smooth="yes"/>
      <point x="511" y="582"/>
      <point x="503" y="668"/>
      <point x="502" y="684" type="curve"/>
      <point x="502" y="705" type="line"/>
      <point x="404" y="705" type="line"/>
      <point x="166" y="160" type="line" smooth="yes"/>
      <point x="159" y="142"/>
      <point x="119" y="70"/>
      <point x="96" y="44" type="curve"/>
      <point x="142" y="69" type="line"/>
      <point x="46" y="42" type="line"/>
    </contour>
    <contour>
      <point x="232" y="236" type="line"/>
      <point x="546" y="236" type="line"/>
      <point x="544" y="287" type="line"/>
      <point x="230" y="287" type="line"/>
    </contour>
    <contour>
      <point x="889" y="-4" type="curve"/>
      <point x="908" y="14" type="line"/>
      <point x="923" y="163" type="line"/>
      <point x="869" y="168" type="line"/>
      <point x="854" y="100" type="line" smooth="yes"/>
      <point x="851" y="86"/>
      <point x="831" y="61"/>
      <point x="817" y="43" type="curve"/>
      <point x="847" y="67" type="line"/>
      <point x="829" y="63"/>
      <point x="785" y="55"/>
      <point x="745" y="55" type="curve" smooth="yes"/>
      <point x="539" y="55" type="line"/>
      <point x="539" y="0" type="line"/>
      <point x="775" y="0" type="line" smooth="yes"/>
      <point x="792" y="0"/>
      <point x="851" y="-2"/>
    </contour>
    <contour>
      <point x="781" y="266" type="line"/>
      <point x="828" y="272" type="line"/>
      <point x="826" y="308"/>
      <point x="825" y="344"/>
      <point x="825" y="380" type="curve" smooth="yes"/>
      <point x="825" y="464" type="line"/>
      <point x="781" y="469" type="line"/>
      <point x="767" y="364" type="line"/>
      <point x="798" y="404" type="line"/>
      <point x="784" y="402"/>
      <point x="739" y="394"/>
      <point x="711" y="394" type="curve" smooth="yes"/>
      <point x="539" y="394" type="line"/>
      <point x="539" y="340" type="line"/>
      <point x="691" y="340" type="line" smooth="yes"/>
      <point x="717" y="340"/>
      <point x="781" y="332"/>
      <point x="803" y="329" type="curve"/>
      <point x="767" y="370" type="line"/>
    </contour>
    <contour>
      <point x="845" y="557" type="line"/>
      <point x="902" y="562" type="line"/>
      <point x="895" y="692" type="line"/>
      <point x="876" y="710" type="line"/>
      <point x="838" y="707"/>
      <point x="780" y="705"/>
      <point x="762" y="705" type="curve" smooth="yes"/>
      <point x="451" y="705" type="line"/>
      <point x="451" y="651" type="line"/>
      <point x="732" y="651" type="line" smooth="yes"/>
      <point x="768" y="651"/>
      <point x="809" y="648"/>
      <point x="829" y="645" type="curve"/>
      <point x="796" y="664" type="line"/>
      <point x="811" y="651"/>
      <point x="832" y="622"/>
      <point x="834" y="612" type="curve" smooth="yes"/>
    </contour>
  </outline>
</glyph>
<glyph name="multiply" format="2">
  <advance width="611"/>
  <unicode hex="00D7"/>
  <outline>
    <contour>
      <point x="474" y="31" type="line"/>
      <point x="522" y="78" type="line"/>
      <point x="148" y="459" type="line"/>
      <point x="97" y="409" type="line"/>
    </contour>
    <contour>
      <point x="146" y="32" type="line"/>
      <point x="522" y="410" type="line"/>
      <point x="471" y="459" type="line"/>
      <point x="97" y="78" type="line"/>
    </contour>
  </outline>
</glyph>
<glyph name="ae" format="2">
  <advance width="772.3"/>
  <unicode hex="00E6"/>
  <anchor x="386" y="0" name="bottom"/>
  <anchor x="386" y="494" name="top"/>
  <outline>
    <contour>
      <point x="188" y="-10" type="curve" smooth="yes"/>
      <point x="269" y="-10"/>
      <point x="336" y="39"/>
      <point x="381" y="133" type="curve"/>
      <point x="361" y="132" type="line"/>
      <point x="389" y="41"/>
      <point x="459" y="-10"/>
      <point x="555" y="-10" type="curve" smooth="yes"/>
      <point x="660" y="-10"/>
      <point x="735" y="54"/>
      <point x="730" y="49" type="curve"/>
      <point x="702" y="94" type="line"/>
      <point x="676" y="76"/>
      <point x="620" y="52"/>
      <point x="562" y="52" type="curve" smooth="yes"/>
      <point x="475" y="52"/>
      <point x="411" y="137"/>
      <point x="414" y="255" type="curve"/>
      <point x="415" y="271" type="line" smooth="yes"/>
      <point x="418" y="385"/>
      <point x="464" y="453"/>
      <point x="539" y="453" type="curve" smooth="yes"/>
      <point x="607" y="453"/>
      <point x="647" y="405"/>
      <point x="647" y="323" type="curve" smooth="yes"/>
      <point x="647" y="288" type="line"/>
      <point x="680" y="327" type="line"/>
      <point x="403" y="286" type="line"/>
      <point x="401" y="238" type="line"/>
      <point x="716" y="275" type="line"/>
      <point x="730" y="313" type="line"/>
      <point x="720" y="440"/>
      <point x="659" y="502"/>
      <point x="542" y="502" type="curve" smooth="yes"/>
      <point x="473" y="502"/>
      <point x="417" y="472"/>
      <point x="377" y="417" type="curve"/>
      <point x="399" y="414" type="line"/>
      <point x="380" y="475"/>
      <point x="333" y="503"/>
      <point x="254" y="503" type="curve" smooth="yes"/>
      <point x="193" y="503"/>
      <point x="133" y="495"/>
      <point x="74" y="479" type="curve"/>
      <point x="84" y="348" type="line"/>
      <point x="140" y="351" type="line"/>
      <point x="140" y="385" type="line"/>
      <point x="157" y="466" type="line"/>
      <point x="136" y="424" type="line"/>
      <point x="158" y="442"/>
      <point x="199" y="452"/>
      <point x="244" y="452" type="curve" smooth="yes"/>
      <point x="308" y="452"/>
      <point x="340" y="405"/>
      <point x="340" y="310" type="curve" smooth="yes"/>
      <point x="340" y="218" type="line" smooth="yes"/>
      <point x="340" y="124"/>
      <point x="279" y="50"/>
      <point x="201" y="50" type="curve" smooth="yes"/>
      <point x="153" y="50"/>
      <point x="126" y="78"/>
      <point x="126" y="126" type="curve" smooth="yes"/>
      <point x="126" y="169"/>
      <point x="144" y="190"/>
      <point x="190" y="199" type="curve" smooth="yes"/>
      <point x="353" y="229" type="line"/>
      <point x="353" y="278" type="line"/>
      <point x="157" y="245" type="line" smooth="yes"/>
      <point x="83" y="232"/>
      <point x="44" y="189"/>
      <point x="44" y="122" type="curve" smooth="yes"/>
      <point x="44" y="42"/>
      <point x="99" y="-10"/>
    </contour>
  </outline>
</glyph>
<glyph name="divide" format="2">
  <advance width="638.8"/>
  <unicode hex="00F7"/>
  <outline>
    <contour>
      <point x="91" y="214" type="line"/>
      <point x="546" y="214" type="line"/>
      <point x="546" y="282" type="line"/>
      <point x="91" y="276" type="line"/>
    </contour>
    <contour>
      <point x="319" y="7" type="curve" smooth="yes"/>
      <point x="356" y="7"/>
      <point x="377" y="33"/>
      <point x="377" y="70" type="curve" smooth="yes"/>
      <point x="377" y="110"/>
      <point x="356" y="133"/>
      <point x="319" y="133" type="curve" smooth="yes"/>
      <point x="282" y="133"/>
      <point x="262" y="107"/>
      <point x="262" y="70" type="curve" smooth="yes"/>
      <point x="262" y="33"/>
      <point x="282" y="7"/>
    </contour>
    <contour>
      <point x="319" y="359" type="curve" smooth="yes"/>
      <point x="356" y="359"/>
      <point x="377" y="385"/>
      <point x="377" y="422" type="curve" smooth="yes"/>
      <point x="377" y="462"/>
      <point x="356" y="485"/>
      <point x="319" y="485" type="curve" smooth="yes"/>
      <point x="282" y="485"/>
      <point x="262" y="459"/>
      <point x="262" y="422" type="curve" smooth="yes"/>
      <point x="262" y="385"/>
      <point x="282" y="359"/>
    </contour>
  </outline>
</glyph>
<glyph name="Aogonek" format="2">
  <advance width="741.1"/>
  <unicode hex="0104"/>
  <anchor x="359" y="0" name="bottom"/>
  <anchor x="690" y="0" name="ogonek"/>
  <anchor x="361" y="705" name="top"/>
  <outline>
    <contour>
      <point x="50" y="-5" type="line"/>
      <point x="50" y="-5"/>
      <point x="160" y="0"/>
      <point x="185" y="0" type="curve"/>
      <point x="269" y="0" type="line"/>
      <point x="274" y="52" type="line"/>
      <point x="169" y="68" type="line"/>
      <point x="200" y="42" type="line"/>
      <point x="202" y="68"/>
      <point x="205" y="100"/>
      <point x="213" y="128" type="curve" smooth="yes"/>
      <point x="364" y="595" type="line"/>
      <point x="342" y="594" type="line"/>
      <point x="491" y="176" type="line" smooth="yes"/>
      <point x="507" y="132"/>
      <point x="517" y="86"/>
      <point x="525" y="42" type="curve"/>
      <point x="525" y="76" type="line"/>
      <point x="502" y="0" type="line"/>
      <point x="587" y="0" type="line"/>
      <point x="690" y="0" type="line"/>
      <point x="695" y="52" type="line"/>
      <point x="599" y="68" type="line"/>
      <point x="640" y="44" type="line"/>
      <point x="625" y="76"/>
      <point x="605" y="114"/>
      <point x="592" y="151" type="curve" smooth="yes"/>
      <point x="385" y="715" type="line"/>
      <point x="332" y="705" type="line"/>
      <point x="154" y="160" type="line" smooth="yes"/>
      <point x="141" y="118"/>
      <point x="118" y="72"/>
      <point x="103" y="45" type="curve"/>
      <point x="144" y="69" type="line"/>
      <point x="46" y="42" type="line"/>
    </contour>
    <contour>
      <point x="222" y="237" type="line"/>
      <point x="505" y="237" type="line"/>
      <point x="505" y="287" type="line"/>
      <point x="222" y="287" type="line"/>
    </contour>
    <component base="ogonekcomb" xOffset="367"/>
  </outline>
</glyph>
<glyph name="Iogonek" format="2">
  <advance width="373.1"/>
  <unicode hex="012E"/>
  <outline>
    <contour>
      <point x="99" y="-48" type="curve"/>
      <point x="146" y="-25" type="line"/>
      <point x="146" y="-25"/>
      <point x="159" y="0"/>
      <point x="184" y="0" type="curve"/>
      <point x="312" y="0" type="line"/>
      <point x="318" y="52" type="line"/>
      <point x="226" y="59" type="line"/>
      <point x="224" y="73"/>
      <point x="219" y="122"/>
      <point x="219" y="164" type="curve" smooth="yes"/>
      <point x="219" y="541" type="line" smooth="yes"/>
      <point x="219" y="583"/>
      <point x="224" y="632"/>
      <point x="226" y="646" type="curve"/>
      <point x="305" y="653" type="line"/>
      <point x="301" y="710" type="line"/>
      <point x="301" y="710"/>
      <point x="225" y="705"/>
      <point x="167" y="705" type="curve" smooth="yes"/>
      <point x="148" y="705"/>
      <point x="52" y="710"/>
      <point x="52" y="710" type="curve"/>
      <point x="47" y="658" type="line"/>
      <point x="125" y="646" type="line"/>
      <point x="127" y="633"/>
      <point x="134" y="587"/>
      <point x="134" y="571" type="curve" smooth="yes"/>
      <point x="134" y="134" type="line" smooth="yes"/>
      <point x="134" y="91"/>
      <point x="123" y="44"/>
    </contour>
    <component base="ogonekcomb" xOffset="15"/>
  </outline>
</glyph>
<glyph name="iogonek" format="2">
  <advance width="311.3"/>
  <unicode hex="012F"/>
  <outline>
    <contour>
      <point x="108" y="1" type="curve"/>
      <point x="282" y="0" type="line"/>
      <point x="288" y="52" type="line"/>
      <point x="176" y="62" type="line"/>
      <point x="211" y="24" type="line"/>
      <point x="207" y="73"/>
      <point x="202" y="142"/>
      <point x="202" y="164" type="curve" smooth="yes"/>
      <point x="202" y="326" type="line" smooth="yes"/>
      <point x="202" y="376"/>
      <point x="209" y="480"/>
      <point x="209" y="476" type="curve"/>
      <point x="190" y="494" type="line"/>
      <point x="135" y="494" type="line" smooth="yes"/>
      <point x="126" y="494"/>
      <point x="76" y="496"/>
      <point x="46" y="498" type="curve"/>
      <point x="41" y="447" type="line"/>
      <point x="151" y="423" type="line"/>
      <point x="112" y="464" type="line"/>
      <point x="118" y="428"/>
      <point x="127" y="372"/>
      <point x="127" y="356" type="curve" smooth="yes"/>
      <point x="127" y="134" type="line" smooth="yes"/>
      <point x="127" y="115"/>
      <point x="115" y="48"/>
    </contour>
    <component base="dotaccentcomb" xOffset="41" yOffset="31"/>
    <component base="ogonekcomb" xOffset="-28"/>
  </outline>
</glyph>
<glyph name="kgreenlandic" format="2">
  <advance width="574.4"/>
  <unicode hex="0138"/>
  <anchor x="288" y="0" name="bottom"/>
  <anchor x="288" y="494" name="top"/>
  <outline>
    <contour>
      <point x="335" y="0" type="line"/>
      <point x="371" y="0"/>
      <point x="426" y="0"/>
      <point x="444" y="0" type="curve"/>
      <point x="542" y="0" type="line"/>
      <point x="547" y="44" type="line"/>
      <point x="468" y="52" type="line"/>
      <point x="526" y="29" type="line"/>
      <point x="512" y="40"/>
      <point x="464" y="76"/>
      <point x="450" y="90" type="curve"/>
      <point x="276" y="278" type="line"/>
      <point x="274" y="231" type="line"/>
      <point x="392" y="382" type="line"/>
      <point x="440" y="427"/>
      <point x="452" y="435"/>
      <point x="473" y="454" type="curve"/>
      <point x="428" y="440" type="line"/>
      <point x="512" y="447" type="line"/>
      <point x="509" y="497" type="line"/>
      <point x="473" y="495"/>
      <point x="433" y="493"/>
      <point x="400" y="493" type="curve" smooth="yes"/>
      <point x="377" y="493"/>
      <point x="353" y="495"/>
      <point x="329" y="497" type="curve"/>
      <point x="326" y="451" type="line"/>
      <point x="392" y="439" type="line"/>
      <point x="375" y="475" type="line"/>
      <point x="333" y="404" type="line"/>
      <point x="204" y="246" type="line"/>
      <point x="322" y="115" type="line"/>
      <point x="340" y="92"/>
      <point x="378" y="36"/>
      <point x="384" y="27" type="curve"/>
      <point x="403" y="53" type="line"/>
      <point x="333" y="38" type="line"/>
    </contour>
    <contour>
      <point x="39" y="-5" type="line"/>
      <point x="76" y="-3"/>
      <point x="128" y="0"/>
      <point x="149" y="0" type="curve"/>
      <point x="257" y="0" type="line"/>
      <point x="264" y="52" type="line"/>
      <point x="170" y="62" type="line"/>
      <point x="207" y="25" type="line"/>
      <point x="203" y="49"/>
      <point x="198" y="112"/>
      <point x="198" y="164" type="curve" smooth="yes"/>
      <point x="198" y="326" type="line" smooth="yes"/>
      <point x="198" y="373"/>
      <point x="201" y="446"/>
      <point x="204" y="476" type="curve"/>
      <point x="185" y="494" type="line"/>
      <point x="130" y="494" type="line"/>
      <point x="121" y="494"/>
      <point x="71" y="496"/>
      <point x="41" y="498" type="curve"/>
      <point x="36" y="447" type="line"/>
      <point x="146" y="423" type="line"/>
      <point x="107" y="469" type="line"/>
      <point x="112" y="439"/>
      <point x="122" y="381"/>
      <point x="122" y="356" type="curve" smooth="yes"/>
      <point x="122" y="134" type="line" smooth="yes"/>
      <point x="122" y="109"/>
      <point x="109" y="44"/>
      <point x="106" y="29" type="curve"/>
      <point x="146" y="66" type="line"/>
      <point x="34" y="43" type="line"/>
    </contour>
  </outline>
</glyph>
<glyph name="napostrophe" format="2">
  <advance width="684.7"/>
  <unicode hex="0149"/>
  <anchor x="369" y="0" name="bottom"/>
  <anchor x="402" y="494" name="top"/>
  <anchor x="69" y="537" name="topleft"/>
  <outline>
    <contour>
      <point x="106" y="-5" type="line"/>
      <point x="143" y="-3"/>
      <point x="195" y="0"/>
      <point x="216" y="0" type="curve"/>
      <point x="344" y="0" type="line"/>
      <point x="350" y="52" type="line"/>
      <point x="237" y="62" type="line"/>
      <point x="274" y="25" type="line"/>
      <point x="270" y="49"/>
      <point x="265" y="112"/>
      <point x="265" y="164" type="curve" smooth="yes"/>
      <point x="265" y="275" type="line" smooth="yes"/>
      <point x="265" y="374"/>
      <point x="314" y="446"/>
      <point x="396" y="446" type="curve" smooth="yes"/>
      <point x="483" y="446"/>
      <point x="501" y="360"/>
      <point x="501" y="273" type="curve" smooth="yes"/>
      <point x="501" y="134" type="line" smooth="yes"/>
      <point x="501" y="100"/>
      <point x="492" y="64"/>
      <point x="486" y="44" type="curve"/>
      <point x="523" y="67" type="line"/>
      <point x="423" y="43" type="line"/>
      <point x="428" y="-5" type="line"/>
      <point x="461" y="-3"/>
      <point x="519" y="0"/>
      <point x="528" y="0" type="curve"/>
      <point x="657" y="0" type="line"/>
      <point x="663" y="52" type="line"/>
      <point x="550" y="62" type="line"/>
      <point x="586" y="35" type="line"/>
      <point x="582" y="61"/>
      <point x="577" y="115"/>
      <point x="577" y="164" type="curve" smooth="yes"/>
      <point x="577" y="271" type="line" smooth="yes"/>
      <point x="577" y="411"/>
      <point x="548" y="503"/>
      <point x="407" y="503" type="curve" smooth="yes"/>
      <point x="331" y="503"/>
      <point x="273" y="459"/>
      <point x="243" y="384" type="curve"/>
      <point x="265" y="326" type="line"/>
      <point x="251" y="476" type="line"/>
      <point x="232" y="494" type="line"/>
      <point x="173" y="494" type="line"/>
      <point x="177" y="473"/>
      <point x="190" y="381"/>
      <point x="190" y="356" type="curve" smooth="yes"/>
      <point x="190" y="134" type="line" smooth="yes"/>
      <point x="190" y="109"/>
      <point x="176" y="44"/>
      <point x="174" y="29" type="curve"/>
      <point x="213" y="66" type="line"/>
      <point x="101" y="43" type="line"/>
    </contour>
    <component base="apostrophemod" xOffset="-17" yOffset="-160"/>
  </outline>
</glyph>
<glyph name="Eng" format="2">
  <advance width="805.2"/>
  <unicode hex="014A"/>
  <outline>
    <contour>
      <point x="555" y="-200" type="line"/>
      <point x="650" y="-55"/>
      <point x="662" y="-27"/>
      <point x="662" y="0" type="curve" smooth="yes"/>
      <point x="663" y="540" type="line" smooth="yes"/>
      <point x="663" y="584"/>
      <point x="676" y="634"/>
      <point x="682" y="662" type="curve"/>
      <point x="645" y="643" type="line"/>
      <point x="758" y="653" type="line"/>
      <point x="754" y="710" type="line"/>
      <point x="725" y="708"/>
      <point x="684" y="705"/>
      <point x="625" y="705" type="curve" smooth="yes"/>
      <point x="606" y="705"/>
      <point x="549" y="708"/>
      <point x="518" y="710" type="curve"/>
      <point x="513" y="658" type="line"/>
      <point x="625" y="640" type="line"/>
      <point x="587" y="669" type="line"/>
      <point x="594" y="639"/>
      <point x="601" y="586"/>
      <point x="601" y="570" type="curve" smooth="yes"/>
      <point x="601" y="129" type="line"/>
      <point x="620" y="134" type="line"/>
      <point x="336" y="529" type="line" smooth="yes"/>
      <point x="324" y="546"/>
      <point x="273" y="628"/>
      <point x="238" y="685" type="curve"/>
      <point x="218" y="705" type="line"/>
      <point x="177" y="705" type="line" smooth="yes"/>
      <point x="157" y="705"/>
      <point x="99" y="708"/>
      <point x="61" y="710" type="curve"/>
      <point x="56" y="658" type="line"/>
      <point x="171" y="641" type="line"/>
      <point x="135" y="665" type="line"/>
      <point x="138" y="643"/>
      <point x="146" y="587"/>
      <point x="146" y="570" type="curve" smooth="yes"/>
      <point x="146" y="135" type="line" smooth="yes"/>
      <point x="146" y="116"/>
      <point x="138" y="65"/>
      <point x="134" y="38" type="curve"/>
      <point x="171" y="66" type="line"/>
      <point x="58" y="44" type="line"/>
      <point x="63" y="-5" type="line"/>
      <point x="103" y="-3"/>
      <point x="164" y="0"/>
      <point x="185" y="0" type="curve" smooth="yes"/>
      <point x="291" y="0" type="line"/>
      <point x="298" y="53" type="line"/>
      <point x="182" y="63" type="line"/>
      <point x="219" y="42" type="line"/>
      <point x="214" y="73"/>
      <point x="209" y="121"/>
      <point x="209" y="165" type="curve" smooth="yes"/>
      <point x="209" y="597" type="line"/>
      <point x="189" y="592" type="line"/>
      <point x="621" y="-19" type="line"/>
      <point x="617" y="71" type="line"/>
      <point x="604" y="-18"/>
      <point x="556" y="-109"/>
      <point x="523" y="-179" type="curve"/>
    </contour>
  </outline>
</glyph>
<glyph name="eng" format="2">
  <advance width="580.1"/>
  <unicode hex="014B"/>
  <outline>
    <contour>
      <point x="394" y="-235" type="line"/>
      <point x="444" y="-155"/>
      <point x="510" y="-39"/>
      <point x="510" y="-10" type="curve" smooth="yes"/>
      <point x="510" y="271" type="line" smooth="yes"/>
      <point x="510" y="411"/>
      <point x="482" y="503"/>
      <point x="340" y="503" type="curve" smooth="yes"/>
      <point x="264" y="503"/>
      <point x="212" y="457"/>
      <point x="190" y="413" type="curve"/>
      <point x="148" y="356" type="line"/>
      <point x="198" y="275" type="line"/>
      <point x="199" y="374"/>
      <point x="247" y="446"/>
      <point x="328" y="446" type="curve" smooth="yes"/>
      <point x="416" y="446"/>
      <point x="435" y="360"/>
      <point x="435" y="273" type="curve" smooth="yes"/>
      <point x="435" y="117" type="line" smooth="yes"/>
      <point x="435" y="81"/>
      <point x="435" y="41"/>
      <point x="435" y="21" type="curve"/>
      <point x="435" y="-8"/>
      <point x="392" y="-131"/>
      <point x="359" y="-215" type="curve"/>
    </contour>
    <contour>
      <point x="40" y="-5" type="line"/>
      <point x="79" y="-3"/>
      <point x="135" y="0"/>
      <point x="150" y="0" type="curve" smooth="yes"/>
      <point x="206" y="0"/>
      <point x="256" y="0"/>
      <point x="278" y="0" type="curve"/>
      <point x="284" y="52" type="line"/>
      <point x="204" y="59" type="line"/>
      <point x="201" y="83"/>
      <point x="198" y="128"/>
      <point x="198" y="164" type="curve" smooth="yes"/>
      <point x="198" y="329" type="line"/>
      <point x="184" y="476" type="line"/>
      <point x="165" y="494" type="line"/>
      <point x="130" y="494" type="line" smooth="yes"/>
      <point x="118" y="494"/>
      <point x="72" y="496"/>
      <point x="41" y="498" type="curve"/>
      <point x="36" y="447" type="line"/>
      <point x="112" y="431" type="line"/>
      <point x="116" y="407"/>
      <point x="122" y="371"/>
      <point x="122" y="356" type="curve" smooth="yes"/>
      <point x="122" y="129" type="line"/>
      <point x="121" y="112"/>
      <point x="115" y="79"/>
      <point x="112" y="59" type="curve"/>
      <point x="35" y="43" type="line"/>
    </contour>
  </outline>
</glyph>
<glyph name="OE" format="2">
  <advance width="989.3"/>
  <unicode hex="0152"/>
  <anchor x="297" y="0" name="bottom"/>
  <anchor x="297" y="720" name="top"/>
  <outline>
    <contour>
      <point x="397" y="-5" type="curve" smooth="yes"/>
      <point x="448" y="-5"/>
      <point x="501" y="-2"/>
      <point x="553" y="0" type="curve"/>
      <point x="601" y="13" type="line"/>
      <point x="596" y="43"/>
      <point x="589" y="116"/>
      <point x="589" y="165" type="curve"/>
      <point x="589" y="540" type="line" smooth="yes"/>
      <point x="589" y="588"/>
      <point x="596" y="662"/>
      <point x="599" y="677" type="curve"/>
      <point x="536" y="705" type="line"/>
      <point x="490" y="707"/>
      <point x="443" y="710"/>
      <point x="397" y="710" type="curve" smooth="yes"/>
      <point x="180" y="710"/>
      <point x="71" y="564"/>
      <point x="71" y="352" type="curve" smooth="yes"/>
      <point x="71" y="141"/>
      <point x="180" y="-5"/>
    </contour>
    <contour>
      <point x="498" y="23" type="curve"/>
      <point x="528" y="56" type="line"/>
      <point x="484" y="44"/>
      <point x="437" y="44"/>
      <point x="397" y="45" type="curve" smooth="yes"/>
      <point x="245" y="49"/>
      <point x="172" y="185"/>
      <point x="172" y="352" type="curve" smooth="yes"/>
      <point x="172" y="521"/>
      <point x="246" y="660"/>
      <point x="397" y="660" type="curve" smooth="yes"/>
      <point x="437" y="660"/>
      <point x="484" y="657"/>
      <point x="528" y="651" type="curve"/>
      <point x="499" y="682" type="line"/>
      <point x="504" y="644"/>
      <point x="503" y="591"/>
      <point x="503" y="570" type="curve" smooth="yes"/>
      <point x="503" y="135" type="line" smooth="yes"/>
      <point x="503" y="114"/>
      <point x="502" y="43"/>
    </contour>
    <contour>
      <point x="889" y="-4" type="curve"/>
      <point x="908" y="14" type="line"/>
      <point x="923" y="163" type="line"/>
      <point x="869" y="168" type="line"/>
      <point x="854" y="100" type="line" smooth="yes"/>
      <point x="851" y="86"/>
      <point x="831" y="61"/>
      <point x="817" y="43" type="curve"/>
      <point x="847" y="67" type="line"/>
      <point x="829" y="63"/>
      <point x="785" y="55"/>
      <point x="745" y="55" type="curve" smooth="yes"/>
      <point x="539" y="55" type="line"/>
      <point x="539" y="0" type="line"/>
      <point x="775" y="0" type="line" smooth="yes"/>
      <point x="792" y="0"/>
      <point x="851" y="-2"/>
    </contour>
    <contour>
      <point x="781" y="266" type="line"/>
      <point x="828" y="272" type="line"/>
      <point x="826" y="308"/>
      <point x="825" y="344"/>
      <point x="825" y="380" type="curve" smooth="yes"/>
      <point x="825" y="464" type="line"/>
      <point x="781" y="469" type="line"/>
      <point x="767" y="364" type="line"/>
      <point x="798" y="404" type="line"/>
      <point x="784" y="402"/>
      <point x="739" y="394"/>
      <point x="711" y="394" type="curve" smooth="yes"/>
      <point x="539" y="394" type="line"/>
      <point x="539" y="340" type="line"/>
      <point x="691" y="340" type="line" smooth="yes"/>
      <point x="716" y="340"/>
      <point x="781" y="332"/>
      <point x="803" y="329" type="curve"/>
      <point x="767" y="370" type="line"/>
    </contour>
    <contour>
      <point x="845" y="557" type="line"/>
      <point x="902" y="562" type="line"/>
      <point x="895" y="692" type="line"/>
      <point x="876" y="710" type="line"/>
      <point x="838" y="707"/>
      <point x="780" y="705"/>
      <point x="762" y="705" type="curve" smooth="yes"/>
      <point x="539" y="705" type="line"/>
      <point x="539" y="651" type="line"/>
      <point x="732" y="651" type="line" smooth="yes"/>
      <point x="767" y="651"/>
      <point x="809" y="648"/>
      <point x="828" y="645" type="curve"/>
      <point x="795" y="664" type="line"/>
      <point x="811" y="651"/>
      <point x="832" y="622"/>
      <point x="834" y="612" type="curve" smooth="yes"/>
    </contour>
  </outline>
</glyph>
<glyph name="Schwa" format="2">
  <advance width="718.7"/>
  <unicode hex="018F"/>
  <outline>
    <contour>
      <point x="341" y="-15" type="curve" smooth="yes"/>
      <point x="544" y="-15"/>
      <point x="647" y="135"/>
      <point x="647" y="352" type="curve" smooth="yes"/>
      <point x="647" y="598"/>
      <point x="504" y="710"/>
      <point x="315" y="710" type="curve" smooth="yes"/>
      <point x="234" y="710"/>
      <point x="157" y="694"/>
      <point x="88" y="663" type="curve"/>
      <point x="117" y="612" type="line"/>
      <point x="177" y="635"/>
      <point x="243" y="648"/>
      <point x="296" y="648" type="curve" smooth="yes"/>
      <point x="440" y="648"/>
      <point x="547" y="555"/>
      <point x="547" y="352" type="curve" smooth="yes"/>
      <point x="547" y="185"/>
      <point x="480" y="45"/>
      <point x="341" y="45" type="curve" smooth="yes"/>
      <point x="213" y="45"/>
      <point x="165" y="186"/>
      <point x="165" y="308" type="curve" smooth="yes"/>
      <point x="165" y="319"/>
      <point x="165" y="349"/>
      <point x="165" y="363" type="curve"/>
      <point x="132" y="320" type="line"/>
      <point x="565" y="328" type="line"/>
      <point x="565" y="384" type="line"/>
      <point x="90" y="399" type="line"/>
      <point x="66" y="367" type="line"/>
      <point x="66" y="348"/>
      <point x="66" y="332"/>
      <point x="66" y="314" type="curve" smooth="yes"/>
      <point x="66" y="136"/>
      <point x="162" y="-15"/>
    </contour>
  </outline>
</glyph>
<glyph name="Fhook" format="2">
  <advance width="583.6"/>
  <unicode hex="0191"/>
  <anchor x="287" y="0" name="bottom"/>
  <anchor x="287" y="720" name="top"/>
  <outline>
    <contour>
      <point x="12" y="-194" type="line"/>
      <point x="143" y="-194"/>
      <point x="219" y="-109"/>
      <point x="219" y="-3" type="curve" smooth="yes"/>
      <point x="219" y="540" type="line"/>
      <point x="219" y="588"/>
      <point x="229" y="674"/>
      <point x="230" y="680" type="curve"/>
      <point x="193" y="651" type="line"/>
      <point x="359" y="651" type="line" smooth="yes"/>
      <point x="394" y="651"/>
      <point x="436" y="646"/>
      <point x="456" y="645" type="curve"/>
      <point x="422" y="666" type="line"/>
      <point x="436" y="653"/>
      <point x="459" y="622"/>
      <point x="461" y="611" type="curve"/>
      <point x="465" y="596"/>
      <point x="470" y="574"/>
      <point x="472" y="558" type="curve"/>
      <point x="529" y="563" type="line"/>
      <point x="522" y="692" type="line"/>
      <point x="503" y="710" type="line"/>
      <point x="486" y="709"/>
      <point x="409" y="705"/>
      <point x="389" y="705" type="curve" smooth="yes"/>
      <point x="166" y="705" type="line" smooth="yes"/>
      <point x="147" y="705"/>
      <point x="88" y="708"/>
      <point x="51" y="710" type="curve"/>
      <point x="46" y="658" type="line"/>
      <point x="158" y="640" type="line"/>
      <point x="118" y="677" type="line"/>
      <point x="123" y="654"/>
      <point x="133" y="591"/>
      <point x="133" y="570" type="curve" smooth="yes"/>
      <point x="133" y="2" type="line" smooth="yes"/>
      <point x="133" y="-90"/>
      <point x="108" y="-144"/>
      <point x="13" y="-144" type="curve"/>
    </contour>
    <contour>
      <point x="408" y="258" type="line"/>
      <point x="455" y="264" type="line"/>
      <point x="454" y="289"/>
      <point x="452" y="336"/>
      <point x="452" y="372" type="curve" smooth="yes"/>
      <point x="452" y="456" type="line"/>
      <point x="408" y="461" type="line"/>
      <point x="395" y="366" type="line"/>
      <point x="427" y="402" type="line"/>
      <point x="410" y="397"/>
      <point x="367" y="386"/>
      <point x="338" y="386" type="curve" smooth="yes"/>
      <point x="187" y="386" type="line"/>
      <point x="187" y="332" type="line"/>
      <point x="318" y="332" type="line" smooth="yes"/>
      <point x="344" y="332"/>
      <point x="415" y="325"/>
      <point x="432" y="322" type="curve"/>
      <point x="395" y="355" type="line"/>
    </contour>
  </outline>
</glyph>
<glyph name="Nhookleft" format="2">
  <advance width="795.3"/>
  <unicode hex="019D"/>
  <anchor x="393" y="0" name="bottom"/>
  <anchor x="393" y="705" name="top"/>
  <outline>
    <contour>
      <point x="33" y="-194" type="line"/>
      <point x="149" y="-194"/>
      <point x="199" y="-142"/>
      <point x="199" y="-3" type="curve" smooth="yes"/>
      <point x="199" y="598" type="line"/>
      <point x="179" y="592" type="line"/>
      <point x="598" y="0" type="line"/>
      <point x="652" y="0" type="line"/>
      <point x="654" y="540" type="line" smooth="yes"/>
      <point x="654" y="595"/>
      <point x="671" y="655"/>
      <point x="676" y="679" type="curve"/>
      <point x="635" y="643" type="line"/>
      <point x="748" y="653" type="line"/>
      <point x="744" y="710" type="line"/>
      <point x="715" y="708"/>
      <point x="675" y="705"/>
      <point x="615" y="705" type="curve" smooth="yes"/>
      <point x="596" y="705"/>
      <point x="539" y="708"/>
      <point x="508" y="710" type="curve"/>
      <point x="503" y="658" type="line"/>
      <point x="616" y="640" type="line"/>
      <point x="576" y="684" type="line"/>
      <point x="580" y="665"/>
      <point x="591" y="590"/>
      <point x="591" y="570" type="curve" smooth="yes"/>
      <point x="591" y="129" type="line"/>
      <point x="611" y="135" type="line"/>
      <point x="326" y="529" type="line" smooth="yes"/>
      <point x="314" y="546"/>
      <point x="263" y="628"/>
      <point x="228" y="685" type="curve"/>
      <point x="208" y="705" type="line"/>
      <point x="167" y="705" type="line" smooth="yes"/>
      <point x="147" y="705"/>
      <point x="89" y="708"/>
      <point x="51" y="710" type="curve"/>
      <point x="46" y="658" type="line"/>
      <point x="162" y="641" type="line"/>
      <point x="124" y="673" type="line"/>
      <point x="126" y="658"/>
      <point x="136" y="590"/>
      <point x="136" y="570" type="curve"/>
      <point x="136" y="2" type="line" smooth="yes"/>
      <point x="136" y="-101"/>
      <point x="106" y="-144"/>
      <point x="34" y="-144" type="curve"/>
    </contour>
  </outline>
</glyph>
<glyph name="Gstroke" format="2">
  <advance width="756.9"/>
  <unicode hex="01E4"/>
  <anchor x="420" y="0" name="bottom"/>
  <anchor x="418" y="720" name="top"/>
  <outline>
    <contour>
      <point x="403" y="-15" type="curve" smooth="yes"/>
      <point x="489" y="-15"/>
      <point x="565" y="3"/>
      <point x="632" y="19" type="curve"/>
      <point x="632" y="162" type="line" smooth="yes"/>
      <point x="632" y="204"/>
      <point x="637" y="264"/>
      <point x="641" y="315" type="curve"/>
      <point x="623" y="332" type="line"/>
      <point x="600" y="331"/>
      <point x="569" y="329"/>
      <point x="556" y="329" type="curve" smooth="yes"/>
      <point x="445" y="329" type="line"/>
      <point x="440" y="274" type="line"/>
      <point x="580" y="263" type="line"/>
      <point x="545" y="296" type="line"/>
      <point x="548" y="274"/>
      <point x="556" y="220"/>
      <point x="556" y="194" type="curve" smooth="yes"/>
      <point x="556" y="128" type="line" smooth="yes"/>
      <point x="556" y="113"/>
      <point x="545" y="66"/>
      <point x="538" y="36" type="curve"/>
      <point x="564" y="68" type="line"/>
      <point x="516" y="52"/>
      <point x="447" y="40"/>
      <point x="400" y="40" type="curve" smooth="yes"/>
      <point x="244" y="40"/>
      <point x="167" y="179"/>
      <point x="167" y="353" type="curve" smooth="yes"/>
      <point x="167" y="528"/>
      <point x="243" y="665"/>
      <point x="400" y="665" type="curve" smooth="yes"/>
      <point x="450" y="665"/>
      <point x="517" y="650"/>
      <point x="563" y="634" type="curve"/>
      <point x="535" y="666" type="line"/>
      <point x="542" y="644"/>
      <point x="555" y="604"/>
      <point x="555" y="590" type="curve" smooth="yes"/>
      <point x="555" y="544" type="line"/>
      <point x="613" y="540" type="line"/>
      <point x="623" y="686" type="line"/>
      <point x="555" y="702"/>
      <point x="490" y="720"/>
      <point x="403" y="720" type="curve" smooth="yes"/>
      <point x="184" y="720"/>
      <point x="72" y="570"/>
      <point x="72" y="352" type="curve" smooth="yes"/>
      <point x="72" y="134"/>
      <point x="184" y="-15"/>
    </contour>
    <component base="barcomp" xOffset="324" yOffset="-426"/>
  </outline>
</glyph>
<glyph name="jdotless" format="2">
  <advance width="264.7"/>
  <unicode hex="0237"/>
  <anchor x="118" y="494" name="top"/>
  <outline>
    <contour>
      <point x="67" y="-235" type="line"/>
      <point x="117" y="-155"/>
      <point x="183" y="-39"/>
      <point x="183" y="-10" type="curve" smooth="yes"/>
      <point x="183" y="326" type="line" smooth="yes"/>
      <point x="183" y="373"/>
      <point x="187" y="446"/>
      <point x="190" y="476" type="curve"/>
      <point x="171" y="494" type="line"/>
      <point x="27" y="494" type="line"/>
      <point x="22" y="442" type="line"/>
      <point x="132" y="423" type="line"/>
      <point x="93" y="469" type="line"/>
      <point x="98" y="439"/>
      <point x="108" y="381"/>
      <point x="108" y="356" type="curve" smooth="yes"/>
      <point x="108" y="117" type="line" smooth="yes"/>
      <point x="108" y="81"/>
      <point x="108" y="41"/>
      <point x="108" y="21" type="curve" smooth="yes"/>
      <point x="108" y="-8"/>
      <point x="65" y="-131"/>
      <point x="32" y="-215" type="curve"/>
    </contour>
  </outline>
</glyph>
<glyph name="nhookleft" format="2">
  <advance width="601.3"/>
  <unicode hex="0272"/>
  <outline>
    <contour>
      <point x="106" y="2" type="line"/>
      <point x="106" y="-90"/>
      <point x="81" y="-144"/>
      <point x="-14" y="-144" type="curve"/>
      <point x="-15" y="-194" type="line"/>
      <point x="116" y="-194"/>
      <point x="181" y="-109"/>
      <point x="181" y="-3" type="curve"/>
      <point x="181" y="275" type="line"/>
      <point x="181" y="374"/>
      <point x="230" y="446"/>
      <point x="312" y="446" type="curve" smooth="yes"/>
      <point x="399" y="446"/>
      <point x="418" y="360"/>
      <point x="418" y="273" type="curve" smooth="yes"/>
      <point x="418" y="134" type="line" smooth="yes"/>
      <point x="418" y="100"/>
      <point x="409" y="64"/>
      <point x="402" y="44" type="curve"/>
      <point x="440" y="67" type="line"/>
      <point x="339" y="43" type="line"/>
      <point x="344" y="-5" type="line"/>
      <point x="378" y="-3"/>
      <point x="436" y="0"/>
      <point x="445" y="0" type="curve"/>
      <point x="573" y="0" type="line"/>
      <point x="579" y="52" type="line"/>
      <point x="467" y="62" type="line"/>
      <point x="503" y="35" type="line"/>
      <point x="499" y="61"/>
      <point x="493" y="115"/>
      <point x="493" y="164" type="curve" smooth="yes"/>
      <point x="493" y="271" type="line" smooth="yes"/>
      <point x="493" y="411"/>
      <point x="465" y="503"/>
      <point x="324" y="503" type="curve" smooth="yes"/>
      <point x="247" y="503"/>
      <point x="189" y="459"/>
      <point x="159" y="384" type="curve"/>
      <point x="182" y="326" type="line"/>
      <point x="168" y="476" type="line"/>
      <point x="149" y="494" type="line"/>
      <point x="114" y="494" type="line"/>
      <point x="105" y="494"/>
      <point x="55" y="496"/>
      <point x="25" y="498" type="curve"/>
      <point x="20" y="447" type="line"/>
      <point x="130" y="423" type="line"/>
      <point x="89" y="469" type="line"/>
      <point x="93" y="448"/>
      <point x="106" y="381"/>
      <point x="106" y="356" type="curve"/>
    </contour>
  </outline>
</glyph>
<glyph name="commaturnedmod" format="2">
  <advance width="231.8"/>
  <unicode hex="02BB"/>
  <outline>
    <contour>
      <point x="164" y="734" type="line"/>
      <point x="78" y="713"/>
      <point x="36" y="623"/>
      <point x="36" y="544" type="curve" smooth="yes"/>
      <point x="36" y="498"/>
      <point x="52" y="456"/>
      <point x="98" y="456" type="curve" smooth="yes"/>
      <point x="135" y="456"/>
      <point x="158" y="486"/>
      <point x="158" y="524" type="curve" smooth="yes"/>
      <point x="158" y="568"/>
      <point x="129" y="604"/>
      <point x="77" y="591" type="curve"/>
      <point x="108" y="575" type="line"/>
      <point x="95" y="627"/>
      <point x="126" y="676"/>
      <point x="174" y="698" type="curve"/>
    </contour>
  </outline>
</glyph>
<glyph name="apostrophemod" format="2">
  <advance width="213.4"/>
  <unicode hex="02BC"/>
  <anchor x="109" y="537" name="_topleft"/>
  <outline>
    <contour>
      <point x="55" y="523" type="line"/>
      <point x="123" y="547"/>
      <point x="155" y="627"/>
      <point x="155" y="699" type="curve" smooth="yes"/>
      <point x="155" y="748"/>
      <point x="136" y="788"/>
      <point x="90" y="788" type="curve" smooth="yes"/>
      <point x="54" y="788"/>
      <point x="27" y="757"/>
      <point x="27" y="721" type="curve" smooth="yes"/>
      <point x="27" y="677"/>
      <point x="65" y="646"/>
      <point x="114" y="662" type="curve"/>
      <point x="86" y="680" type="line"/>
      <point x="93" y="634"/>
      <point x="86" y="588"/>
      <point x="40" y="551" type="curve"/>
    </contour>
  </outline>
</glyph>
<glyph name="ringhalfright" format="2">
  <advance width="204.3"/>
  <unicode hex="02BE"/>
  <outline>
    <contour>
      <point x="63" y="545" type="line"/>
      <point x="123" y="545"/>
      <point x="151" y="579"/>
      <point x="151" y="629" type="curve" smooth="yes"/>
      <point x="151" y="681"/>
      <point x="123" y="715"/>
      <point x="63" y="715" type="curve"/>
      <point x="63" y="678" type="line"/>
      <point x="95" y="678"/>
      <point x="107" y="656"/>
      <point x="107" y="629" type="curve" smooth="yes"/>
      <point x="107" y="604"/>
      <point x="95" y="581"/>
      <point x="63" y="581" type="curve"/>
    </contour>
  </outline>
</glyph>
<glyph name="ringhalfleft" format="2">
  <advance width="204.3"/>
  <unicode hex="02BF"/>
  <outline>
    <contour>
      <point x="142" y="545" type="curve"/>
      <point x="142" y="581" type="line"/>
      <point x="110" y="581"/>
      <point x="98" y="604"/>
      <point x="98" y="630" type="curve" smooth="yes"/>
      <point x="98" y="656"/>
      <point x="110" y="678"/>
      <point x="142" y="678" type="curve"/>
      <point x="142" y="715" type="line"/>
      <point x="81" y="715"/>
      <point x="53" y="681"/>
      <point x="53" y="630" type="curve" smooth="yes"/>
      <point x="53" y="579"/>
      <point x="81" y="545"/>
    </contour>
  </outline>
</glyph>
<glyph name="circumflexcomb" format="2">
  <unicode hex="0302"/>
  <anchor x="191" y="494" name="_top"/>
  <anchor x="191" y="709" name="top"/>
  <outline>
    <contour>
      <point x="323" y="539" type="line"/>
      <point x="353" y="567" type="line"/>
      <point x="218" y="698" type="line"/>
      <point x="184" y="698" type="line"/>
      <point x="147" y="669" type="line"/>
    </contour>
    <contour>
      <point x="59" y="539" type="line"/>
      <point x="235" y="669" type="line"/>
      <point x="198" y="698" type="line"/>
      <point x="163" y="698" type="line"/>
      <point x="29" y="567" type="line"/>
    </contour>
  </outline>
</glyph>
<glyph name="tildecomb" format="2">
  <unicode hex="0303"/>
  <anchor x="279" y="494" name="_top"/>
  <anchor x="280" y="629" name="top"/>
  <outline>
    <contour>
      <point x="143" y="560" type="line"/>
      <point x="154" y="583"/>
      <point x="176" y="613"/>
      <point x="196" y="613" type="curve" smooth="yes"/>
      <point x="236" y="613"/>
      <point x="310" y="572"/>
      <point x="349" y="572" type="curve" smooth="yes"/>
      <point x="387" y="572"/>
      <point x="427" y="660"/>
      <point x="432" y="670" type="curve"/>
      <point x="397" y="691" type="line"/>
      <point x="386" y="669"/>
      <point x="364" y="640"/>
      <point x="344" y="640" type="curve" smooth="yes"/>
      <point x="304" y="640"/>
      <point x="229" y="681"/>
      <point x="189" y="681" type="curve" smooth="yes"/>
      <point x="161" y="681"/>
      <point x="126" y="624"/>
      <point x="108" y="581" type="curve"/>
    </contour>
  </outline>
</glyph>
<glyph name="dotaccentcomb" format="2">
  <unicode hex="0307"/>
  <anchor x="116" y="494" name="_top"/>
  <anchor x="116" y="689" name="top"/>
  <outline>
    <contour>
      <point x="116" y="561" type="curve" smooth="yes"/>
      <point x="154" y="561"/>
      <point x="174" y="586"/>
      <point x="174" y="623" type="curve" smooth="yes"/>
      <point x="174" y="664"/>
      <point x="153" y="687"/>
      <point x="116" y="687" type="curve" smooth="yes"/>
      <point x="78" y="687"/>
      <point x="58" y="661"/>
      <point x="58" y="623" type="curve" smooth="yes"/>
      <point x="58" y="586"/>
      <point x="78" y="561"/>
    </contour>
  </outline>
</glyph>
<glyph name="dieresiscomb" format="2">
  <unicode hex="0308"/>
  <anchor x="205" y="494" name="_top"/>
  <anchor x="205" y="657" name="top"/>
  <outline>
    <contour>
      <point x="295" y="564" type="curve" smooth="yes"/>
      <point x="329" y="564"/>
      <point x="349" y="585"/>
      <point x="349" y="621" type="curve" smooth="yes"/>
      <point x="349" y="657"/>
      <point x="328" y="676"/>
      <point x="295" y="676" type="curve" smooth="yes"/>
      <point x="261" y="676"/>
      <point x="240" y="654"/>
      <point x="240" y="621" type="curve" smooth="yes"/>
      <point x="240" y="585"/>
      <point x="260" y="564"/>
    </contour>
    <contour>
      <point x="114" y="564" type="curve" smooth="yes"/>
      <point x="147" y="564"/>
      <point x="168" y="585"/>
      <point x="168" y="621" type="curve" smooth="yes"/>
      <point x="168" y="657"/>
      <point x="146" y="676"/>
      <point x="114" y="676" type="curve" smooth="yes"/>
      <point x="80" y="676"/>
      <point x="59" y="654"/>
      <point x="59" y="621" type="curve" smooth="yes"/>
      <point x="59" y="585"/>
      <point x="79" y="564"/>
    </contour>
  </outline>
</glyph>
<glyph name="hookabovecomb" format="2">
  <unicode hex="0309"/>
  <anchor x="126" y="494" name="_top"/>
  <anchor x="126" y="745" name="top"/>
  <outline>
    <contour>
      <point x="116" y="549" type="curve" smooth="yes"/>
      <point x="127" y="549"/>
      <point x="137" y="552"/>
      <point x="142" y="555" type="curve"/>
      <point x="139" y="561"/>
      <point x="136" y="571"/>
      <point x="136" y="578" type="curve" smooth="yes"/>
      <point x="136" y="603"/>
      <point x="207" y="611"/>
      <point x="207" y="665" type="curve" smooth="yes"/>
      <point x="207" y="711"/>
      <point x="161" y="734"/>
      <point x="119" y="734" type="curve" smooth="yes"/>
      <point x="82" y="734"/>
      <point x="51" y="723"/>
      <point x="46" y="721" type="curve"/>
      <point x="62" y="679" type="line"/>
      <point x="77" y="683"/>
      <point x="94" y="687"/>
      <point x="106" y="687" type="curve" smooth="yes"/>
      <point x="131" y="687"/>
      <point x="142" y="677"/>
      <point x="142" y="665" type="curve" smooth="yes"/>
      <point x="142" y="628"/>
      <point x="73" y="629"/>
      <point x="73" y="586" type="curve" smooth="yes"/>
      <point x="73" y="578"/>
      <point x="75" y="549"/>
    </contour>
  </outline>
</glyph>
<glyph name="ringcomb" format="2">
  <unicode hex="030A"/>
  <anchor x="143" y="494" name="_top"/>
  <anchor x="143" y="665" name="top"/>
  <outline>
    <contour>
      <point x="143" y="545" type="curve" smooth="yes"/>
      <point x="203" y="545"/>
      <point x="231" y="579"/>
      <point x="231" y="629" type="curve" smooth="yes"/>
      <point x="231" y="681"/>
      <point x="203" y="715"/>
      <point x="143" y="715" type="curve" smooth="yes"/>
      <point x="83" y="715"/>
      <point x="53" y="681"/>
      <point x="53" y="629" type="curve" smooth="yes"/>
      <point x="53" y="579"/>
      <point x="83" y="545"/>
    </contour>
    <contour>
      <point x="143" y="581" type="curve" smooth="yes"/>
      <point x="113" y="581"/>
      <point x="100" y="604"/>
      <point x="100" y="629" type="curve" smooth="yes"/>
      <point x="100" y="656"/>
      <point x="113" y="678"/>
      <point x="143" y="678" type="curve" smooth="yes"/>
      <point x="175" y="678"/>
      <point x="187" y="656"/>
      <point x="187" y="629" type="curve" smooth="yes"/>
      <point x="187" y="604"/>
      <point x="175" y="581"/>
    </contour>
  </outline>
</glyph>
<glyph name="hungarumlautcomb" format="2">
  <unicode hex="030B"/>
  <anchor x="171" y="494" name="_top"/>
  <anchor x="225" y="748" name="top"/>
  <outline>
    <contour>
      <point x="61" y="561" type="line"/>
      <point x="246" y="696" type="line"/>
      <point x="200" y="747" type="line"/>
      <point x="28" y="596" type="line"/>
    </contour>
    <contour>
      <point x="237" y="559" type="line"/>
      <point x="419" y="678" type="line"/>
      <point x="376" y="731" type="line"/>
      <point x="206" y="596" type="line"/>
    </contour>
  </outline>
</glyph>
<glyph name="caroncomb" format="2">
  <unicode hex="030C"/>
  <anchor x="191" y="494" name="_top"/>
  <anchor x="191" y="643" name="top"/>
  <outline>
    <contour>
      <point x="52" y="701" type="line"/>
      <point x="22" y="673" type="line"/>
      <point x="157" y="542" type="line"/>
      <point x="191" y="542" type="line"/>
      <point x="228" y="571" type="line"/>
    </contour>
    <contour>
      <point x="316" y="701" type="line"/>
      <point x="140" y="571" type="line"/>
      <point x="177" y="542" type="line"/>
      <point x="212" y="542" type="line"/>
      <point x="346" y="673" type="line"/>
    </contour>
  </outline>
</glyph>
<glyph name="breveinvertedcomb" format="2">
  <unicode hex="0311"/>
  <anchor x="177" y="494" name="_top"/>
  <anchor x="177" y="675" name="top"/>
  <outline>
    <contour>
      <point x="312" y="559" type="line"/>
      <point x="295" y="637"/>
      <point x="236" y="676"/>
      <point x="177" y="676" type="curve" smooth="yes"/>
      <point x="119" y="676"/>
      <point x="60" y="637"/>
      <point x="43" y="559" type="curve"/>
      <point x="79" y="547" type="line"/>
      <point x="101" y="591"/>
      <point x="139" y="613"/>
      <point x="177" y="613" type="curve" smooth="yes"/>
      <point x="215" y="613"/>
      <point x="253" y="591"/>
      <point x="275" y="547" type="curve"/>
    </contour>
  </outline>
</glyph>
<glyph name="commaturnedabovecomb" format="2">
  <unicode hex="0312"/>
  <anchor x="119" y="494" name="_top"/>
  <anchor x="119" y="742" name="top"/>
  <outline>
    <contour>
      <point x="101" y="741" type="line"/>
      <point x="81" y="707"/>
      <point x="55" y="646"/>
      <point x="55" y="606" type="curve" smooth="yes"/>
      <point x="55" y="565"/>
      <point x="74" y="543"/>
      <point x="106" y="543" type="curve" smooth="yes"/>
      <point x="129" y="543"/>
      <point x="154" y="560"/>
      <point x="154" y="598" type="curve" smooth="yes"/>
      <point x="154" y="644"/>
      <point x="117" y="655"/>
      <point x="101" y="654" type="curve"/>
      <point x="128" y="631" type="line"/>
      <point x="115" y="647"/>
      <point x="131" y="708"/>
      <point x="137" y="729" type="curve"/>
    </contour>
  </outline>
</glyph>
<glyph name="hookcomb" format="2">
  <advance width="215.1"/>
  <unicode hex="0321"/>
  <outline>
    <contour>
      <point x="67" y="-235" type="line"/>
      <point x="114" y="-160"/>
      <point x="185" y="-42"/>
      <point x="185" y="-10" type="curve" smooth="yes"/>
      <point x="185" y="117" type="line"/>
      <point x="123" y="117" type="line"/>
      <point x="123" y="21" type="line" smooth="yes"/>
      <point x="123" y="-12"/>
      <point x="69" y="-136"/>
      <point x="32" y="-215" type="curve"/>
    </contour>
  </outline>
</glyph>
<glyph name="cedillacomb" format="2">
  <unicode hex="0327"/>
  <anchor x="118" y="0" name="_bottom"/>
  <anchor x="118" y="-247" name="bottom"/>
  <outline>
    <contour>
      <point x="50" y="-247" type="line"/>
      <point x="96" y="-247"/>
      <point x="130" y="-238"/>
      <point x="154" y="-220" type="curve" smooth="yes"/>
      <point x="181" y="-199"/>
      <point x="194" y="-169"/>
      <point x="194" y="-146" type="curve" smooth="yes"/>
      <point x="194" y="-110"/>
      <point x="168" y="-70"/>
      <point x="88" y="-56" type="curve"/>
      <point x="102" y="-97" type="line"/>
      <point x="139" y="17" type="line"/>
      <point x="97" y="17" type="line"/>
      <point x="70" y="-112" type="line"/>
      <point x="79" y="-118" type="line"/>
      <point x="119" y="-119"/>
      <point x="140" y="-132"/>
      <point x="141" y="-151" type="curve" smooth="yes"/>
      <point x="143" y="-182"/>
      <point x="98" y="-209"/>
      <point x="43" y="-212" type="curve"/>
    </contour>
  </outline>
</glyph>
<glyph name="ogonekcomb" format="2">
  <unicode hex="0328"/>
  <anchor x="216" y="0" name="_ogonek"/>
  <outline>
    <contour>
      <point x="159" y="-210" type="curve" smooth="yes"/>
      <point x="179" y="-210"/>
      <point x="202" y="-206"/>
      <point x="220" y="-199" type="curve"/>
      <point x="209" y="-156" type="line"/>
      <point x="198" y="-159"/>
      <point x="186" y="-161"/>
      <point x="175" y="-161" type="curve" smooth="yes"/>
      <point x="134" y="-161"/>
      <point x="115" y="-141"/>
      <point x="115" y="-115" type="curve" smooth="yes"/>
      <point x="115" y="-78"/>
      <point x="153" y="-25"/>
      <point x="216" y="0" type="curve"/>
      <point x="151" y="9" type="line"/>
      <point x="69" y="-31"/>
      <point x="43" y="-75"/>
      <point x="43" y="-119" type="curve" smooth="yes"/>
      <point x="43" y="-189"/>
      <point x="109" y="-210"/>
    </contour>
  </outline>
</glyph>
<glyph name="Delta" format="2">
  <advance width="697.9"/>
  <unicode hex="0394"/>
  <outline>
    <contour>
      <point x="560" y="17" type="curve"/>
      <point x="663" y="51" type="line"/>
      <point x="646" y="79"/>
      <point x="626" y="113"/>
      <point x="618" y="132" type="curve" smooth="yes"/>
      <point x="366" y="716" type="line"/>
      <point x="317" y="703" type="line"/>
      <point x="322" y="612" type="line"/>
      <point x="528" y="130" type="line" smooth="yes"/>
      <point x="537" y="109"/>
      <point x="550" y="54"/>
    </contour>
    <contour>
      <point x="61" y="-17" type="line"/>
      <point x="638" y="-17" type="line"/>
      <point x="663" y="51" type="line"/>
      <point x="589" y="40" type="line"/>
      <point x="56" y="45" type="line"/>
      <point x="33" y="48" type="line"/>
    </contour>
    <contour>
      <point x="112" y="15" type="line"/>
      <point x="120" y="47"/>
      <point x="133" y="99"/>
      <point x="139" y="114" type="curve" smooth="yes"/>
      <point x="356" y="662" type="line"/>
      <point x="317" y="703" type="line"/>
      <point x="99" y="162" type="line" smooth="yes"/>
      <point x="92" y="146"/>
      <point x="57" y="87"/>
      <point x="33" y="48" type="curve"/>
    </contour>
  </outline>
</glyph>
<glyph name="pi" format="2">
  <advance width="607.4"/>
  <unicode hex="03C0"/>
  <outline>
    <contour>
      <point x="53" y="380" type="line"/>
      <point x="73" y="401"/>
      <point x="107" y="429"/>
      <point x="125" y="429" type="curve" smooth="yes"/>
      <point x="179" y="429"/>
      <point x="430" y="412"/>
      <point x="489" y="412" type="curve" smooth="yes"/>
      <point x="518" y="412"/>
      <point x="566" y="460"/>
      <point x="594" y="496" type="curve"/>
      <point x="562" y="533" type="line"/>
      <point x="541" y="518"/>
      <point x="507" y="497"/>
      <point x="489" y="497" type="curve" smooth="yes"/>
      <point x="435" y="497"/>
      <point x="192" y="514"/>
      <point x="122" y="514" type="curve" smooth="yes"/>
      <point x="93" y="514"/>
      <point x="43" y="455"/>
      <point x="14" y="411" type="curve"/>
    </contour>
    <contour>
      <point x="132" y="0" type="line"/>
      <point x="217" y="0" type="line"/>
      <point x="218" y="39"/>
      <point x="214" y="150"/>
      <point x="214" y="167" type="curve" smooth="yes"/>
      <point x="214" y="448" type="line"/>
      <point x="157" y="448" type="line"/>
      <point x="145" y="137" type="line"/>
      <point x="144" y="122"/>
      <point x="133" y="54"/>
      <point x="125" y="7" type="curve"/>
    </contour>
    <contour>
      <point x="527" y="-15" type="curve"/>
      <point x="546" y="24" type="line"/>
      <point x="486" y="54"/>
      <point x="483" y="80"/>
      <point x="483" y="167" type="curve"/>
      <point x="485" y="448" type="line"/>
      <point x="422" y="448" type="line"/>
      <point x="413" y="88" type="line"/>
      <point x="413" y="24"/>
      <point x="473" y="5"/>
    </contour>
  </outline>
</glyph>
<glyph name="zerowidthnonjoiner" format="2">
  <advance width="270.6"/>
  <unicode hex="200C"/>
  <outline>
    <contour>
      <point x="97" y="-244" type="line"/>
      <point x="174" y="-244" type="line"/>
      <point x="174" y="756" type="line"/>
      <point x="97" y="756" type="line"/>
    </contour>
  </outline>
</glyph>
<glyph name="zerowidthjoiner" format="2">
  <advance width="341"/>
  <unicode hex="200D"/>
  <outline>
    <contour>
      <point x="76" y="-244" type="line"/>
      <point x="153" y="-244" type="line"/>
      <point x="153" y="683" type="line"/>
      <point x="329" y="683" type="line"/>
      <point x="329" y="756" type="line"/>
      <point x="76" y="756" type="line"/>
    </contour>
  </outline>
</glyph>
<glyph name="quoteleft" format="2">
  <advance width="326.7"/>
  <unicode hex="2018"/>
  <outline>
    <contour>
      <point x="204" y="796" type="line"/>
      <point x="132" y="770"/>
      <point x="96" y="678"/>
      <point x="96" y="595" type="curve" smooth="yes"/>
      <point x="96" y="540"/>
      <point x="117" y="493"/>
      <point x="167" y="493" type="curve" smooth="yes"/>
      <point x="207" y="493"/>
      <point x="235" y="530"/>
      <point x="235" y="569" type="curve" smooth="yes"/>
      <point x="235" y="621"/>
      <point x="193" y="654"/>
      <point x="142" y="636" type="curve"/>
      <point x="171" y="619" type="line"/>
      <point x="163" y="668"/>
      <point x="171" y="723"/>
      <point x="221" y="765" type="curve"/>
    </contour>
  </outline>
</glyph>
<glyph name="quoteright" format="2">
  <advance width="326.7"/>
  <unicode hex="2019"/>
  <outline>
    <contour>
      <point x="123" y="468" type="line"/>
      <point x="195" y="494"/>
      <point x="231" y="586"/>
      <point x="231" y="669" type="curve" smooth="yes"/>
      <point x="231" y="724"/>
      <point x="210" y="771"/>
      <point x="160" y="771" type="curve" smooth="yes"/>
      <point x="120" y="771"/>
      <point x="92" y="734"/>
      <point x="92" y="695" type="curve" smooth="yes"/>
      <point x="92" y="643"/>
      <point x="134" y="610"/>
      <point x="185" y="628" type="curve"/>
      <point x="156" y="645" type="line"/>
      <point x="164" y="596"/>
      <point x="156" y="541"/>
      <point x="106" y="499" type="curve"/>
    </contour>
  </outline>
</glyph>
<glyph name="bullet" format="2">
  <advance width="358.7"/>
  <unicode hex="2022"/>
  <outline>
    <contour>
      <point x="179" y="169" type="curve" smooth="yes"/>
      <point x="229" y="169"/>
      <point x="258" y="203"/>
      <point x="258" y="253" type="curve" smooth="yes"/>
      <point x="258" y="307"/>
      <point x="229" y="339"/>
      <point x="179" y="339" type="curve" smooth="yes"/>
      <point x="129" y="339"/>
      <point x="101" y="303"/>
      <point x="101" y="253" type="curve" smooth="yes"/>
      <point x="101" y="203"/>
      <point x="129" y="169"/>
    </contour>
  </outline>
</glyph>
<glyph name="guilsinglright" format="2">
  <advance width="347.6"/>
  <unicode hex="203A"/>
  <outline>
    <contour>
      <point x="116" y="35" type="line"/>
      <point x="283" y="252" type="line"/>
      <point x="116" y="468" type="line"/>
      <point x="79" y="444" type="line"/>
      <point x="203" y="222" type="line"/>
      <point x="203" y="282" type="line"/>
      <point x="79" y="60" type="line"/>
    </contour>
  </outline>
</glyph>
<glyph name="ninesuperior" format="2">
  <advance width="384.6"/>
  <unicode hex="2079"/>
  <outline>
    <contour>
      <point x="70" y="265" type="line"/>
      <point x="253" y="301"/>
      <point x="335" y="445"/>
      <point x="335" y="574" type="curve" smooth="yes"/>
      <point x="335" y="666"/>
      <point x="282" y="731"/>
      <point x="186" y="731" type="curve" smooth="yes"/>
      <point x="107" y="731"/>
      <point x="43" y="674"/>
      <point x="43" y="601" type="curve" smooth="yes"/>
      <point x="43" y="523"/>
      <point x="97" y="478"/>
      <point x="174" y="478" type="curve" smooth="yes"/>
      <point x="194" y="478"/>
      <point x="207" y="480"/>
      <point x="219" y="485" type="curve"/>
      <point x="215" y="521" type="line"/>
      <point x="208" y="520"/>
      <point x="197" y="519"/>
      <point x="186" y="519" type="curve" smooth="yes"/>
      <point x="148" y="519"/>
      <point x="122" y="557"/>
      <point x="122" y="601" type="curve" smooth="yes"/>
      <point x="122" y="643"/>
      <point x="141" y="685"/>
      <point x="185" y="685" type="curve" smooth="yes"/>
      <point x="235" y="685"/>
      <point x="256" y="629"/>
      <point x="256" y="574" type="curve" smooth="yes"/>
      <point x="256" y="473"/>
      <point x="217" y="350"/>
      <point x="58" y="304" type="curve"/>
    </contour>
  </outline>
</glyph>
<glyph name="zeroinferior" format="2">
  <advance width="411.2"/>
  <unicode hex="2080"/>
  <outline>
    <contour>
      <point x="206" y="-106" type="curve" smooth="yes"/>
      <point x="316" y="-106"/>
      <point x="360" y="-11"/>
      <point x="360" y="98" type="curve"/>
      <point x="360" y="206"/>
      <point x="316" y="301"/>
      <point x="206" y="301" type="curve" smooth="yes"/>
      <point x="95" y="301"/>
      <point x="51" y="207"/>
      <point x="51" y="98" type="curve"/>
      <point x="51" y="-12"/>
      <point x="95" y="-106"/>
    </contour>
    <contour>
      <point x="206" y="-61" type="curve" smooth="yes"/>
      <point x="145" y="-61"/>
      <point x="132" y="25"/>
      <point x="132" y="98" type="curve"/>
      <point x="132" y="171"/>
      <point x="145" y="257"/>
      <point x="206" y="257" type="curve" smooth="yes"/>
      <point x="267" y="257"/>
      <point x="278" y="170"/>
      <point x="278" y="98" type="curve" smooth="yes"/>
      <point x="278" y="26"/>
      <point x="267" y="-61"/>
    </contour>
  </outline>
</glyph>
<glyph name="twoinferior" format="2">
  <advance width="379.8"/>
  <unicode hex="2082"/>
  <outline>
    <contour>
      <point x="310" y="-102" type="line"/>
      <point x="326" y="-90" type="line"/>
      <point x="331" y="13" type="line"/>
      <point x="290" y="16" type="line"/>
      <point x="286" y="-9" type="line"/>
      <point x="280" y="-27"/>
      <point x="273" y="-46"/>
      <point x="266" y="-64" type="curve"/>
      <point x="307" y="-31" type="line"/>
      <point x="282" y="-35"/>
      <point x="238" y="-41"/>
      <point x="225" y="-41" type="curve" smooth="yes"/>
      <point x="99" y="-41" type="line"/>
      <point x="100" y="-66" type="line"/>
      <point x="268" y="76"/>
      <point x="311" y="129"/>
      <point x="311" y="199" type="curve" smooth="yes"/>
      <point x="311" y="264"/>
      <point x="262" y="301"/>
      <point x="179" y="301" type="curve" smooth="yes"/>
      <point x="134" y="301"/>
      <point x="99" y="294"/>
      <point x="59" y="279" type="curve"/>
      <point x="65" y="182" type="line"/>
      <point x="106" y="184" type="line"/>
      <point x="106" y="211" type="line" smooth="yes"/>
      <point x="106" y="219"/>
      <point x="113" y="250"/>
      <point x="118" y="268" type="curve"/>
      <point x="91" y="224" type="line"/>
      <point x="119" y="245"/>
      <point x="142" y="253"/>
      <point x="169" y="253" type="curve" smooth="yes"/>
      <point x="207" y="253"/>
      <point x="232" y="230"/>
      <point x="232" y="191" type="curve" smooth="yes"/>
      <point x="232" y="138"/>
      <point x="202" y="100"/>
      <point x="45" y="-47" type="curve"/>
      <point x="54" y="-100" type="line"/>
      <point x="239" y="-100" type="line"/>
    </contour>
  </outline>
</glyph>
<glyph name="eightinferior" format="2">
  <advance width="380.3"/>
  <unicode hex="2088"/>
  <outline>
    <contour>
      <point x="190" y="-106" type="curve" smooth="yes"/>
      <point x="263" y="-106"/>
      <point x="332" y="-72"/>
      <point x="332" y="-1" type="curve" smooth="yes"/>
      <point x="332" y="68"/>
      <point x="274" y="99"/>
      <point x="221" y="127" type="curve" smooth="yes"/>
      <point x="175" y="151"/>
      <point x="134" y="172"/>
      <point x="134" y="216" type="curve" smooth="yes"/>
      <point x="134" y="248"/>
      <point x="159" y="273"/>
      <point x="191" y="273" type="curve" smooth="yes"/>
      <point x="224" y="273"/>
      <point x="248" y="249"/>
      <point x="248" y="214" type="curve" smooth="yes"/>
      <point x="248" y="171"/>
      <point x="211" y="131"/>
      <point x="173" y="108" type="curve"/>
      <point x="208" y="88" type="line"/>
      <point x="275" y="121"/>
      <point x="319" y="168"/>
      <point x="319" y="215" type="curve" smooth="yes"/>
      <point x="319" y="278"/>
      <point x="255" y="313"/>
      <point x="191" y="313" type="curve" smooth="yes"/>
      <point x="125" y="313"/>
      <point x="62" y="278"/>
      <point x="62" y="216" type="curve" smooth="yes"/>
      <point x="62" y="142"/>
      <point x="121" y="112"/>
      <point x="172" y="86" type="curve" smooth="yes"/>
      <point x="210" y="66"/>
      <point x="259" y="45"/>
      <point x="259" y="-3" type="curve" smooth="yes"/>
      <point x="259" y="-41"/>
      <point x="230" y="-66"/>
      <point x="191" y="-66" type="curve" smooth="yes"/>
      <point x="150" y="-66"/>
      <point x="122" y="-40"/>
      <point x="122" y="-1" type="curve" smooth="yes"/>
      <point x="122" y="40"/>
      <point x="158" y="80"/>
      <point x="219" y="109" type="curve"/>
      <point x="181" y="135" type="line"/>
      <point x="132" y="112"/>
      <point x="48" y="68"/>
      <point x="48" y="-1" type="curve" smooth="yes"/>
      <point x="48" y="-72"/>
      <point x="117" y="-106"/>
    </contour>
  </outline>
</glyph>
<glyph name="nineinferior" format="2">
  <advance width="384.6"/>
  <unicode hex="2089"/>
  <outline>
    <contour>
      <point x="70" y="-165" type="line"/>
      <point x="253" y="-130"/>
      <point x="335" y="16"/>
      <point x="335" y="144" type="curve" smooth="yes"/>
      <point x="335" y="236"/>
      <point x="282" y="301"/>
      <point x="186" y="301" type="curve" smooth="yes"/>
      <point x="107" y="301"/>
      <point x="43" y="244"/>
      <point x="43" y="171" type="curve" smooth="yes"/>
      <point x="43" y="93"/>
      <point x="97" y="48"/>
      <point x="174" y="48" type="curve" smooth="yes"/>
      <point x="195" y="48"/>
      <point x="207" y="50"/>
      <point x="219" y="55" type="curve"/>
      <point x="215" y="91" type="line"/>
      <point x="208" y="90"/>
      <point x="197" y="89"/>
      <point x="186" y="89" type="curve" smooth="yes"/>
      <point x="148" y="89"/>
      <point x="122" y="127"/>
      <point x="122" y="171" type="curve" smooth="yes"/>
      <point x="122" y="213"/>
      <point x="141" y="255"/>
      <point x="185" y="255" type="curve" smooth="yes"/>
      <point x="235" y="255"/>
      <point x="256" y="199"/>
      <point x="256" y="144" type="curve" smooth="yes"/>
      <point x="256" y="43"/>
      <point x="217" y="-80"/>
      <point x="58" y="-126" type="curve"/>
    </contour>
  </outline>
</glyph>
<glyph name="colonsign" format="2">
  <advance width="645.1"/>
  <unicode hex="20A1"/>
  <outline>
    <contour>
      <point x="368" y="-13" type="curve" smooth="yes"/>
      <point x="442" y="-13"/>
      <point x="505" y="3"/>
      <point x="562" y="17" type="curve"/>
      <point x="556" y="152" type="line"/>
      <point x="504" y="150" type="line"/>
      <point x="504" y="136"/>
      <point x="503" y="115"/>
      <point x="502" y="108" type="curve"/>
      <point x="502" y="97"/>
      <point x="490" y="59"/>
      <point x="480" y="34" type="curve"/>
      <point x="508" y="65" type="line"/>
      <point x="468" y="50"/>
      <point x="411" y="40"/>
      <point x="367" y="40" type="curve" smooth="yes"/>
      <point x="238" y="40"/>
      <point x="174" y="161"/>
      <point x="174" y="314" type="curve" smooth="yes"/>
      <point x="174" y="466"/>
      <point x="238" y="588"/>
      <point x="368" y="588" type="curve" smooth="yes"/>
      <point x="407" y="588"/>
      <point x="463" y="575"/>
      <point x="499" y="560" type="curve"/>
      <point x="474" y="590" type="line"/>
      <point x="479" y="571"/>
      <point x="492" y="534"/>
      <point x="492" y="523" type="curve" smooth="yes"/>
      <point x="492" y="481" type="line"/>
      <point x="545" y="477" type="line"/>
      <point x="554" y="610" type="line"/>
      <point x="497" y="624"/>
      <point x="441" y="640"/>
      <point x="368" y="640" type="curve" smooth="yes"/>
      <point x="178" y="640"/>
      <point x="82" y="505"/>
      <point x="82" y="313" type="curve" smooth="yes"/>
      <point x="82" y="119"/>
      <point x="179" y="-13"/>
    </contour>
    <contour>
      <point x="307" y="-154" type="line"/>
      <point x="314" y="15" type="line"/>
      <point x="271" y="15" type="line"/>
      <point x="264" y="-151" type="line"/>
    </contour>
    <contour>
      <point x="414" y="-154" type="line"/>
      <point x="421" y="15" type="line"/>
      <point x="378" y="15" type="line"/>
      <point x="371" y="-151" type="line"/>
    </contour>
    <contour>
      <point x="294" y="616" type="line"/>
      <point x="336" y="616" type="line"/>
      <point x="343" y="785" type="line"/>
      <point x="301" y="788" type="line"/>
    </contour>
    <contour>
      <point x="401" y="616" type="line"/>
      <point x="443" y="616" type="line"/>
      <point x="450" y="785" type="line"/>
      <point x="408" y="788" type="line"/>
    </contour>
  </outline>
</glyph>
<glyph name="franc" format="2">
  <advance width="663"/>
  <unicode hex="20A3"/>
  <outline>
    <contour>
      <point x="126" y="-5" type="line"/>
      <point x="171" y="-3"/>
      <point x="237" y="0"/>
      <point x="255" y="0" type="curve"/>
      <point x="386" y="0" type="line"/>
      <point x="394" y="50" type="line"/>
      <point x="264" y="60" type="line"/>
      <point x="302" y="23" type="line"/>
      <point x="299" y="43"/>
      <point x="290" y="110"/>
      <point x="290" y="157" type="curve"/>
      <point x="290" y="499" type="line"/>
      <point x="290" y="544"/>
      <point x="300" y="622"/>
      <point x="301" y="629" type="curve"/>
      <point x="264" y="602" type="line"/>
      <point x="424" y="602" type="line" smooth="yes"/>
      <point x="462" y="602"/>
      <point x="501" y="597"/>
      <point x="517" y="596" type="curve"/>
      <point x="484" y="617" type="line"/>
      <point x="499" y="602"/>
      <point x="520" y="576"/>
      <point x="522" y="566" type="curve"/>
      <point x="525" y="555"/>
      <point x="531" y="528"/>
      <point x="532" y="515" type="curve"/>
      <point x="587" y="519" type="line"/>
      <point x="580" y="643" type="line"/>
      <point x="562" y="659" type="line"/>
      <point x="523" y="657"/>
      <point x="466" y="655"/>
      <point x="452" y="655" type="curve" smooth="yes"/>
      <point x="238" y="655" type="line" smooth="yes"/>
      <point x="224" y="655"/>
      <point x="167" y="657"/>
      <point x="128" y="659" type="curve"/>
      <point x="123" y="608" type="line"/>
      <point x="231" y="592" type="line"/>
      <point x="192" y="628" type="line"/>
      <point x="196" y="605"/>
      <point x="206" y="549"/>
      <point x="206" y="527" type="curve" smooth="yes"/>
      <point x="206" y="129" type="line" smooth="yes"/>
      <point x="206" y="107"/>
      <point x="196" y="48"/>
      <point x="191" y="20" type="curve"/>
      <point x="231" y="64" type="line"/>
      <point x="121" y="42" type="line"/>
    </contour>
    <contour>
      <point x="75" y="146" type="line"/>
      <point x="414" y="162" type="line"/>
      <point x="412" y="202" type="line"/>
      <point x="73" y="186" type="line"/>
    </contour>
    <contour>
      <point x="470" y="235" type="line"/>
      <point x="515" y="240" type="line"/>
      <point x="514" y="265"/>
      <point x="512" y="311"/>
      <point x="512" y="345" type="curve" smooth="yes"/>
      <point x="512" y="358"/>
      <point x="513" y="398"/>
      <point x="513" y="424" type="curve"/>
      <point x="470" y="429" type="line"/>
      <point x="458" y="338" type="line"/>
      <point x="489" y="372" type="line"/>
      <point x="471" y="368"/>
      <point x="432" y="358"/>
      <point x="403" y="358" type="curve" smooth="yes"/>
      <point x="259" y="358" type="line"/>
      <point x="259" y="305" type="line"/>
      <point x="384" y="305" type="line" smooth="yes"/>
      <point x="412" y="305"/>
      <point x="482" y="298"/>
      <point x="493" y="296" type="curve"/>
      <point x="458" y="326" type="line"/>
    </contour>
  </outline>
</glyph>
<glyph name="lira" format="2">
  <advance width="682.6"/>
  <unicode hex="20A4"/>
  <outline>
    <contour>
      <point x="108" y="-5" type="line"/>
      <point x="146" y="-3"/>
      <point x="191" y="0"/>
      <point x="222" y="0" type="curve" smooth="yes"/>
      <point x="557" y="0" type="line"/>
      <point x="576" y="18" type="line"/>
      <point x="591" y="163" type="line"/>
      <point x="538" y="168" type="line"/>
      <point x="522" y="100" type="line" smooth="yes"/>
      <point x="519" y="85"/>
      <point x="499" y="56"/>
      <point x="484" y="34" type="curve"/>
      <point x="534" y="67" type="line"/>
      <point x="494" y="62"/>
      <point x="428" y="54"/>
      <point x="413" y="54" type="curve" smooth="yes"/>
      <point x="251" y="54" type="line"/>
      <point x="287" y="30" type="line"/>
      <point x="281" y="78"/>
      <point x="278" y="122"/>
      <point x="278" y="164" type="curve" smooth="yes"/>
      <point x="278" y="511" type="line" smooth="yes"/>
      <point x="278" y="574"/>
      <point x="318" y="610"/>
      <point x="389" y="610" type="curve" smooth="yes"/>
      <point x="454" y="610"/>
      <point x="515" y="585"/>
      <point x="526" y="580" type="curve"/>
      <point x="485" y="621" type="line"/>
      <point x="494" y="590"/>
      <point x="505" y="546"/>
      <point x="505" y="530" type="curve" smooth="yes"/>
      <point x="505" y="490" type="line"/>
      <point x="562" y="484" type="line"/>
      <point x="577" y="630" type="line"/>
      <point x="517" y="646"/>
      <point x="450" y="662"/>
      <point x="390" y="662" type="curve" smooth="yes"/>
      <point x="277" y="662"/>
      <point x="192" y="604"/>
      <point x="192" y="498" type="curve" smooth="yes"/>
      <point x="192" y="134" type="line" smooth="yes"/>
      <point x="192" y="114"/>
      <point x="183" y="61"/>
      <point x="180" y="40" type="curve"/>
      <point x="216" y="66" type="line"/>
      <point x="103" y="43" type="line"/>
    </contour>
    <contour>
      <point x="90" y="231" type="line"/>
      <point x="500" y="250" type="line"/>
      <point x="498" y="289" type="line"/>
      <point x="88" y="271" type="line"/>
    </contour>
    <contour>
      <point x="85" y="337" type="line"/>
      <point x="495" y="356" type="line"/>
      <point x="493" y="395" type="line"/>
      <point x="83" y="377" type="line"/>
    </contour>
  </outline>
</glyph>
<glyph name="peseta" format="2">
  <advance width="770.8"/>
  <unicode hex="20A7"/>
  <outline>
    <contour>
      <point x="114" y="-5" type="line"/>
      <point x="160" y="-3"/>
      <point x="226" y="0"/>
      <point x="243" y="0" type="curve"/>
      <point x="376" y="0" type="line"/>
      <point x="383" y="50" type="line"/>
      <point x="252" y="60" type="line"/>
      <point x="290" y="26" type="line"/>
      <point x="285" y="50"/>
      <point x="279" y="112"/>
      <point x="279" y="157" type="curve" smooth="yes"/>
      <point x="279" y="499" type="line" smooth="yes"/>
      <point x="279" y="549"/>
      <point x="287" y="609"/>
      <point x="290" y="628" type="curve"/>
      <point x="226" y="655" type="line"/>
      <point x="213" y="655"/>
      <point x="156" y="657"/>
      <point x="117" y="659" type="curve"/>
      <point x="112" y="608" type="line"/>
      <point x="219" y="592" type="line"/>
      <point x="181" y="629" type="line"/>
      <point x="184" y="610"/>
      <point x="195" y="548"/>
      <point x="195" y="527" type="curve" smooth="yes"/>
      <point x="195" y="129" type="line" smooth="yes"/>
      <point x="195" y="107"/>
      <point x="184" y="42"/>
      <point x="181" y="26" type="curve"/>
      <point x="219" y="64" type="line"/>
      <point x="109" y="42" type="line"/>
    </contour>
    <contour>
      <point x="79" y="416" type="line"/>
      <point x="241" y="423" type="line"/>
      <point x="241" y="463" type="line"/>
      <point x="77" y="455" type="line"/>
    </contour>
    <contour>
      <point x="366" y="270" type="curve" smooth="yes"/>
      <point x="494" y="270"/>
      <point x="602" y="341"/>
      <point x="602" y="466" type="curve" smooth="yes"/>
      <point x="602" y="593"/>
      <point x="520" y="659"/>
      <point x="388" y="659" type="curve" smooth="yes"/>
      <point x="335" y="659"/>
      <point x="279" y="655"/>
      <point x="226" y="655" type="curve"/>
      <point x="226" y="604" type="line"/>
      <point x="266" y="608"/>
      <point x="311" y="612"/>
      <point x="348" y="612" type="curve" smooth="yes"/>
      <point x="448" y="612"/>
      <point x="514" y="561"/>
      <point x="514" y="466" type="curve" smooth="yes"/>
      <point x="514" y="367"/>
      <point x="448" y="318"/>
      <point x="348" y="318" type="curve" smooth="yes"/>
      <point x="318" y="318"/>
      <point x="253" y="324"/>
      <point x="212" y="329" type="curve"/>
      <point x="212" y="274" type="line"/>
      <point x="249" y="272"/>
      <point x="317" y="270"/>
    </contour>
    <contour>
      <point x="578" y="438" type="line"/>
      <point x="702" y="443" type="line"/>
      <point x="700" y="482" type="line"/>
      <point x="578" y="476" type="line"/>
    </contour>
  </outline>
</glyph>
<glyph name="won" format="2">
  <advance width="1122.1"/>
  <unicode hex="20A9"/>
  <outline>
    <contour>
      <point x="356" y="0" type="line"/>
      <point x="412" y="0" type="line"/>
      <point x="568" y="501" type="line"/>
      <point x="548" y="501" type="line"/>
      <point x="720" y="0" type="line"/>
      <point x="777" y="0" type="line"/>
      <point x="934" y="505" type="line"/>
      <point x="949" y="551"/>
      <point x="980" y="600"/>
      <point x="995" y="625" type="curve"/>
      <point x="945" y="593" type="line"/>
      <point x="1045" y="604" type="line"/>
      <point x="1042" y="659" type="line"/>
      <point x="1002" y="657"/>
      <point x="938" y="655"/>
      <point x="904" y="655" type="curve" smooth="yes"/>
      <point x="890" y="655"/>
      <point x="847" y="657"/>
      <point x="818" y="659" type="curve"/>
      <point x="813" y="608" type="line"/>
      <point x="920" y="588" type="line"/>
      <point x="888" y="620" type="line"/>
      <point x="888" y="604"/>
      <point x="886" y="567"/>
      <point x="876" y="536" type="curve"/>
      <point x="748" y="106" type="line"/>
      <point x="766" y="106" type="line"/>
      <point x="592" y="636" type="line"/>
      <point x="544" y="636" type="line"/>
      <point x="382" y="106" type="line"/>
      <point x="401" y="106" type="line"/>
      <point x="280" y="494" type="line"/>
      <point x="262" y="551"/>
      <point x="253" y="594"/>
      <point x="251" y="618" type="curve"/>
      <point x="220" y="590" type="line"/>
      <point x="330" y="604" type="line"/>
      <point x="326" y="659" type="line"/>
      <point x="292" y="657"/>
      <point x="233" y="655"/>
      <point x="192" y="655" type="curve" smooth="yes"/>
      <point x="178" y="655"/>
      <point x="121" y="657"/>
      <point x="82" y="659" type="curve"/>
      <point x="77" y="608" type="line"/>
      <point x="174" y="588" type="line"/>
      <point x="124" y="621" type="line"/>
      <point x="135" y="605"/>
      <point x="161" y="566"/>
      <point x="180" y="516" type="curve"/>
    </contour>
    <contour>
      <point x="84" y="258" type="line"/>
      <point x="299" y="268" type="line"/>
      <point x="299" y="307" type="line"/>
      <point x="82" y="298" type="line"/>
    </contour>
    <contour>
      <point x="832" y="293" type="line"/>
      <point x="1039" y="301" type="line"/>
      <point x="1037" y="340" type="line"/>
      <point x="832" y="331" type="line"/>
    </contour>
  </outline>
</glyph>
<glyph name="euro" format="2">
  <advance width="766.8"/>
  <unicode hex="20AC"/>
  <outline>
    <contour>
      <point x="466" y="-14" type="curve" smooth="yes"/>
      <point x="546" y="-14"/>
      <point x="613" y="3"/>
      <point x="673" y="18" type="curve"/>
      <point x="668" y="159" type="line"/>
      <point x="611" y="157" type="line"/>
      <point x="610" y="113" type="line" smooth="yes"/>
      <point x="610" y="101"/>
      <point x="598" y="63"/>
      <point x="587" y="35" type="curve"/>
      <point x="616" y="68" type="line"/>
      <point x="574" y="52"/>
      <point x="510" y="41"/>
      <point x="465" y="41" type="curve" smooth="yes"/>
      <point x="327" y="41"/>
      <point x="259" y="168"/>
      <point x="259" y="328" type="curve" smooth="yes"/>
      <point x="259" y="488"/>
      <point x="327" y="614"/>
      <point x="466" y="614" type="curve" smooth="yes"/>
      <point x="509" y="614"/>
      <point x="569" y="601"/>
      <point x="607" y="585" type="curve"/>
      <point x="580" y="617" type="line"/>
      <point x="587" y="595"/>
      <point x="600" y="558"/>
      <point x="600" y="547" type="curve" smooth="yes"/>
      <point x="599" y="502" type="line"/>
      <point x="655" y="498" type="line"/>
      <point x="664" y="637" type="line"/>
      <point x="605" y="652"/>
      <point x="545" y="669"/>
      <point x="466" y="669" type="curve" smooth="yes"/>
      <point x="266" y="669"/>
      <point x="163" y="529"/>
      <point x="163" y="327" type="curve" smooth="yes"/>
      <point x="163" y="125"/>
      <point x="265" y="-14"/>
    </contour>
    <contour>
      <point x="83" y="242" type="line"/>
      <point x="560" y="261" type="line"/>
      <point x="558" y="299" type="line"/>
      <point x="81" y="281" type="line"/>
    </contour>
    <contour>
      <point x="78" y="348" type="line"/>
      <point x="555" y="367" type="line"/>
      <point x="553" y="405" type="line"/>
      <point x="76" y="387" type="line"/>
    </contour>
  </outline>
</glyph>
<glyph name="kip" format="2">
  <advance width="791.7"/>
  <unicode hex="20AD"/>
  <outline>
    <contour>
      <point x="458" y="-5" type="line"/>
      <point x="504" y="-3"/>
      <point x="572" y="0"/>
      <point x="590" y="0" type="curve"/>
      <point x="715" y="0" type="line"/>
      <point x="721" y="50" type="line"/>
      <point x="620" y="61" type="line"/>
      <point x="691" y="27" type="line"/>
      <point x="672" y="42"/>
      <point x="598" y="101"/>
      <point x="578" y="120" type="curve"/>
      <point x="353" y="369" type="line"/>
      <point x="355" y="316" type="line"/>
      <point x="503" y="508" type="line"/>
      <point x="537" y="540"/>
      <point x="595" y="592"/>
      <point x="612" y="607" type="curve"/>
      <point x="569" y="595" type="line"/>
      <point x="675" y="604" type="line"/>
      <point x="672" y="659" type="line"/>
      <point x="640" y="657"/>
      <point x="582" y="655"/>
      <point x="541" y="655" type="curve" smooth="yes"/>
      <point x="528" y="655"/>
      <point x="481" y="657"/>
      <point x="449" y="659" type="curve"/>
      <point x="445" y="608" type="line"/>
      <point x="531" y="592" type="line"/>
      <point x="513" y="629" type="line"/>
      <point x="459" y="536" type="line"/>
      <point x="284" y="328" type="line"/>
      <point x="443" y="153" type="line"/>
      <point x="462" y="129"/>
      <point x="516" y="48"/>
      <point x="528" y="28" type="curve"/>
      <point x="543" y="63" type="line"/>
      <point x="453" y="42" type="line"/>
    </contour>
    <contour>
      <point x="109" y="-5" type="line"/>
      <point x="155" y="-3"/>
      <point x="221" y="0"/>
      <point x="238" y="0" type="curve"/>
      <point x="362" y="0" type="line"/>
      <point x="368" y="50" type="line"/>
      <point x="247" y="60" type="line"/>
      <point x="285" y="26" type="line"/>
      <point x="280" y="50"/>
      <point x="274" y="112"/>
      <point x="274" y="157" type="curve" smooth="yes"/>
      <point x="274" y="499" type="line" smooth="yes"/>
      <point x="274" y="546"/>
      <point x="282" y="610"/>
      <point x="284" y="628" type="curve"/>
      <point x="247" y="595" type="line"/>
      <point x="356" y="604" type="line"/>
      <point x="353" y="659" type="line"/>
      <point x="320" y="657"/>
      <point x="262" y="655"/>
      <point x="221" y="655" type="curve" smooth="yes"/>
      <point x="208" y="655"/>
      <point x="151" y="657"/>
      <point x="112" y="659" type="curve"/>
      <point x="107" y="608" type="line"/>
      <point x="214" y="592" type="line"/>
      <point x="176" y="629" type="line"/>
      <point x="179" y="610"/>
      <point x="190" y="548"/>
      <point x="190" y="527" type="curve" smooth="yes"/>
      <point x="190" y="129" type="line" smooth="yes"/>
      <point x="190" y="107"/>
      <point x="179" y="42"/>
      <point x="176" y="26" type="curve"/>
      <point x="214" y="64" type="line"/>
      <point x="104" y="42" type="line"/>
    </contour>
    <contour>
      <point x="82" y="297" type="line"/>
      <point x="581" y="321" type="line"/>
      <point x="579" y="360" type="line"/>
      <point x="80" y="337" type="line"/>
    </contour>
  </outline>
</glyph>
<glyph name="guarani" format="2">
  <advance width="687.1"/>
  <unicode hex="20B2"/>
  <outline>
    <contour>
      <point x="383" y="-13" type="curve" smooth="yes"/>
      <point x="460" y="-13"/>
      <point x="530" y="3"/>
      <point x="589" y="17" type="curve"/>
      <point x="589" y="148" type="line" smooth="yes"/>
      <point x="589" y="180"/>
      <point x="594" y="245"/>
      <point x="597" y="285" type="curve"/>
      <point x="581" y="300" type="line"/>
      <point x="561" y="299"/>
      <point x="530" y="297"/>
      <point x="516" y="297" type="curve"/>
      <point x="417" y="297" type="line"/>
      <point x="412" y="245" type="line"/>
      <point x="540" y="234" type="line"/>
      <point x="506" y="265" type="line"/>
      <point x="509" y="245"/>
      <point x="516" y="200"/>
      <point x="516" y="174" type="curve" smooth="yes"/>
      <point x="516" y="114" type="line" smooth="yes"/>
      <point x="516" y="101"/>
      <point x="506" y="56"/>
      <point x="500" y="32" type="curve"/>
      <point x="525" y="63" type="line"/>
      <point x="483" y="49"/>
      <point x="424" y="40"/>
      <point x="379" y="40" type="curve" smooth="yes"/>
      <point x="240" y="40"/>
      <point x="173" y="161"/>
      <point x="173" y="314" type="curve" smooth="yes"/>
      <point x="173" y="466"/>
      <point x="240" y="588"/>
      <point x="380" y="588" type="curve" smooth="yes"/>
      <point x="426" y="588"/>
      <point x="485" y="575"/>
      <point x="526" y="561" type="curve"/>
      <point x="501" y="590" type="line"/>
      <point x="507" y="569"/>
      <point x="519" y="534"/>
      <point x="519" y="523" type="curve" smooth="yes"/>
      <point x="519" y="481" type="line"/>
      <point x="572" y="477" type="line"/>
      <point x="581" y="610" type="line"/>
      <point x="521" y="624"/>
      <point x="461" y="640"/>
      <point x="383" y="640" type="curve" smooth="yes"/>
      <point x="184" y="640"/>
      <point x="82" y="506"/>
      <point x="82" y="313" type="curve" smooth="yes"/>
      <point x="82" y="120"/>
      <point x="184" y="-13"/>
    </contour>
    <contour>
      <point x="384" y="-154" type="line"/>
      <point x="391" y="15" type="line"/>
      <point x="348" y="15" type="line"/>
      <point x="341" y="-151" type="line"/>
    </contour>
    <contour>
      <point x="371" y="616" type="line"/>
      <point x="413" y="616" type="line"/>
      <point x="420" y="785" type="line"/>
      <point x="378" y="788" type="line"/>
    </contour>
  </outline>
</glyph>
